CooperHewittInterpol1-MediumItalic.ufo
<glyph name="dollar" format="1">
  <advance width="596"/>
  <unicode hex="0024"/>
  <outline>
    <contour>
      <point x="188" y="544" type="line" smooth="yes"/>
      <point x="189" y="552" type="line" smooth="yes"/>
      <point x="234" y="621" type="line" smooth="yes"/>
      <point x="332" y="640" type="line" smooth="yes"/>
      <point x="338" y="640" type="line" smooth="yes"/>
      <point x="346" y="640" type="line" smooth="yes"/>
      <point x="353" y="639" type="line" smooth="yes"/>
      <point x="281" y="444" type="line" smooth="yes"/>
      <point x="201" y="485" type="line" smooth="yes"/>
    </contour>
    <contour>
      <point x="422" y="243" type="line" smooth="yes"/>
      <point x="421" y="235" type="line" smooth="yes"/>
      <point x="375" y="162" type="line" smooth="yes"/>
      <point x="282" y="141" type="line" smooth="yes"/>
      <point x="274" y="141" type="line" smooth="yes"/>
      <point x="263" y="141" type="line" smooth="yes"/>
      <point x="252" y="142" type="line" smooth="yes"/>
      <point x="328" y="348" type="line" smooth="yes"/>
      <point x="405" y="309" type="line" smooth="yes"/>
    </contour>
    <contour>
      <point x="177" y="-60" type="line" smooth="yes"/>
      <point x="220" y="56" type="line" smooth="yes"/>
      <point x="248" y="53" type="line" smooth="yes"/>
      <point x="278" y="52" type="line" smooth="yes"/>
      <point x="445" y="101" type="line" smooth="yes"/>
      <point x="525" y="235" type="line" smooth="yes"/>
      <point x="526" y="243" type="line" smooth="yes"/>
      <point x="489" y="371" type="line" smooth="yes"/>
      <point x="359" y="431" type="line" smooth="yes"/>
      <point x="427" y="615" type="line" smooth="yes"/>
      <point x="454" y="570" type="line" smooth="yes"/>
      <point x="453" y="495" type="line" smooth="yes"/>
      <point x="554" y="495" type="line" smooth="yes"/>
      <point x="555" y="502" type="line" smooth="yes"/>
      <point x="544" y="624" type="line" smooth="yes"/>
      <point x="460" y="706" type="line" smooth="yes"/>
      <point x="510" y="840" type="line" smooth="yes"/>
      <point x="427" y="840" type="line" smooth="yes"/>
      <point x="385" y="726" type="line" smooth="yes"/>
      <point x="361" y="728" type="line" smooth="yes"/>
      <point x="335" y="729" type="line" smooth="yes"/>
      <point x="162" y="684" type="line" smooth="yes"/>
      <point x="85" y="552" type="line" smooth="yes"/>
      <point x="84" y="544" type="line" smooth="yes"/>
      <point x="110" y="429" type="line" smooth="yes"/>
      <point x="250" y="361" type="line" smooth="yes"/>
      <point x="178" y="166" type="line" smooth="yes"/>
      <point x="148" y="208" type="line" smooth="yes"/>
      <point x="144" y="276" type="line" smooth="yes"/>
      <point x="43" y="276" type="line" smooth="yes"/>
      <point x="42" y="269" type="line" smooth="yes"/>
      <point x="59" y="153" type="line" smooth="yes"/>
      <point x="145" y="77" type="line" smooth="yes"/>
      <point x="94" y="-60" type="line" smooth="yes"/>
    </contour>
  </outline>
</glyph>
<glyph name="percent" format="1">
  <advance width="941"/>
  <unicode hex="0025"/>
  <outline>
    <contour>
      <point x="253" y="712" type="line" smooth="yes"/>
      <point x="318" y="685" type="line" smooth="yes"/>
      <point x="336" y="613" type="line" smooth="yes"/>
      <point x="335" y="605" type="line" smooth="yes"/>
      <point x="302" y="531" type="line" smooth="yes"/>
      <point x="233" y="506" type="line" smooth="yes"/>
      <point x="227" y="506" type="line" smooth="yes"/>
      <point x="162" y="533" type="line" smooth="yes"/>
      <point x="144" y="605" type="line" smooth="yes"/>
      <point x="145" y="613" type="line" smooth="yes"/>
      <point x="178" y="687" type="line" smooth="yes"/>
      <point x="247" y="712" type="line" smooth="yes"/>
    </contour>
    <contour>
      <point x="250" y="792" type="line" smooth="yes"/>
      <point x="126" y="745" type="line" smooth="yes"/>
      <point x="65" y="615" type="line" smooth="yes"/>
      <point x="64" y="607" type="line" smooth="yes"/>
      <point x="102" y="473" type="line" smooth="yes"/>
      <point x="230" y="426" type="line" smooth="yes"/>
      <point x="354" y="473" type="line" smooth="yes"/>
      <point x="415" y="603" type="line" smooth="yes"/>
      <point x="416" y="611" type="line" smooth="yes"/>
      <point x="417" y="646" type="line" smooth="yes"/>
      <point x="414" y="674" type="line" smooth="yes"/>
      <point x="449" y="669" type="line" smooth="yes"/>
      <point x="499" y="666" type="line" smooth="yes"/>
      <point x="551" y="670" type="line" smooth="yes"/>
      <point x="585" y="678" type="line" smooth="yes"/>
      <point x="214" y="0" type="line" smooth="yes"/>
      <point x="306" y="0" type="line" smooth="yes"/>
      <point x="701" y="721" type="line" smooth="yes"/>
      <point x="709" y="782" type="line" smooth="yes"/>
      <point x="628" y="762" type="line" smooth="yes"/>
      <point x="505" y="750" type="line" smooth="yes"/>
      <point x="420" y="754" type="line" smooth="yes"/>
      <point x="340" y="773" type="line" smooth="yes"/>
      <point x="297" y="787" type="line" smooth="yes"/>
    </contour>
    <contour>
      <point x="719" y="274" type="line" smooth="yes"/>
      <point x="784" y="247" type="line" smooth="yes"/>
      <point x="802" y="175" type="line" smooth="yes"/>
      <point x="801" y="167" type="line" smooth="yes"/>
      <point x="768" y="93" type="line" smooth="yes"/>
      <point x="699" y="68" type="line" smooth="yes"/>
      <point x="693" y="68" type="line" smooth="yes"/>
      <point x="628" y="95" type="line" smooth="yes"/>
      <point x="610" y="167" type="line" smooth="yes"/>
      <point x="611" y="175" type="line" smooth="yes"/>
      <point x="644" y="249" type="line" smooth="yes"/>
      <point x="713" y="274" type="line" smooth="yes"/>
    </contour>
    <contour>
      <point x="696" y="-12" type="line" smooth="yes"/>
      <point x="820" y="35" type="line" smooth="yes"/>
      <point x="881" y="165" type="line" smooth="yes"/>
      <point x="882" y="173" type="line" smooth="yes"/>
      <point x="844" y="307" type="line" smooth="yes"/>
      <point x="716" y="354" type="line" smooth="yes"/>
      <point x="592" y="307" type="line" smooth="yes"/>
      <point x="531" y="177" type="line" smooth="yes"/>
      <point x="530" y="169" type="line" smooth="yes"/>
      <point x="568" y="35" type="line" smooth="yes"/>
    </contour>
  </outline>
</glyph>
<glyph name="ampersand" format="1">
  <advance width="671"/>
  <unicode hex="0026"/>
  <outline>
    <contour>
      <point x="203" y="621" type="line" smooth="yes"/>
      <point x="232" y="678" type="line" smooth="yes"/>
      <point x="300" y="701" type="line" smooth="yes"/>
      <point x="308" y="701" type="line" smooth="yes"/>
      <point x="373" y="678" type="line" smooth="yes"/>
      <point x="389" y="621" type="line" smooth="yes"/>
      <point x="388" y="613" type="line" smooth="yes"/>
      <point x="340" y="537" type="line" smooth="yes"/>
      <point x="247" y="476" type="line" smooth="yes"/>
      <point x="210" y="539" type="line" smooth="yes"/>
      <point x="202" y="613" type="line" smooth="yes"/>
    </contour>
    <contour>
      <point x="232" y="79" type="line" smooth="yes"/>
      <point x="136" y="115" type="line" smooth="yes"/>
      <point x="116" y="212" type="line" smooth="yes"/>
      <point x="117" y="220" type="line" smooth="yes"/>
      <point x="150" y="299" type="line" smooth="yes"/>
      <point x="213" y="356" type="line" smooth="yes"/>
      <point x="385" y="131" type="line" smooth="yes"/>
      <point x="316" y="93" type="line" smooth="yes"/>
      <point x="240" y="79" type="line" smooth="yes"/>
    </contour>
    <contour>
      <point x="225" y="-12" type="line" smooth="yes"/>
      <point x="340" y="7" type="line" smooth="yes"/>
      <point x="438" y="61" type="line" smooth="yes"/>
      <point x="485" y="0" type="line" smooth="yes"/>
      <point x="611" y="0" type="line" smooth="yes"/>
      <point x="512" y="129" type="line" smooth="yes"/>
      <point x="583" y="240" type="line" smooth="yes"/>
      <point x="623" y="395" type="line" smooth="yes"/>
      <point x="517" y="395" type="line" smooth="yes"/>
      <point x="516" y="387" type="line" smooth="yes"/>
      <point x="493" y="286" type="line" smooth="yes"/>
      <point x="454" y="206" type="line" smooth="yes"/>
      <point x="298" y="409" type="line" smooth="yes"/>
      <point x="425" y="494" type="line" smooth="yes"/>
      <point x="490" y="605" type="line" smooth="yes"/>
      <point x="493" y="627" type="line" smooth="yes"/>
      <point x="459" y="739" type="line" smooth="yes"/>
      <point x="306" y="792" type="line" smooth="yes"/>
      <point x="160" y="747" type="line" smooth="yes"/>
      <point x="100" y="632" type="line" smooth="yes"/>
      <point x="97" y="609" type="line" smooth="yes"/>
      <point x="108" y="512" type="line" smooth="yes"/>
      <point x="162" y="423" type="line" smooth="yes"/>
      <point x="67" y="346" type="line" smooth="yes"/>
      <point x="14" y="228" type="line" smooth="yes"/>
      <point x="11" y="206" type="line" smooth="yes"/>
      <point x="53" y="46" type="line" smooth="yes"/>
    </contour>
  </outline>
</glyph>
<glyph name="parenleft" format="1">
  <advance width="334"/>
  <unicode hex="0028"/>
  <outline>
    <contour>
      <point x="43" y="349" type="line" smooth="yes"/>
      <point x="57" y="62" type="line" smooth="yes"/>
      <point x="133" y="-120" type="line" smooth="yes"/>
      <point x="240" y="-120" type="line" smooth="yes"/>
      <point x="161" y="69" type="line" smooth="yes"/>
      <point x="145" y="349" type="line" smooth="yes"/>
      <point x="148" y="371" type="line" smooth="yes"/>
      <point x="231" y="643" type="line" smooth="yes"/>
      <point x="370" y="840" type="line" smooth="yes"/>
      <point x="254" y="840" type="line" smooth="yes"/>
      <point x="130" y="664" type="line" smooth="yes"/>
      <point x="46" y="371" type="line" smooth="yes"/>
    </contour>
  </outline>
</glyph>
<glyph name="two" format="1">
  <advance width="597"/>
  <unicode hex="0032"/>
  <outline>
    <contour>
      <point x="237" y="92" type="line" smooth="yes"/>
      <point x="164" y="91" type="line" smooth="yes"/>
      <point x="458" y="366" type="line" smooth="yes"/>
      <point x="541" y="460" type="line" smooth="yes"/>
      <point x="573" y="556" type="line" smooth="yes"/>
      <point x="576" y="578" type="line" smooth="yes"/>
      <point x="531" y="730" type="line" smooth="yes"/>
      <point x="346" y="792" type="line" smooth="yes"/>
      <point x="157" y="730" type="line" smooth="yes"/>
      <point x="74" y="547" type="line" smooth="yes"/>
      <point x="70" y="520" type="line" smooth="yes"/>
      <point x="173" y="520" type="line" smooth="yes"/>
      <point x="228" y="659" type="line" smooth="yes"/>
      <point x="340" y="701" type="line" smooth="yes"/>
      <point x="348" y="701" type="line" smooth="yes"/>
      <point x="445" y="667" type="line" smooth="yes"/>
      <point x="471" y="568" type="line" smooth="yes"/>
      <point x="470" y="560" type="line" smooth="yes"/>
      <point x="445" y="486" type="line" smooth="yes"/>
      <point x="380" y="413" type="line" smooth="yes"/>
      <point x="11" y="67" type="line" smooth="yes"/>
      <point x="2" y="0" type="line" smooth="yes"/>
      <point x="499" y="0" type="line" smooth="yes"/>
      <point x="511" y="92" type="line" smooth="yes"/>
    </contour>
  </outline>
</glyph>
<glyph name="three" format="1">
  <advance width="597"/>
  <unicode hex="0033"/>
  <outline>
    <contour>
      <point x="132" y="250" type="line" smooth="yes"/>
      <point x="29" y="250" type="line" smooth="yes"/>
      <point x="28" y="243" type="line" smooth="yes"/>
      <point x="71" y="57" type="line" smooth="yes"/>
      <point x="263" y="-12" type="line" smooth="yes"/>
      <point x="449" y="49" type="line" smooth="yes"/>
      <point x="530" y="196" type="line" smooth="yes"/>
      <point x="533" y="218" type="line" smooth="yes"/>
      <point x="513" y="336" type="line" smooth="yes"/>
      <point x="426" y="400" type="line" smooth="yes"/>
      <point x="525" y="457" type="line" smooth="yes"/>
      <point x="573" y="556" type="line" smooth="yes"/>
      <point x="576" y="578" type="line" smooth="yes"/>
      <point x="531" y="730" type="line" smooth="yes"/>
      <point x="346" y="792" type="line" smooth="yes"/>
      <point x="157" y="730" type="line" smooth="yes"/>
      <point x="74" y="547" type="line" smooth="yes"/>
      <point x="70" y="520" type="line" smooth="yes"/>
      <point x="173" y="520" type="line" smooth="yes"/>
      <point x="228" y="659" type="line" smooth="yes"/>
      <point x="340" y="701" type="line" smooth="yes"/>
      <point x="348" y="701" type="line" smooth="yes"/>
      <point x="445" y="667" type="line" smooth="yes"/>
      <point x="471" y="568" type="line" smooth="yes"/>
      <point x="470" y="560" type="line" smooth="yes"/>
      <point x="420" y="471" type="line" smooth="yes"/>
      <point x="316" y="443" type="line" smooth="yes"/>
      <point x="209" y="443" type="line" smooth="yes"/>
      <point x="197" y="353" type="line" smooth="yes"/>
      <point x="308" y="353" type="line" smooth="yes"/>
      <point x="403" y="319" type="line" smooth="yes"/>
      <point x="428" y="220" type="line" smooth="yes"/>
      <point x="427" y="212" type="line" smooth="yes"/>
      <point x="371" y="111" type="line" smooth="yes"/>
      <point x="267" y="79" type="line" smooth="yes"/>
      <point x="259" y="79" type="line" smooth="yes"/>
      <point x="155" y="117" type="line" smooth="yes"/>
    </contour>
  </outline>
</glyph>
<glyph name="six" format="1">
  <advance width="600"/>
  <unicode hex="0036"/>
  <outline>
    <contour>
      <point x="309" y="399" type="line" smooth="yes"/>
      <point x="409" y="358" type="line" smooth="yes"/>
      <point x="435" y="242" type="line" smooth="yes"/>
      <point x="434" y="234" type="line" smooth="yes"/>
      <point x="382" y="120" type="line" smooth="yes"/>
      <point x="273" y="80" type="line" smooth="yes"/>
      <point x="267" y="80" type="line" smooth="yes"/>
      <point x="172" y="116" type="line" smooth="yes"/>
      <point x="133" y="227" type="line" smooth="yes"/>
      <point x="136" y="271" type="line" smooth="yes"/>
      <point x="144" y="307" type="line" smooth="yes"/>
      <point x="213" y="376" type="line" smooth="yes"/>
      <point x="303" y="399" type="line" smooth="yes"/>
    </contour>
    <contour>
      <point x="574" y="792" type="line" smooth="yes"/>
      <point x="373" y="760" type="line" smooth="yes"/>
      <point x="191" y="643" type="line" smooth="yes"/>
      <point x="83" y="477" type="line" smooth="yes"/>
      <point x="39" y="299" type="line" smooth="yes"/>
      <point x="36" y="277" type="line" smooth="yes"/>
      <point x="82" y="68" type="line" smooth="yes"/>
      <point x="268" y="-12" type="line" smooth="yes"/>
      <point x="451" y="49" type="line" smooth="yes"/>
      <point x="537" y="230" type="line" smooth="yes"/>
      <point x="540" y="252" type="line" smooth="yes"/>
      <point x="489" y="432" type="line" smooth="yes"/>
      <point x="330" y="491" type="line" smooth="yes"/>
      <point x="236" y="470" type="line" smooth="yes"/>
      <point x="167" y="419" type="line" smooth="yes"/>
      <point x="204" y="505" type="line" smooth="yes"/>
      <point x="260" y="582" type="line" smooth="yes"/>
      <point x="406" y="674" type="line" smooth="yes"/>
      <point x="561" y="699" type="line" smooth="yes"/>
    </contour>
  </outline>
</glyph>
<glyph name="eight" format="1">
  <advance width="597"/>
  <unicode hex="0038"/>
  <outline>
    <contour>
      <point x="347" y="701" type="line" smooth="yes"/>
      <point x="445" y="667" type="line" smooth="yes"/>
      <point x="471" y="568" type="line" smooth="yes"/>
      <point x="470" y="560" type="line" smooth="yes"/>
      <point x="420" y="471" type="line" smooth="yes"/>
      <point x="316" y="443" type="line" smooth="yes"/>
      <point x="299" y="443" type="line" smooth="yes"/>
      <point x="208" y="474" type="line" smooth="yes"/>
      <point x="180" y="565" type="line" smooth="yes"/>
      <point x="181" y="573" type="line" smooth="yes"/>
      <point x="231" y="667" type="line" smooth="yes"/>
      <point x="339" y="701" type="line" smooth="yes"/>
    </contour>
    <contour>
      <point x="308" y="353" type="line" smooth="yes"/>
      <point x="403" y="319" type="line" smooth="yes"/>
      <point x="428" y="220" type="line" smooth="yes"/>
      <point x="427" y="212" type="line" smooth="yes"/>
      <point x="374" y="111" type="line" smooth="yes"/>
      <point x="272" y="79" type="line" smooth="yes"/>
      <point x="262" y="79" type="line" smooth="yes"/>
      <point x="161" y="111" type="line" smooth="yes"/>
      <point x="129" y="209" type="line" smooth="yes"/>
      <point x="130" y="217" type="line" smooth="yes"/>
      <point x="182" y="318" type="line" smooth="yes"/>
      <point x="287" y="353" type="line" smooth="yes"/>
    </contour>
    <contour>
      <point x="262" y="-12" type="line" smooth="yes"/>
      <point x="450" y="49" type="line" smooth="yes"/>
      <point x="530" y="196" type="line" smooth="yes"/>
      <point x="533" y="218" type="line" smooth="yes"/>
      <point x="513" y="336" type="line" smooth="yes"/>
      <point x="426" y="400" type="line" smooth="yes"/>
      <point x="524" y="452" type="line" smooth="yes"/>
      <point x="573" y="556" type="line" smooth="yes"/>
      <point x="576" y="578" type="line" smooth="yes"/>
      <point x="530" y="730" type="line" smooth="yes"/>
      <point x="345" y="792" type="line" smooth="yes"/>
      <point x="155" y="733" type="line" smooth="yes"/>
      <point x="80" y="589" type="line" smooth="yes"/>
      <point x="77" y="567" type="line" smooth="yes"/>
      <point x="103" y="458" type="line" smooth="yes"/>
      <point x="187" y="402" type="line" smooth="yes"/>
      <point x="82" y="343" type="line" smooth="yes"/>
      <point x="27" y="221" type="line" smooth="yes"/>
      <point x="24" y="199" type="line" smooth="yes"/>
      <point x="75" y="49" type="line" smooth="yes"/>
    </contour>
  </outline>
</glyph>
<glyph name="question" format="1">
  <advance width="470"/>
  <unicode hex="003F"/>
  <outline>
    <contour>
      <point x="275" y="792" type="line" smooth="yes"/>
      <point x="108" y="718" type="line" smooth="yes"/>
      <point x="43" y="516" type="line" smooth="yes"/>
      <point x="42" y="509" type="line" smooth="yes"/>
      <point x="145" y="509" type="line" smooth="yes"/>
      <point x="180" y="647" type="line" smooth="yes"/>
      <point x="275" y="701" type="line" smooth="yes"/>
      <point x="349" y="676" type="line" smooth="yes"/>
      <point x="371" y="608" type="line" smooth="yes"/>
      <point x="279" y="430" type="line" smooth="yes"/>
      <point x="175" y="203" type="line" smooth="yes"/>
      <point x="244" y="203" type="line" smooth="yes"/>
      <point x="372" y="405" type="line" smooth="yes"/>
      <point x="476" y="615" type="line" smooth="yes"/>
      <point x="431" y="746" type="line" smooth="yes"/>
    </contour>
    <contour>
      <point x="256" y="114" type="line" smooth="yes"/>
      <point x="142" y="114" type="line" smooth="yes"/>
      <point x="127" y="0" type="line" smooth="yes"/>
      <point x="241" y="0" type="line" smooth="yes"/>
    </contour>
  </outline>
</glyph>
<glyph name="at" format="1">
  <advance width="966"/>
  <unicode hex="0040"/>
  <outline>
    <contour>
      <point x="587" y="391" type="line" smooth="yes"/>
      <point x="562" y="199" type="line" smooth="yes"/>
      <point x="517" y="154" type="line" smooth="yes"/>
      <point x="435" y="130" type="line" smooth="yes"/>
      <point x="353" y="174" type="line" smooth="yes"/>
      <point x="337" y="284" type="line" smooth="yes"/>
      <point x="340" y="306" type="line" smooth="yes"/>
      <point x="383" y="417" type="line" smooth="yes"/>
      <point x="478" y="460" type="line" smooth="yes"/>
      <point x="550" y="436" type="line" smooth="yes"/>
    </contour>
    <contour>
      <point x="446" y="-140" type="line" smooth="yes"/>
      <point x="170" y="-37" type="line" smooth="yes"/>
      <point x="91" y="268" type="line" smooth="yes"/>
      <point x="97" y="314" type="line" smooth="yes"/>
      <point x="242" y="616" type="line" smooth="yes"/>
      <point x="542" y="720" type="line" smooth="yes"/>
      <point x="548" y="720" type="line" smooth="yes"/>
      <point x="792" y="645" type="line" smooth="yes"/>
      <point x="868" y="389" type="line" smooth="yes"/>
      <point x="865" y="367" type="line" smooth="yes"/>
      <point x="790" y="181" type="line" smooth="yes"/>
      <point x="643" y="131" type="line" smooth="yes"/>
      <point x="677" y="385" type="line" smooth="yes"/>
      <point x="703" y="530" type="line" smooth="yes"/>
      <point x="624" y="530" type="line" smooth="yes"/>
      <point x="605" y="461" type="line" smooth="yes"/>
      <point x="557" y="517" type="line" smooth="yes"/>
      <point x="463" y="542" type="line" smooth="yes"/>
      <point x="311" y="472" type="line" smooth="yes"/>
      <point x="244" y="306" type="line" smooth="yes"/>
      <point x="241" y="284" type="line" smooth="yes"/>
      <point x="266" y="118" type="line" smooth="yes"/>
      <point x="408" y="48" type="line" smooth="yes"/>
      <point x="503" y="73" type="line" smooth="yes"/>
      <point x="563" y="129" type="line" smooth="yes"/>
      <point x="563" y="60" type="line" smooth="yes"/>
      <point x="629" y="60" type="line" smooth="yes"/>
      <point x="830" y="124" type="line" smooth="yes"/>
      <point x="940" y="367" type="line" smooth="yes"/>
      <point x="943" y="389" type="line" smooth="yes"/>
      <point x="851" y="694" type="line" smooth="yes"/>
      <point x="545" y="792" type="line" smooth="yes"/>
      <point x="194" y="668" type="line" smooth="yes"/>
      <point x="23" y="314" type="line" smooth="yes"/>
      <point x="17" y="268" type="line" smooth="yes"/>
      <point x="107" y="-87" type="line" smooth="yes"/>
      <point x="449" y="-212" type="line" smooth="yes"/>
      <point x="631" y="-186" type="line" smooth="yes"/>
      <point x="822" y="-90" type="line" smooth="yes"/>
      <point x="787" y="-34" type="line" smooth="yes"/>
      <point x="624" y="-114" type="line" smooth="yes"/>
      <point x="452" y="-140" type="line" smooth="yes"/>
    </contour>
  </outline>
</glyph>
<glyph name="B" format="1">
  <advance width="599"/>
  <unicode hex="0042"/>
  <outline>
    <contour>
      <point x="335" y="688" type="line" smooth="yes"/>
      <point x="422" y="660" type="line" smooth="yes"/>
      <point x="448" y="568" type="line" smooth="yes"/>
      <point x="447" y="560" type="line" smooth="yes"/>
      <point x="395" y="471" type="line" smooth="yes"/>
      <point x="304" y="446" type="line" smooth="yes"/>
      <point x="181" y="446" type="line" smooth="yes"/>
      <point x="212" y="688" type="line" smooth="yes"/>
    </contour>
    <contour>
      <point x="310" y="354" type="line" smooth="yes"/>
      <point x="395" y="324" type="line" smooth="yes"/>
      <point x="422" y="220" type="line" smooth="yes"/>
      <point x="421" y="212" type="line" smooth="yes"/>
      <point x="368" y="118" type="line" smooth="yes"/>
      <point x="267" y="92" type="line" smooth="yes"/>
      <point x="134" y="92" type="line" smooth="yes"/>
      <point x="168" y="354" type="line" smooth="yes"/>
    </contour>
    <contour>
      <point x="120" y="780" type="line" smooth="yes"/>
      <point x="18" y="0" type="line" smooth="yes"/>
      <point x="260" y="0" type="line" smooth="yes"/>
      <point x="433" y="42" type="line" smooth="yes"/>
      <point x="526" y="206" type="line" smooth="yes"/>
      <point x="529" y="228" type="line" smooth="yes"/>
      <point x="508" y="343" type="line" smooth="yes"/>
      <point x="426" y="401" type="line" smooth="yes"/>
      <point x="508" y="454" type="line" smooth="yes"/>
      <point x="552" y="554" type="line" smooth="yes"/>
      <point x="555" y="576" type="line" smooth="yes"/>
      <point x="503" y="737" type="line" smooth="yes"/>
      <point x="340" y="780" type="line" smooth="yes"/>
    </contour>
  </outline>
</glyph>
<glyph name="C" format="1">
  <advance width="624"/>
  <unicode hex="0043"/>
  <outline>
    <contour>
      <point x="161" y="413" type="line" smooth="yes"/>
      <point x="229" y="631" type="line" smooth="yes"/>
      <point x="368" y="700" type="line" smooth="yes"/>
      <point x="376" y="700" type="line" smooth="yes"/>
      <point x="483" y="649" type="line" smooth="yes"/>
      <point x="493" y="491" type="line" smooth="yes"/>
      <point x="598" y="491" type="line" smooth="yes"/>
      <point x="602" y="518" type="line" smooth="yes"/>
      <point x="565" y="724" type="line" smooth="yes"/>
      <point x="372" y="792" type="line" smooth="yes"/>
      <point x="158" y="703" type="line" smooth="yes"/>
      <point x="55" y="413" type="line" smooth="yes"/>
      <point x="49" y="367" type="line" smooth="yes"/>
      <point x="82" y="77" type="line" smooth="yes"/>
      <point x="292" y="-12" type="line" smooth="yes"/>
      <point x="483" y="55" type="line" smooth="yes"/>
      <point x="566" y="249" type="line" smooth="yes"/>
      <point x="567" y="259" type="line" smooth="yes"/>
      <point x="463" y="259" type="line" smooth="yes"/>
      <point x="413" y="127" type="line" smooth="yes"/>
      <point x="296" y="80" type="line" smooth="yes"/>
      <point x="288" y="80" type="line" smooth="yes"/>
      <point x="166" y="149" type="line" smooth="yes"/>
      <point x="155" y="367" type="line" smooth="yes"/>
    </contour>
  </outline>
</glyph>
<glyph name="J" format="1">
  <advance width="510"/>
  <unicode hex="004A"/>
  <outline>
    <contour>
      <point x="397" y="780" type="line" smooth="yes"/>
      <point x="328" y="254" type="line" smooth="yes"/>
      <point x="286" y="123" type="line" smooth="yes"/>
      <point x="192" y="80" type="line" smooth="yes"/>
      <point x="116" y="119" type="line" smooth="yes"/>
      <point x="111" y="259" type="line" smooth="yes"/>
      <point x="12" y="259" type="line" smooth="yes"/>
      <point x="8" y="232" type="line" smooth="yes"/>
      <point x="35" y="50" type="line" smooth="yes"/>
      <point x="192" y="-12" type="line" smooth="yes"/>
      <point x="359" y="55" type="line" smooth="yes"/>
      <point x="430" y="239" type="line" smooth="yes"/>
      <point x="501" y="780" type="line" smooth="yes"/>
    </contour>
  </outline>
</glyph>
<glyph name="L" format="1">
  <advance width="501"/>
  <unicode hex="004C"/>
  <outline>
    <contour>
      <point x="437" y="0" type="line" smooth="yes"/>
      <point x="449" y="92" type="line" smooth="yes"/>
      <point x="134" y="92" type="line" smooth="yes"/>
      <point x="224" y="780" type="line" smooth="yes"/>
      <point x="120" y="780" type="line" smooth="yes"/>
      <point x="18" y="0" type="line" smooth="yes"/>
    </contour>
  </outline>
</glyph>
<glyph name="Q" format="1">
  <advance width="648"/>
  <unicode hex="0051"/>
  <outline>
    <contour>
      <point x="286" y="80" type="line" smooth="yes"/>
      <point x="166" y="149" type="line" smooth="yes"/>
      <point x="155" y="367" type="line" smooth="yes"/>
      <point x="161" y="413" type="line" smooth="yes"/>
      <point x="228" y="631" type="line" smooth="yes"/>
      <point x="366" y="700" type="line" smooth="yes"/>
      <point x="374" y="700" type="line" smooth="yes"/>
      <point x="494" y="631" type="line" smooth="yes"/>
      <point x="505" y="413" type="line" smooth="yes"/>
      <point x="499" y="367" type="line" smooth="yes"/>
      <point x="457" y="196" type="line" smooth="yes"/>
      <point x="383" y="102" type="line" smooth="yes"/>
      <point x="348" y="239" type="line" smooth="yes"/>
      <point x="265" y="239" type="line" smooth="yes"/>
      <point x="304" y="80" type="line" smooth="yes"/>
    </contour>
    <contour>
      <point x="370" y="792" type="line" smooth="yes"/>
      <point x="157" y="703" type="line" smooth="yes"/>
      <point x="55" y="413" type="line" smooth="yes"/>
      <point x="49" y="367" type="line" smooth="yes"/>
      <point x="81" y="77" type="line" smooth="yes"/>
      <point x="290" y="-12" type="line" smooth="yes"/>
      <point x="308" y="-11" type="line" smooth="yes"/>
      <point x="326" y="-10" type="line" smooth="yes"/>
      <point x="348" y="-100" type="line" smooth="yes"/>
      <point x="435" y="-100" type="line" smooth="yes"/>
      <point x="407" y="8" type="line" smooth="yes"/>
      <point x="537" y="126" type="line" smooth="yes"/>
      <point x="605" y="367" type="line" smooth="yes"/>
      <point x="611" y="413" type="line" smooth="yes"/>
      <point x="579" y="703" type="line" smooth="yes"/>
    </contour>
  </outline>
</glyph>
<glyph name="Y" format="1">
  <advance width="594"/>
  <unicode hex="0059"/>
  <outline>
    <contour>
      <point x="331" y="237" type="line" smooth="yes"/>
      <point x="631" y="780" type="line" smooth="yes"/>
      <point x="516" y="780" type="line" smooth="yes"/>
      <point x="294" y="366" type="line" smooth="yes"/>
      <point x="180" y="780" type="line" smooth="yes"/>
      <point x="69" y="780" type="line" smooth="yes"/>
      <point x="227" y="237" type="line" smooth="yes"/>
      <point x="196" y="0" type="line" smooth="yes"/>
      <point x="300" y="0" type="line" smooth="yes"/>
    </contour>
  </outline>
</glyph>
<glyph name="grave" format="1">
  <advance width="500"/>
  <unicode hex="0060"/>
  <outline>
    <contour>
      <point x="153" y="780" type="line" smooth="yes"/>
      <point x="229" y="607" type="line" smooth="yes"/>
      <point x="331" y="607" type="line" smooth="yes"/>
      <point x="263" y="780" type="line" smooth="yes"/>
    </contour>
  </outline>
</glyph>
<glyph name="h" format="1">
  <advance width="543"/>
  <unicode hex="0068"/>
  <outline>
    <contour>
      <point x="13" y="0" type="line" smooth="yes"/>
      <point x="113" y="0" type="line" smooth="yes"/>
      <point x="163" y="381" type="line" smooth="yes"/>
      <point x="213" y="428" type="line" smooth="yes"/>
      <point x="298" y="454" type="line" smooth="yes"/>
      <point x="371" y="425" type="line" smooth="yes"/>
      <point x="386" y="350" type="line" smooth="yes"/>
      <point x="340" y="0" type="line" smooth="yes"/>
      <point x="440" y="0" type="line" smooth="yes"/>
      <point x="488" y="365" type="line" smooth="yes"/>
      <point x="461" y="489" type="line" smooth="yes"/>
      <point x="340" y="542" type="line" smooth="yes"/>
      <point x="245" y="524" type="line" smooth="yes"/>
      <point x="175" y="475" type="line" smooth="yes"/>
      <point x="218" y="800" type="line" smooth="yes"/>
      <point x="118" y="800" type="line" smooth="yes"/>
    </contour>
  </outline>
</glyph>
<glyph name="j" format="1">
  <advance width="234"/>
  <unicode hex="006A"/>
  <outline>
    <contour>
      <point x="224" y="754" type="line" smooth="yes"/>
      <point x="110" y="754" type="line" smooth="yes"/>
      <point x="95" y="640" type="line" smooth="yes"/>
      <point x="209" y="640" type="line" smooth="yes"/>
    </contour>
    <contour>
      <point x="13" y="-31" type="line" smooth="yes"/>
      <point x="-21" y="-106" type="line" smooth="yes"/>
      <point x="-88" y="-124" type="line" smooth="yes"/>
      <point x="-123" y="-121" type="line" smooth="yes"/>
      <point x="-146" y="-116" type="line" smooth="yes"/>
      <point x="-157" y="-200" type="line" smooth="yes"/>
      <point x="-135" y="-207" type="line" smooth="yes"/>
      <point x="-83" y="-212" type="line" smooth="yes"/>
      <point x="46" y="-175" type="line" smooth="yes"/>
      <point x="112" y="-39" type="line" smooth="yes"/>
      <point x="187" y="530" type="line" smooth="yes"/>
      <point x="87" y="530" type="line" smooth="yes"/>
    </contour>
  </outline>
</glyph>
<glyph name="k" format="1">
  <advance width="522"/>
  <unicode hex="006B"/>
  <outline>
    <contour>
      <point x="11" y="0" type="line" smooth="yes"/>
      <point x="111" y="0" type="line" smooth="yes"/>
      <point x="130" y="153" type="line" smooth="yes"/>
      <point x="236" y="256" type="line" smooth="yes"/>
      <point x="339" y="0" type="line" smooth="yes"/>
      <point x="449" y="0" type="line" smooth="yes"/>
      <point x="312" y="330" type="line" smooth="yes"/>
      <point x="518" y="530" type="line" smooth="yes"/>
      <point x="393" y="530" type="line" smooth="yes"/>
      <point x="149" y="290" type="line" smooth="yes"/>
      <point x="216" y="800" type="line" smooth="yes"/>
      <point x="116" y="800" type="line" smooth="yes"/>
    </contour>
  </outline>
</glyph>
<glyph name="l" format="1">
  <advance width="234"/>
  <unicode hex="006C"/>
  <outline>
    <contour>
      <point x="18" y="0" type="line" smooth="yes"/>
      <point x="118" y="0" type="line" smooth="yes"/>
      <point x="223" y="800" type="line" smooth="yes"/>
      <point x="123" y="800" type="line" smooth="yes"/>
    </contour>
  </outline>
</glyph>
<glyph name="n" format="1">
  <advance width="543"/>
  <unicode hex="006E"/>
  <outline>
    <contour>
      <point x="440" y="0" type="line" smooth="yes"/>
      <point x="488" y="365" type="line" smooth="yes"/>
      <point x="461" y="489" type="line" smooth="yes"/>
      <point x="340" y="542" type="line" smooth="yes"/>
      <point x="235" y="519" type="line" smooth="yes"/>
      <point x="161" y="459" type="line" smooth="yes"/>
      <point x="161" y="530" type="line" smooth="yes"/>
      <point x="75" y="530" type="line" smooth="yes"/>
      <point x="63" y="380" type="line" smooth="yes"/>
      <point x="13" y="0" type="line" smooth="yes"/>
      <point x="113" y="0" type="line" smooth="yes"/>
      <point x="163" y="381" type="line" smooth="yes"/>
      <point x="213" y="428" type="line" smooth="yes"/>
      <point x="298" y="454" type="line" smooth="yes"/>
      <point x="371" y="425" type="line" smooth="yes"/>
      <point x="386" y="350" type="line" smooth="yes"/>
      <point x="340" y="0" type="line" smooth="yes"/>
    </contour>
  </outline>
</glyph>
<glyph name="q" format="1">
  <advance width="553"/>
  <unicode hex="0071"/>
  <outline>
    <contour>
      <point x="361" y="147" type="line" smooth="yes"/>
      <point x="311" y="100" type="line" smooth="yes"/>
      <point x="225" y="76" type="line" smooth="yes"/>
      <point x="140" y="126" type="line" smooth="yes"/>
      <point x="129" y="256" type="line" smooth="yes"/>
      <point x="132" y="278" type="line" smooth="yes"/>
      <point x="180" y="407" type="line" smooth="yes"/>
      <point x="274" y="454" type="line" smooth="yes"/>
      <point x="353" y="428" type="line" smooth="yes"/>
      <point x="391" y="380" type="line" smooth="yes"/>
    </contour>
    <contour>
      <point x="315" y="-200" type="line" smooth="yes"/>
      <point x="415" y="-200" type="line" smooth="yes"/>
      <point x="492" y="385" type="line" smooth="yes"/>
      <point x="518" y="530" type="line" smooth="yes"/>
      <point x="431" y="530" type="line" smooth="yes"/>
      <point x="412" y="461" type="line" smooth="yes"/>
      <point x="359" y="519" type="line" smooth="yes"/>
      <point x="270" y="542" type="line" smooth="yes"/>
      <point x="106" y="473" type="line" smooth="yes"/>
      <point x="31" y="278" type="line" smooth="yes"/>
      <point x="28" y="256" type="line" smooth="yes"/>
      <point x="51" y="66" type="line" smooth="yes"/>
      <point x="205" y="-12" type="line" smooth="yes"/>
      <point x="293" y="9" type="line" smooth="yes"/>
      <point x="348" y="50" type="line" smooth="yes"/>
    </contour>
  </outline>
</glyph>
<glyph name="s" format="1">
  <advance width="521"/>
  <unicode hex="0073"/>
  <outline>
    <contour>
      <point x="226" y="68" type="line" smooth="yes"/>
      <point x="138" y="95" type="line" smooth="yes"/>
      <point x="121" y="164" type="line" smooth="yes"/>
      <point x="23" y="164" type="line" smooth="yes"/>
      <point x="22" y="157" type="line" smooth="yes"/>
      <point x="56" y="37" type="line" smooth="yes"/>
      <point x="222" y="-12" type="line" smooth="yes"/>
      <point x="377" y="30" type="line" smooth="yes"/>
      <point x="443" y="138" type="line" smooth="yes"/>
      <point x="444" y="146" type="line" smooth="yes"/>
      <point x="405" y="260" type="line" smooth="yes"/>
      <point x="267" y="309" type="line" smooth="yes"/>
      <point x="180" y="332" type="line" smooth="yes"/>
      <point x="156" y="378" type="line" smooth="yes"/>
      <point x="195" y="444" type="line" smooth="yes"/>
      <point x="272" y="462" type="line" smooth="yes"/>
      <point x="355" y="434" type="line" smooth="yes"/>
      <point x="370" y="358" type="line" smooth="yes"/>
      <point x="466" y="358" type="line" smooth="yes"/>
      <point x="467" y="365" type="line" smooth="yes"/>
      <point x="434" y="494" type="line" smooth="yes"/>
      <point x="272" y="542" type="line" smooth="yes"/>
      <point x="126" y="503" type="line" smooth="yes"/>
      <point x="58" y="395" type="line" smooth="yes"/>
      <point x="57" y="387" type="line" smooth="yes"/>
      <point x="91" y="282" type="line" smooth="yes"/>
      <point x="233" y="231" type="line" smooth="yes"/>
      <point x="318" y="208" type="line" smooth="yes"/>
      <point x="343" y="155" type="line" smooth="yes"/>
      <point x="309" y="88" type="line" smooth="yes"/>
    </contour>
  </outline>
</glyph>
<glyph name="u" format="1">
  <advance width="545"/>
  <unicode hex="0075"/>
  <outline>
    <contour>
      <point x="76" y="530" type="line" smooth="yes"/>
      <point x="28" y="165" type="line" smooth="yes"/>
      <point x="55" y="41" type="line" smooth="yes"/>
      <point x="176" y="-12" type="line" smooth="yes"/>
      <point x="281" y="11" type="line" smooth="yes"/>
      <point x="355" y="71" type="line" smooth="yes"/>
      <point x="355" y="0" type="line" smooth="yes"/>
      <point x="441" y="0" type="line" smooth="yes"/>
      <point x="453" y="150" type="line" smooth="yes"/>
      <point x="503" y="530" type="line" smooth="yes"/>
      <point x="403" y="530" type="line" smooth="yes"/>
      <point x="353" y="149" type="line" smooth="yes"/>
      <point x="303" y="102" type="line" smooth="yes"/>
      <point x="218" y="76" type="line" smooth="yes"/>
      <point x="145" y="105" type="line" smooth="yes"/>
      <point x="130" y="180" type="line" smooth="yes"/>
      <point x="176" y="530" type="line" smooth="yes"/>
    </contour>
  </outline>
</glyph>
<glyph name="braceright" format="1">
  <advance width="334"/>
  <unicode hex="007D"/>
  <outline>
    <contour>
      <point x="-26" y="-120" type="line" smooth="yes"/>
      <point x="-4" y="-120" type="line" smooth="yes"/>
      <point x="119" y="-87" type="line" smooth="yes"/>
      <point x="184" y="33" type="line" smooth="yes"/>
      <point x="210" y="231" type="line" smooth="yes"/>
      <point x="239" y="298" type="line" smooth="yes"/>
      <point x="302" y="314" type="line" smooth="yes"/>
      <point x="314" y="406" type="line" smooth="yes"/>
      <point x="256" y="426" type="line" smooth="yes"/>
      <point x="245" y="502" type="line" smooth="yes"/>
      <point x="270" y="687" type="line" smooth="yes"/>
      <point x="236" y="807" type="line" smooth="yes"/>
      <point x="122" y="840" type="line" smooth="yes"/>
      <point x="100" y="840" type="line" smooth="yes"/>
      <point x="88" y="749" type="line" smooth="yes"/>
      <point x="152" y="731" type="line" smooth="yes"/>
      <point x="165" y="663" type="line" smooth="yes"/>
      <point x="139" y="467" type="line" smooth="yes"/>
      <point x="145" y="397" type="line" smooth="yes"/>
      <point x="181" y="360" type="line" smooth="yes"/>
      <point x="135" y="324" type="line" smooth="yes"/>
      <point x="112" y="254" type="line" smooth="yes"/>
      <point x="87" y="62" type="line" smooth="yes"/>
      <point x="54" y="-12" type="line" smooth="yes"/>
      <point x="-14" y="-29" type="line" smooth="yes"/>
    </contour>
  </outline>
</glyph>
<glyph name="asciitilde" format="1">
  <advance width="600"/>
  <unicode hex="007E"/>
  <outline>
    <contour>
      <point x="182" y="462" type="line" smooth="yes"/>
      <point x="83" y="427" type="line" smooth="yes"/>
      <point x="32" y="382" type="line" smooth="yes"/>
      <point x="80" y="327" type="line" smooth="yes"/>
      <point x="124" y="363" type="line" smooth="yes"/>
      <point x="182" y="381" type="line" smooth="yes"/>
      <point x="290" y="347" type="line" smooth="yes"/>
      <point x="421" y="312" type="line" smooth="yes"/>
      <point x="520" y="347" type="line" smooth="yes"/>
      <point x="571" y="392" type="line" smooth="yes"/>
      <point x="523" y="447" type="line" smooth="yes"/>
      <point x="479" y="411" type="line" smooth="yes"/>
      <point x="421" y="393" type="line" smooth="yes"/>
      <point x="314" y="428" type="line" smooth="yes"/>
    </contour>
  </outline>
</glyph>
<glyph name="cent" format="1">
  <advance width="596"/>
  <unicode hex="00A2"/>
  <outline>
    <contour>
      <point x="162" y="413" type="line" smooth="yes"/>
      <point x="234" y="594" type="line" smooth="yes"/>
      <point x="348" y="640" type="line" smooth="yes"/>
      <point x="180" y="185" type="line" smooth="yes"/>
      <point x="154" y="258" type="line" smooth="yes"/>
      <point x="156" y="367" type="line" smooth="yes"/>
    </contour>
    <contour>
      <point x="172" y="-60" type="line" smooth="yes"/>
      <point x="215" y="57" type="line" smooth="yes"/>
      <point x="244" y="53" type="line" smooth="yes"/>
      <point x="276" y="52" type="line" smooth="yes"/>
      <point x="460" y="115" type="line" smooth="yes"/>
      <point x="533" y="277" type="line" smooth="yes"/>
      <point x="534" y="287" type="line" smooth="yes"/>
      <point x="430" y="287" type="line" smooth="yes"/>
      <point x="377" y="172" type="line" smooth="yes"/>
      <point x="282" y="141" type="line" smooth="yes"/>
      <point x="274" y="141" type="line" smooth="yes"/>
      <point x="260" y="142" type="line" smooth="yes"/>
      <point x="247" y="143" type="line" smooth="yes"/>
      <point x="425" y="623" type="line" smooth="yes"/>
      <point x="455" y="571" type="line" smooth="yes"/>
      <point x="454" y="473" type="line" smooth="yes"/>
      <point x="559" y="473" type="line" smooth="yes"/>
      <point x="563" y="500" type="line" smooth="yes"/>
      <point x="545" y="637" type="line" smooth="yes"/>
      <point x="457" y="711" type="line" smooth="yes"/>
      <point x="505" y="840" type="line" smooth="yes"/>
      <point x="422" y="840" type="line" smooth="yes"/>
      <point x="380" y="728" type="line" smooth="yes"/>
      <point x="366" y="729" type="line" smooth="yes"/>
      <point x="352" y="729" type="line" smooth="yes"/>
      <point x="169" y="665" type="line" smooth="yes"/>
      <point x="59" y="413" type="line" smooth="yes"/>
      <point x="53" y="367" type="line" smooth="yes"/>
      <point x="59" y="200" type="line" smooth="yes"/>
      <point x="142" y="84" type="line" smooth="yes"/>
      <point x="89" y="-60" type="line" smooth="yes"/>
    </contour>
  </outline>
</glyph>
<glyph name="sterling" format="1">
  <advance width="594"/>
  <unicode hex="00A3"/>
  <outline>
    <contour>
      <point x="360" y="701" type="line" smooth="yes"/>
      <point x="455" y="647" type="line" smooth="yes"/>
      <point x="465" y="500" type="line" smooth="yes"/>
      <point x="567" y="500" type="line" smooth="yes"/>
      <point x="570" y="520" type="line" smooth="yes"/>
      <point x="541" y="715" type="line" smooth="yes"/>
      <point x="360" y="792" type="line" smooth="yes"/>
      <point x="178" y="710" type="line" smooth="yes"/>
      <point x="129" y="520" type="line" smooth="yes"/>
      <point x="130" y="463" type="line" smooth="yes"/>
      <point x="134" y="423" type="line" smooth="yes"/>
      <point x="57" y="423" type="line" smooth="yes"/>
      <point x="45" y="332" type="line" smooth="yes"/>
      <point x="149" y="332" type="line" smooth="yes"/>
      <point x="167" y="223" type="line" smooth="yes"/>
      <point x="175" y="92" type="line" smooth="yes"/>
      <point x="14" y="92" type="line" smooth="yes"/>
      <point x="2" y="0" type="line" smooth="yes"/>
      <point x="500" y="0" type="line" smooth="yes"/>
      <point x="512" y="92" type="line" smooth="yes"/>
      <point x="267" y="92" type="line" smooth="yes"/>
      <point x="264" y="223" type="line" smooth="yes"/>
      <point x="252" y="332" type="line" smooth="yes"/>
      <point x="420" y="332" type="line" smooth="yes"/>
      <point x="432" y="423" type="line" smooth="yes"/>
      <point x="240" y="423" type="line" smooth="yes"/>
      <point x="236" y="471" type="line" smooth="yes"/>
      <point x="234" y="520" type="line" smooth="yes"/>
      <point x="261" y="654" type="line" smooth="yes"/>
    </contour>
  </outline>
</glyph>
<glyph name="yen" format="1">
  <advance width="600"/>
  <unicode hex="00A5"/>
  <outline>
    <contour>
      <point x="45" y="390" type="line" smooth="yes"/>
      <point x="191" y="390" type="line" smooth="yes"/>
      <point x="227" y="279" type="line" smooth="yes"/>
      <point x="30" y="279" type="line" smooth="yes"/>
      <point x="18" y="189" type="line" smooth="yes"/>
      <point x="223" y="189" type="line" smooth="yes"/>
      <point x="199" y="0" type="line" smooth="yes"/>
      <point x="303" y="0" type="line" smooth="yes"/>
      <point x="327" y="189" type="line" smooth="yes"/>
      <point x="532" y="189" type="line" smooth="yes"/>
      <point x="544" y="279" type="line" smooth="yes"/>
      <point x="346" y="279" type="line" smooth="yes"/>
      <point x="411" y="390" type="line" smooth="yes"/>
      <point x="559" y="390" type="line" smooth="yes"/>
      <point x="571" y="480" type="line" smooth="yes"/>
      <point x="464" y="480" type="line" smooth="yes"/>
      <point x="640" y="780" type="line" smooth="yes"/>
      <point x="523" y="780" type="line" smooth="yes"/>
      <point x="298" y="378" type="line" smooth="yes"/>
      <point x="179" y="780" type="line" smooth="yes"/>
      <point x="66" y="780" type="line" smooth="yes"/>
      <point x="162" y="480" type="line" smooth="yes"/>
      <point x="57" y="480" type="line" smooth="yes"/>
    </contour>
  </outline>
</glyph>
<glyph name="section" format="1">
  <advance width="523"/>
  <unicode hex="00A7"/>
  <outline>
    <contour>
      <point x="220" y="229" type="line" smooth="yes"/>
      <point x="305" y="208" type="line" smooth="yes"/>
      <point x="327" y="160" type="line" smooth="yes"/>
      <point x="296" y="93" type="line" smooth="yes"/>
      <point x="210" y="69" type="line" smooth="yes"/>
      <point x="129" y="96" type="line" smooth="yes"/>
      <point x="116" y="172" type="line" smooth="yes"/>
      <point x="16" y="172" type="line" smooth="yes"/>
      <point x="15" y="165" type="line" smooth="yes"/>
      <point x="49" y="36" type="line" smooth="yes"/>
      <point x="210" y="-12" type="line" smooth="yes"/>
      <point x="361" y="29" type="line" smooth="yes"/>
      <point x="427" y="145" type="line" smooth="yes"/>
      <point x="428" y="153" type="line" smooth="yes"/>
      <point x="420" y="220" type="line" smooth="yes"/>
      <point x="376" y="263" type="line" smooth="yes"/>
      <point x="456" y="310" type="line" smooth="yes"/>
      <point x="489" y="389" type="line" smooth="yes"/>
      <point x="490" y="397" type="line" smooth="yes"/>
      <point x="454" y="508" type="line" smooth="yes"/>
      <point x="309" y="551" type="line" smooth="yes"/>
      <point x="224" y="572" type="line" smooth="yes"/>
      <point x="202" y="620" type="line" smooth="yes"/>
      <point x="233" y="687" type="line" smooth="yes"/>
      <point x="319" y="711" type="line" smooth="yes"/>
      <point x="400" y="684" type="line" smooth="yes"/>
      <point x="413" y="608" type="line" smooth="yes"/>
      <point x="513" y="608" type="line" smooth="yes"/>
      <point x="514" y="615" type="line" smooth="yes"/>
      <point x="480" y="744" type="line" smooth="yes"/>
      <point x="319" y="792" type="line" smooth="yes"/>
      <point x="168" y="751" type="line" smooth="yes"/>
      <point x="102" y="635" type="line" smooth="yes"/>
      <point x="101" y="627" type="line" smooth="yes"/>
      <point x="109" y="560" type="line" smooth="yes"/>
      <point x="153" y="517" type="line" smooth="yes"/>
      <point x="73" y="471" type="line" smooth="yes"/>
      <point x="40" y="391" type="line" smooth="yes"/>
      <point x="39" y="383" type="line" smooth="yes"/>
      <point x="76" y="272" type="line" smooth="yes"/>
    </contour>
    <contour>
      <point x="252" y="303" type="line" smooth="yes"/>
      <point x="170" y="322" type="line" smooth="yes"/>
      <point x="140" y="380" type="line" smooth="yes"/>
      <point x="172" y="449" type="line" smooth="yes"/>
      <point x="266" y="477" type="line" smooth="yes"/>
      <point x="277" y="477" type="line" smooth="yes"/>
      <point x="359" y="458" type="line" smooth="yes"/>
      <point x="389" y="400" type="line" smooth="yes"/>
      <point x="357" y="331" type="line" smooth="yes"/>
      <point x="263" y="303" type="line" smooth="yes"/>
    </contour>
  </outline>
</glyph>
<glyph name="copyright" format="1">
  <advance width="920"/>
  <unicode hex="00A9"/>
  <outline>
    <contour>
      <point x="462" y="226" type="line" smooth="yes"/>
      <point x="370" y="272" type="line" smooth="yes"/>
      <point x="343" y="377" type="line" smooth="yes"/>
      <point x="343" y="403" type="line" smooth="yes"/>
      <point x="370" y="508" type="line" smooth="yes"/>
      <point x="462" y="554" type="line" smooth="yes"/>
      <point x="544" y="524" type="line" smooth="yes"/>
      <point x="567" y="454" type="line" smooth="yes"/>
      <point x="656" y="454" type="line" smooth="yes"/>
      <point x="656" y="472" type="line" smooth="yes"/>
      <point x="611" y="583" type="line" smooth="yes"/>
      <point x="460" y="637" type="line" smooth="yes"/>
      <point x="298" y="565" type="line" smooth="yes"/>
      <point x="249" y="403" type="line" smooth="yes"/>
      <point x="249" y="377" type="line" smooth="yes"/>
      <point x="298" y="215" type="line" smooth="yes"/>
      <point x="460" y="143" type="line" smooth="yes"/>
      <point x="611" y="195" type="line" smooth="yes"/>
      <point x="656" y="301" type="line" smooth="yes"/>
      <point x="656" y="317" type="line" smooth="yes"/>
      <point x="567" y="317" type="line" smooth="yes"/>
      <point x="545" y="256" type="line" smooth="yes"/>
    </contour>
    <contour>
      <point x="106" y="390" type="line" smooth="yes"/>
      <point x="210" y="641" type="line" smooth="yes"/>
      <point x="460" y="744" type="line" smooth="yes"/>
      <point x="711" y="641" type="line" smooth="yes"/>
      <point x="814" y="390" type="line" smooth="yes"/>
      <point x="711" y="140" type="line" smooth="yes"/>
      <point x="460" y="36" type="line" smooth="yes"/>
      <point x="210" y="140" type="line" smooth="yes"/>
    </contour>
    <contour>
      <point x="58" y="390" type="line" smooth="yes"/>
      <point x="176" y="106" type="line" smooth="yes"/>
      <point x="460" y="-12" type="line" smooth="yes"/>
      <point x="744" y="106" type="line" smooth="yes"/>
      <point x="862" y="390" type="line" smooth="yes"/>
      <point x="744" y="674" type="line" smooth="yes"/>
      <point x="460" y="792" type="line" smooth="yes"/>
      <point x="176" y="674" type="line" smooth="yes"/>
    </contour>
  </outline>
</glyph>
<glyph name="ordfeminine" format="1">
  <advance width="400"/>
  <unicode hex="00AA"/>
  <outline>
    <contour>
      <point x="193" y="451" type="line" smooth="yes"/>
      <point x="149" y="467" type="line" smooth="yes"/>
      <point x="140" y="503" type="line" smooth="yes"/>
      <point x="141" y="511" type="line" smooth="yes"/>
      <point x="163" y="551" type="line" smooth="yes"/>
      <point x="214" y="571" type="line" smooth="yes"/>
      <point x="303" y="585" type="line" smooth="yes"/>
      <point x="291" y="495" type="line" smooth="yes"/>
      <point x="256" y="466" type="line" smooth="yes"/>
    </contour>
    <contour>
      <point x="345" y="202" type="line" smooth="yes"/>
      <point x="355" y="279" type="line" smooth="yes"/>
      <point x="32" y="279" type="line" smooth="yes"/>
      <point x="22" y="202" type="line" smooth="yes"/>
    </contour>
    <contour>
      <point x="293" y="388" type="line" smooth="yes"/>
      <point x="371" y="388" type="line" smooth="yes"/>
      <point x="380" y="499" type="line" smooth="yes"/>
      <point x="399" y="643" type="line" smooth="yes"/>
      <point x="379" y="752" type="line" smooth="yes"/>
      <point x="252" y="792" type="line" smooth="yes"/>
      <point x="131" y="751" type="line" smooth="yes"/>
      <point x="87" y="659" type="line" smooth="yes"/>
      <point x="86" y="652" type="line" smooth="yes"/>
      <point x="170" y="652" type="line" smooth="yes"/>
      <point x="191" y="702" type="line" smooth="yes"/>
      <point x="252" y="723" type="line" smooth="yes"/>
      <point x="304" y="703" type="line" smooth="yes"/>
      <point x="311" y="646" type="line" smooth="yes"/>
      <point x="310" y="639" type="line" smooth="yes"/>
      <point x="203" y="622" type="line" smooth="yes"/>
      <point x="103" y="589" type="line" smooth="yes"/>
      <point x="51" y="500" type="line" smooth="yes"/>
      <point x="50" y="492" type="line" smooth="yes"/>
      <point x="70" y="411" type="line" smooth="yes"/>
      <point x="163" y="378" type="line" smooth="yes"/>
      <point x="240" y="396" type="line" smooth="yes"/>
      <point x="293" y="437" type="line" smooth="yes"/>
    </contour>
  </outline>
</glyph>
<glyph name="macron" format="1">
  <advance width="500"/>
  <unicode hex="00AF"/>
  <outline>
    <contour>
      <point x="158" y="652" type="line" smooth="yes"/>
      <point x="415" y="652" type="line" smooth="yes"/>
      <point x="427" y="742" type="line" smooth="yes"/>
      <point x="170" y="742" type="line" smooth="yes"/>
    </contour>
  </outline>
</glyph>
<glyph name="degree" format="1">
  <advance width="398"/>
  <unicode hex="00B0"/>
  <outline>
    <contour>
      <point x="244" y="792" type="line" smooth="yes"/>
      <point x="132" y="753" type="line" smooth="yes"/>
      <point x="78" y="639" type="line" smooth="yes"/>
      <point x="77" y="631" type="line" smooth="yes"/>
      <point x="110" y="519" type="line" smooth="yes"/>
      <point x="224" y="478" type="line" smooth="yes"/>
      <point x="336" y="517" type="line" smooth="yes"/>
      <point x="390" y="631" type="line" smooth="yes"/>
      <point x="391" y="639" type="line" smooth="yes"/>
      <point x="358" y="752" type="line" smooth="yes"/>
    </contour>
    <contour>
      <point x="221" y="548" type="line" smooth="yes"/>
      <point x="162" y="572" type="line" smooth="yes"/>
      <point x="146" y="631" type="line" smooth="yes"/>
      <point x="147" y="639" type="line" smooth="yes"/>
      <point x="178" y="701" type="line" smooth="yes"/>
      <point x="241" y="722" type="line" smooth="yes"/>
      <point x="247" y="722" type="line" smooth="yes"/>
      <point x="306" y="698" type="line" smooth="yes"/>
      <point x="322" y="639" type="line" smooth="yes"/>
      <point x="321" y="631" type="line" smooth="yes"/>
      <point x="290" y="569" type="line" smooth="yes"/>
      <point x="227" y="548" type="line" smooth="yes"/>
    </contour>
  </outline>
</glyph>
<glyph name="twosuperior" format="1">
  <advance width="300"/>
  <unicode hex="00B2"/>
  <outline>
    <contour>
      <point x="181" y="460" type="line" smooth="yes"/>
      <point x="145" y="459" type="line" smooth="yes"/>
      <point x="259" y="569" type="line" smooth="yes"/>
      <point x="299" y="615" type="line" smooth="yes"/>
      <point x="315" y="665" type="line" smooth="yes"/>
      <point x="316" y="673" type="line" smooth="yes"/>
      <point x="294" y="751" type="line" smooth="yes"/>
      <point x="194" y="786" type="line" smooth="yes"/>
      <point x="99" y="753" type="line" smooth="yes"/>
      <point x="58" y="658" type="line" smooth="yes"/>
      <point x="57" y="650" type="line" smooth="yes"/>
      <point x="137" y="650" type="line" smooth="yes"/>
      <point x="154" y="702" type="line" smooth="yes"/>
      <point x="191" y="716" type="line" smooth="yes"/>
      <point x="197" y="716" type="line" smooth="yes"/>
      <point x="227" y="704" type="line" smooth="yes"/>
      <point x="235" y="667" type="line" smooth="yes"/>
      <point x="234" y="659" type="line" smooth="yes"/>
      <point x="225" y="634" type="line" smooth="yes"/>
      <point x="201" y="606" type="line" smooth="yes"/>
      <point x="30" y="440" type="line" smooth="yes"/>
      <point x="23" y="390" type="line" smooth="yes"/>
      <point x="279" y="390" type="line" smooth="yes"/>
      <point x="288" y="460" type="line" smooth="yes"/>
    </contour>
  </outline>
</glyph>
<glyph name="threesuperior" format="1">
  <advance width="300"/>
  <unicode hex="00B3"/>
  <outline>
    <contour>
      <point x="117" y="515" type="line" smooth="yes"/>
      <point x="37" y="515" type="line" smooth="yes"/>
      <point x="36" y="507" type="line" smooth="yes"/>
      <point x="60" y="418" type="line" smooth="yes"/>
      <point x="161" y="383" type="line" smooth="yes"/>
      <point x="260" y="418" type="line" smooth="yes"/>
      <point x="295" y="491" type="line" smooth="yes"/>
      <point x="296" y="499" type="line" smooth="yes"/>
      <point x="289" y="557" type="line" smooth="yes"/>
      <point x="255" y="588" type="line" smooth="yes"/>
      <point x="295" y="615" type="line" smooth="yes"/>
      <point x="316" y="669" type="line" smooth="yes"/>
      <point x="317" y="677" type="line" smooth="yes"/>
      <point x="294" y="751" type="line" smooth="yes"/>
      <point x="194" y="786" type="line" smooth="yes"/>
      <point x="99" y="753" type="line" smooth="yes"/>
      <point x="58" y="658" type="line" smooth="yes"/>
      <point x="57" y="650" type="line" smooth="yes"/>
      <point x="137" y="650" type="line" smooth="yes"/>
      <point x="154" y="702" type="line" smooth="yes"/>
      <point x="191" y="716" type="line" smooth="yes"/>
      <point x="197" y="716" type="line" smooth="yes"/>
      <point x="227" y="705" type="line" smooth="yes"/>
      <point x="236" y="674" type="line" smooth="yes"/>
      <point x="235" y="666" type="line" smooth="yes"/>
      <point x="218" y="633" type="line" smooth="yes"/>
      <point x="183" y="624" type="line" smooth="yes"/>
      <point x="131" y="624" type="line" smooth="yes"/>
      <point x="122" y="554" type="line" smooth="yes"/>
      <point x="175" y="554" type="line" smooth="yes"/>
      <point x="209" y="542" type="line" smooth="yes"/>
      <point x="216" y="507" type="line" smooth="yes"/>
      <point x="215" y="499" type="line" smooth="yes"/>
      <point x="197" y="463" type="line" smooth="yes"/>
      <point x="164" y="453" type="line" smooth="yes"/>
      <point x="158" y="453" type="line" smooth="yes"/>
      <point x="125" y="465" type="line" smooth="yes"/>
    </contour>
  </outline>
</glyph>
<glyph name="paragraph" format="1">
  <advance width="526"/>
  <unicode hex="00B6"/>
  <outline>
    <contour>
      <point x="160" y="550" type="line" smooth="yes"/>
      <point x="209" y="654" type="line" smooth="yes"/>
      <point x="291" y="687" type="line" smooth="yes"/>
      <point x="253" y="397" type="line" smooth="yes"/>
      <point x="181" y="433" type="line" smooth="yes"/>
      <point x="159" y="542" type="line" smooth="yes"/>
    </contour>
    <contour>
      <point x="311" y="0" type="line" smooth="yes"/>
      <point x="415" y="0" type="line" smooth="yes"/>
      <point x="517" y="780" type="line" smooth="yes"/>
      <point x="315" y="780" type="line" smooth="yes"/>
      <point x="154" y="734" type="line" smooth="yes"/>
      <point x="55" y="556" type="line" smooth="yes"/>
      <point x="52" y="534" type="line" smooth="yes"/>
      <point x="108" y="354" type="line" smooth="yes"/>
      <point x="241" y="306" type="line" smooth="yes"/>
      <point x="201" y="0" type="line" smooth="yes"/>
      <point x="265" y="0" type="line" smooth="yes"/>
      <point x="355" y="688" type="line" smooth="yes"/>
      <point x="401" y="688" type="line" smooth="yes"/>
    </contour>
  </outline>
</glyph>
<glyph name="cedilla" format="1">
  <advance width="602"/>
  <unicode hex="00B8"/>
  <outline>
    <contour>
      <point x="180" y="-213" type="line" smooth="yes"/>
      <point x="263" y="-191" type="line" smooth="yes"/>
      <point x="296" y="-125" type="line" smooth="yes"/>
      <point x="268" y="-68" type="line" smooth="yes"/>
      <point x="204" y="-50" type="line" smooth="yes"/>
      <point x="230" y="0" type="line" smooth="yes"/>
      <point x="172" y="0" type="line" smooth="yes"/>
      <point x="132" y="-77" type="line" smooth="yes"/>
      <point x="146" y="-102" type="line" smooth="yes"/>
      <point x="156" y="-101" type="line" smooth="yes"/>
      <point x="178" y="-99" type="line" smooth="yes"/>
      <point x="218" y="-105" type="line" smooth="yes"/>
      <point x="232" y="-125" type="line" smooth="yes"/>
      <point x="218" y="-148" type="line" smooth="yes"/>
      <point x="180" y="-155" type="line" smooth="yes"/>
      <point x="137" y="-150" type="line" smooth="yes"/>
      <point x="106" y="-136" type="line" smooth="yes"/>
      <point x="81" y="-188" type="line" smooth="yes"/>
      <point x="120" y="-205" type="line" smooth="yes"/>
    </contour>
  </outline>
</glyph>
<glyph name="ordmasculine" format="1">
  <advance width="424"/>
  <unicode hex="00BA"/>
  <outline>
    <contour>
      <point x="327" y="573" type="line" smooth="yes"/>
      <point x="294" y="486" type="line" smooth="yes"/>
      <point x="225" y="455" type="line" smooth="yes"/>
      <point x="161" y="488" type="line" smooth="yes"/>
      <point x="152" y="575" type="line" smooth="yes"/>
      <point x="155" y="597" type="line" smooth="yes"/>
      <point x="188" y="685" type="line" smooth="yes"/>
      <point x="257" y="715" type="line" smooth="yes"/>
      <point x="321" y="682" type="line" smooth="yes"/>
      <point x="330" y="595" type="line" smooth="yes"/>
    </contour>
    <contour>
      <point x="22" y="202" type="line" smooth="yes"/>
      <point x="359" y="202" type="line" smooth="yes"/>
      <point x="369" y="279" type="line" smooth="yes"/>
      <point x="32" y="279" type="line" smooth="yes"/>
    </contour>
    <contour>
      <point x="419" y="595" type="line" smooth="yes"/>
      <point x="395" y="736" type="line" smooth="yes"/>
      <point x="260" y="792" type="line" smooth="yes"/>
      <point x="129" y="740" type="line" smooth="yes"/>
      <point x="66" y="597" type="line" smooth="yes"/>
      <point x="63" y="575" type="line" smooth="yes"/>
      <point x="87" y="434" type="line" smooth="yes"/>
      <point x="222" y="378" type="line" smooth="yes"/>
      <point x="353" y="430" type="line" smooth="yes"/>
      <point x="416" y="573" type="line" smooth="yes"/>
    </contour>
  </outline>
</glyph>
<glyph name="onehalf" format="1">
  <advance width="800"/>
  <unicode hex="00BD"/>
  <outline>
    <contour>
      <point x="631" y="70" type="line" smooth="yes"/>
      <point x="595" y="69" type="line" smooth="yes"/>
      <point x="709" y="179" type="line" smooth="yes"/>
      <point x="749" y="225" type="line" smooth="yes"/>
      <point x="765" y="275" type="line" smooth="yes"/>
      <point x="766" y="283" type="line" smooth="yes"/>
      <point x="744" y="361" type="line" smooth="yes"/>
      <point x="644" y="396" type="line" smooth="yes"/>
      <point x="549" y="363" type="line" smooth="yes"/>
      <point x="508" y="268" type="line" smooth="yes"/>
      <point x="507" y="260" type="line" smooth="yes"/>
      <point x="587" y="260" type="line" smooth="yes"/>
      <point x="604" y="312" type="line" smooth="yes"/>
      <point x="641" y="326" type="line" smooth="yes"/>
      <point x="647" y="326" type="line" smooth="yes"/>
      <point x="677" y="314" type="line" smooth="yes"/>
      <point x="685" y="277" type="line" smooth="yes"/>
      <point x="684" y="269" type="line" smooth="yes"/>
      <point x="675" y="244" type="line" smooth="yes"/>
      <point x="651" y="216" type="line" smooth="yes"/>
      <point x="480" y="50" type="line" smooth="yes"/>
      <point x="473" y="0" type="line" smooth="yes"/>
      <point x="729" y="0" type="line" smooth="yes"/>
      <point x="738" y="70" type="line" smooth="yes"/>
    </contour>
    <contour>
      <point x="114" y="0" type="line" smooth="yes"/>
      <point x="792" y="780" type="line" smooth="yes"/>
      <point x="690" y="780" type="line" smooth="yes"/>
      <point x="12" y="0" type="line" smooth="yes"/>
    </contour>
    <contour>
      <point x="283" y="390" type="line" smooth="yes"/>
      <point x="292" y="460" type="line" smooth="yes"/>
      <point x="206" y="460" type="line" smooth="yes"/>
      <point x="248" y="780" type="line" smooth="yes"/>
      <point x="189" y="780" type="line" smooth="yes"/>
      <point x="56" y="698" type="line" smooth="yes"/>
      <point x="88" y="640" type="line" smooth="yes"/>
      <point x="155" y="681" type="line" smooth="yes"/>
      <point x="126" y="460" type="line" smooth="yes"/>
      <point x="41" y="460" type="line" smooth="yes"/>
      <point x="32" y="390" type="line" smooth="yes"/>
    </contour>
  </outline>
</glyph>
<glyph name="threequarters" format="1">
  <advance width="800"/>
  <unicode hex="00BE"/>
  <outline>
    <contour>
      <point x="650" y="262" type="line" smooth="yes"/>
      <point x="646" y="233" type="line" smooth="yes"/>
      <point x="636" y="155" type="line" smooth="yes"/>
      <point x="594" y="155" type="line" smooth="yes"/>
      <point x="568" y="154" type="line" smooth="yes"/>
    </contour>
    <contour>
      <point x="695" y="0" type="line" smooth="yes"/>
      <point x="707" y="85" type="line" smooth="yes"/>
      <point x="749" y="85" type="line" smooth="yes"/>
      <point x="758" y="155" type="line" smooth="yes"/>
      <point x="716" y="155" type="line" smooth="yes"/>
      <point x="747" y="390" type="line" smooth="yes"/>
      <point x="671" y="390" type="line" smooth="yes"/>
      <point x="483" y="143" type="line" smooth="yes"/>
      <point x="475" y="85" type="line" smooth="yes"/>
      <point x="627" y="85" type="line" smooth="yes"/>
      <point x="615" y="0" type="line" smooth="yes"/>
    </contour>
    <contour>
      <point x="114" y="0" type="line" smooth="yes"/>
      <point x="792" y="780" type="line" smooth="yes"/>
      <point x="690" y="780" type="line" smooth="yes"/>
      <point x="12" y="0" type="line" smooth="yes"/>
    </contour>
    <contour>
      <point x="117" y="515" type="line" smooth="yes"/>
      <point x="37" y="515" type="line" smooth="yes"/>
      <point x="36" y="507" type="line" smooth="yes"/>
      <point x="60" y="418" type="line" smooth="yes"/>
      <point x="161" y="383" type="line" smooth="yes"/>
      <point x="260" y="418" type="line" smooth="yes"/>
      <point x="295" y="491" type="line" smooth="yes"/>
      <point x="296" y="499" type="line" smooth="yes"/>
      <point x="289" y="557" type="line" smooth="yes"/>
      <point x="255" y="588" type="line" smooth="yes"/>
      <point x="295" y="615" type="line" smooth="yes"/>
      <point x="316" y="669" type="line" smooth="yes"/>
      <point x="317" y="677" type="line" smooth="yes"/>
      <point x="294" y="751" type="line" smooth="yes"/>
      <point x="194" y="786" type="line" smooth="yes"/>
      <point x="99" y="753" type="line" smooth="yes"/>
      <point x="58" y="658" type="line" smooth="yes"/>
      <point x="57" y="650" type="line" smooth="yes"/>
      <point x="137" y="650" type="line" smooth="yes"/>
      <point x="154" y="702" type="line" smooth="yes"/>
      <point x="191" y="716" type="line" smooth="yes"/>
      <point x="197" y="716" type="line" smooth="yes"/>
      <point x="227" y="705" type="line" smooth="yes"/>
      <point x="236" y="674" type="line" smooth="yes"/>
      <point x="235" y="666" type="line" smooth="yes"/>
      <point x="218" y="633" type="line" smooth="yes"/>
      <point x="183" y="624" type="line" smooth="yes"/>
      <point x="131" y="624" type="line" smooth="yes"/>
      <point x="122" y="554" type="line" smooth="yes"/>
      <point x="175" y="554" type="line" smooth="yes"/>
      <point x="209" y="542" type="line" smooth="yes"/>
      <point x="216" y="507" type="line" smooth="yes"/>
      <point x="215" y="499" type="line" smooth="yes"/>
      <point x="197" y="463" type="line" smooth="yes"/>
      <point x="164" y="453" type="line" smooth="yes"/>
      <point x="158" y="453" type="line" smooth="yes"/>
      <point x="125" y="465" type="line" smooth="yes"/>
    </contour>
  </outline>
</glyph>
<glyph name="questiondown" format="1">
  <advance width="470"/>
  <unicode hex="00BF"/>
  <outline>
    <contour>
      <point x="314" y="530" type="line" smooth="yes"/>
      <point x="200" y="530" type="line" smooth="yes"/>
      <point x="185" y="416" type="line" smooth="yes"/>
      <point x="299" y="416" type="line" smooth="yes"/>
    </contour>
    <contour>
      <point x="165" y="-121" type="line" smooth="yes"/>
      <point x="95" y="-99" type="line" smooth="yes"/>
      <point x="74" y="-39" type="line" smooth="yes"/>
      <point x="164" y="128" type="line" smooth="yes"/>
      <point x="266" y="327" type="line" smooth="yes"/>
      <point x="196" y="327" type="line" smooth="yes"/>
      <point x="71" y="144" type="line" smooth="yes"/>
      <point x="-30" y="-57" type="line" smooth="yes"/>
      <point x="15" y="-168" type="line" smooth="yes"/>
      <point x="165" y="-212" type="line" smooth="yes"/>
      <point x="334" y="-141" type="line" smooth="yes"/>
      <point x="402" y="53" type="line" smooth="yes"/>
      <point x="403" y="60" type="line" smooth="yes"/>
      <point x="300" y="60" type="line" smooth="yes"/>
      <point x="261" y="-74" type="line" smooth="yes"/>
    </contour>
  </outline>
</glyph>
<glyph name="Atilde" format="1">
  <advance width="621"/>
  <unicode hex="00C3"/>
  <outline>
    <contour>
      <point x="352" y="669" type="line" smooth="yes"/>
      <point x="402" y="280" type="line" smooth="yes"/>
      <point x="198" y="280" type="line" smooth="yes"/>
    </contour>
    <contour>
      <point x="292" y="786" type="line" smooth="yes"/>
      <point x="-26" y="0" type="line" smooth="yes"/>
      <point x="89" y="0" type="line" smooth="yes"/>
      <point x="162" y="188" type="line" smooth="yes"/>
      <point x="414" y="188" type="line" smooth="yes"/>
      <point x="439" y="0" type="line" smooth="yes"/>
      <point x="549" y="0" type="line" smooth="yes"/>
      <point x="437" y="786" type="line" smooth="yes"/>
    </contour>
    <contour>
      <point x="486" y="940" type="line" smooth="yes"/>
      <point x="471" y="910" type="line" smooth="yes"/>
      <point x="447" y="901" type="line" smooth="yes"/>
      <point x="387" y="927" type="line" smooth="yes"/>
      <point x="311" y="952" type="line" smooth="yes"/>
      <point x="246" y="928" type="line" smooth="yes"/>
      <point x="210" y="850" type="line" smooth="yes"/>
      <point x="272" y="850" type="line" smooth="yes"/>
      <point x="287" y="880" type="line" smooth="yes"/>
      <point x="311" y="889" type="line" smooth="yes"/>
      <point x="372" y="864" type="line" smooth="yes"/>
      <point x="447" y="838" type="line" smooth="yes"/>
      <point x="513" y="862" type="line" smooth="yes"/>
      <point x="548" y="940" type="line" smooth="yes"/>
    </contour>
  </outline>
</glyph>
<glyph name="Adieresis" format="1">
  <advance width="621"/>
  <unicode hex="00C4"/>
  <outline>
    <contour>
      <point x="352" y="669" type="line" smooth="yes"/>
      <point x="402" y="280" type="line" smooth="yes"/>
      <point x="198" y="280" type="line" smooth="yes"/>
    </contour>
    <contour>
      <point x="292" y="786" type="line" smooth="yes"/>
      <point x="-26" y="0" type="line" smooth="yes"/>
      <point x="89" y="0" type="line" smooth="yes"/>
      <point x="162" y="188" type="line" smooth="yes"/>
      <point x="414" y="188" type="line" smooth="yes"/>
      <point x="439" y="0" type="line" smooth="yes"/>
      <point x="549" y="0" type="line" smooth="yes"/>
      <point x="437" y="786" type="line" smooth="yes"/>
    </contour>
    <contour>
      <point x="516" y="936" type="line" smooth="yes"/>
      <point x="417" y="936" type="line" smooth="yes"/>
      <point x="406" y="854" type="line" smooth="yes"/>
      <point x="505" y="854" type="line" smooth="yes"/>
    </contour>
    <contour>
      <point x="353" y="936" type="line" smooth="yes"/>
      <point x="254" y="936" type="line" smooth="yes"/>
      <point x="243" y="854" type="line" smooth="yes"/>
      <point x="342" y="854" type="line" smooth="yes"/>
    </contour>
  </outline>
</glyph>
<glyph name="Aring" format="1">
  <advance width="621"/>
  <unicode hex="00C5"/>
  <outline>
    <contour>
      <point x="321" y="857" type="line" smooth="yes"/>
      <point x="340" y="902" type="line" smooth="yes"/>
      <point x="383" y="918" type="line" smooth="yes"/>
      <point x="417" y="905" type="line" smooth="yes"/>
      <point x="429" y="870" type="line" smooth="yes"/>
      <point x="410" y="825" type="line" smooth="yes"/>
      <point x="367" y="809" type="line" smooth="yes"/>
      <point x="334" y="822" type="line" smooth="yes"/>
    </contour>
    <contour>
      <point x="352" y="669" type="line" smooth="yes"/>
      <point x="402" y="280" type="line" smooth="yes"/>
      <point x="198" y="280" type="line" smooth="yes"/>
    </contour>
    <contour>
      <point x="292" y="786" type="line" smooth="yes"/>
      <point x="-26" y="0" type="line" smooth="yes"/>
      <point x="89" y="0" type="line" smooth="yes"/>
      <point x="162" y="188" type="line" smooth="yes"/>
      <point x="414" y="188" type="line" smooth="yes"/>
      <point x="439" y="0" type="line" smooth="yes"/>
      <point x="549" y="0" type="line" smooth="yes"/>
      <point x="437" y="786" type="line" smooth="yes"/>
      <point x="431" y="786" type="line" smooth="yes"/>
      <point x="462" y="822" type="line" smooth="yes"/>
      <point x="474" y="870" type="line" smooth="yes"/>
      <point x="448" y="937" type="line" smooth="yes"/>
      <point x="383" y="962" type="line" smooth="yes"/>
      <point x="309" y="932" type="line" smooth="yes"/>
      <point x="276" y="857" type="line" smooth="yes"/>
      <point x="284" y="816" type="line" smooth="yes"/>
      <point x="306" y="786" type="line" smooth="yes"/>
    </contour>
  </outline>
</glyph>
<glyph name="AE" format="1">
  <advance width="854"/>
  <unicode hex="00C6"/>
  <outline>
    <contour>
      <point x="390" y="656" type="line" smooth="yes"/>
      <point x="392" y="286" type="line" smooth="yes"/>
      <point x="215" y="286" type="line" smooth="yes"/>
    </contour>
    <contour>
      <point x="350" y="780" type="line" smooth="yes"/>
      <point x="-34" y="0" type="line" smooth="yes"/>
      <point x="78" y="0" type="line" smooth="yes"/>
      <point x="171" y="194" type="line" smooth="yes"/>
      <point x="393" y="194" type="line" smooth="yes"/>
      <point x="395" y="0" type="line" smooth="yes"/>
      <point x="765" y="0" type="line" smooth="yes"/>
      <point x="777" y="92" type="line" smooth="yes"/>
      <point x="504" y="92" type="line" smooth="yes"/>
      <point x="501" y="352" type="line" smooth="yes"/>
      <point x="761" y="352" type="line" smooth="yes"/>
      <point x="773" y="444" type="line" smooth="yes"/>
      <point x="500" y="444" type="line" smooth="yes"/>
      <point x="497" y="688" type="line" smooth="yes"/>
      <point x="855" y="688" type="line" smooth="yes"/>
      <point x="867" y="780" type="line" smooth="yes"/>
    </contour>
  </outline>
</glyph>
<glyph name="Ccedilla" format="1">
  <advance width="624"/>
  <unicode hex="00C7"/>
  <outline>
    <contour>
      <point x="265" y="-213" type="line" smooth="yes"/>
      <point x="348" y="-191" type="line" smooth="yes"/>
      <point x="381" y="-125" type="line" smooth="yes"/>
      <point x="353" y="-68" type="line" smooth="yes"/>
      <point x="289" y="-50" type="line" smooth="yes"/>
      <point x="309" y="-12" type="line" smooth="yes"/>
      <point x="487" y="60" type="line" smooth="yes"/>
      <point x="566" y="249" type="line" smooth="yes"/>
      <point x="567" y="259" type="line" smooth="yes"/>
      <point x="463" y="259" type="line" smooth="yes"/>
      <point x="413" y="127" type="line" smooth="yes"/>
      <point x="296" y="80" type="line" smooth="yes"/>
      <point x="288" y="80" type="line" smooth="yes"/>
      <point x="166" y="149" type="line" smooth="yes"/>
      <point x="155" y="367" type="line" smooth="yes"/>
      <point x="161" y="413" type="line" smooth="yes"/>
      <point x="229" y="631" type="line" smooth="yes"/>
      <point x="368" y="700" type="line" smooth="yes"/>
      <point x="376" y="700" type="line" smooth="yes"/>
      <point x="483" y="649" type="line" smooth="yes"/>
      <point x="493" y="491" type="line" smooth="yes"/>
      <point x="598" y="491" type="line" smooth="yes"/>
      <point x="602" y="518" type="line" smooth="yes"/>
      <point x="565" y="724" type="line" smooth="yes"/>
      <point x="372" y="792" type="line" smooth="yes"/>
      <point x="158" y="703" type="line" smooth="yes"/>
      <point x="55" y="413" type="line" smooth="yes"/>
      <point x="49" y="367" type="line" smooth="yes"/>
      <point x="74" y="90" type="line" smooth="yes"/>
      <point x="251" y="-10" type="line" smooth="yes"/>
      <point x="217" y="-77" type="line" smooth="yes"/>
      <point x="231" y="-102" type="line" smooth="yes"/>
      <point x="241" y="-101" type="line" smooth="yes"/>
      <point x="263" y="-99" type="line" smooth="yes"/>
      <point x="303" y="-105" type="line" smooth="yes"/>
      <point x="317" y="-125" type="line" smooth="yes"/>
      <point x="303" y="-148" type="line" smooth="yes"/>
      <point x="265" y="-155" type="line" smooth="yes"/>
      <point x="222" y="-150" type="line" smooth="yes"/>
      <point x="191" y="-136" type="line" smooth="yes"/>
      <point x="166" y="-188" type="line" smooth="yes"/>
      <point x="205" y="-205" type="line" smooth="yes"/>
    </contour>
  </outline>
</glyph>
<glyph name="Igrave" format="1">
  <advance width="248"/>
  <unicode hex="00CC"/>
  <outline>
    <contour>
      <point x="229" y="780" type="line" smooth="yes"/>
      <point x="125" y="780" type="line" smooth="yes"/>
      <point x="23" y="0" type="line" smooth="yes"/>
      <point x="127" y="0" type="line" smooth="yes"/>
    </contour>
    <contour>
      <point x="86" y="950" type="line" smooth="yes"/>
      <point x="134" y="840" type="line" smooth="yes"/>
      <point x="236" y="840" type="line" smooth="yes"/>
      <point x="193" y="950" type="line" smooth="yes"/>
    </contour>
  </outline>
</glyph>
<glyph name="Odieresis" format="1">
  <advance width="648"/>
  <unicode hex="00D6"/>
  <outline>
    <contour>
      <point x="286" y="80" type="line" smooth="yes"/>
      <point x="166" y="149" type="line" smooth="yes"/>
      <point x="155" y="367" type="line" smooth="yes"/>
      <point x="161" y="413" type="line" smooth="yes"/>
      <point x="228" y="631" type="line" smooth="yes"/>
      <point x="366" y="700" type="line" smooth="yes"/>
      <point x="374" y="700" type="line" smooth="yes"/>
      <point x="494" y="631" type="line" smooth="yes"/>
      <point x="505" y="413" type="line" smooth="yes"/>
      <point x="499" y="367" type="line" smooth="yes"/>
      <point x="432" y="149" type="line" smooth="yes"/>
      <point x="294" y="80" type="line" smooth="yes"/>
    </contour>
    <contour>
      <point x="370" y="792" type="line" smooth="yes"/>
      <point x="157" y="703" type="line" smooth="yes"/>
      <point x="55" y="413" type="line" smooth="yes"/>
      <point x="49" y="367" type="line" smooth="yes"/>
      <point x="81" y="77" type="line" smooth="yes"/>
      <point x="290" y="-12" type="line" smooth="yes"/>
      <point x="503" y="77" type="line" smooth="yes"/>
      <point x="605" y="367" type="line" smooth="yes"/>
      <point x="611" y="413" type="line" smooth="yes"/>
      <point x="579" y="703" type="line" smooth="yes"/>
    </contour>
    <contour>
      <point x="534" y="936" type="line" smooth="yes"/>
      <point x="435" y="936" type="line" smooth="yes"/>
      <point x="424" y="854" type="line" smooth="yes"/>
      <point x="523" y="854" type="line" smooth="yes"/>
    </contour>
    <contour>
      <point x="371" y="936" type="line" smooth="yes"/>
      <point x="272" y="936" type="line" smooth="yes"/>
      <point x="261" y="854" type="line" smooth="yes"/>
      <point x="360" y="854" type="line" smooth="yes"/>
    </contour>
  </outline>
</glyph>
<glyph name="Oslash" format="1">
  <advance width="649"/>
  <unicode hex="00D8"/>
  <outline>
    <contour>
      <point x="499" y="367" type="line" smooth="yes"/>
      <point x="432" y="149" type="line" smooth="yes"/>
      <point x="294" y="80" type="line" smooth="yes"/>
      <point x="286" y="80" type="line" smooth="yes"/>
      <point x="221" y="92" type="line" smooth="yes"/>
      <point x="178" y="128" type="line" smooth="yes"/>
      <point x="509" y="575" type="line" smooth="yes"/>
      <point x="513" y="506" type="line" smooth="yes"/>
      <point x="505" y="413" type="line" smooth="yes"/>
    </contour>
    <contour>
      <point x="161" y="413" type="line" smooth="yes"/>
      <point x="228" y="631" type="line" smooth="yes"/>
      <point x="366" y="700" type="line" smooth="yes"/>
      <point x="374" y="700" type="line" smooth="yes"/>
      <point x="439" y="688" type="line" smooth="yes"/>
      <point x="482" y="652" type="line" smooth="yes"/>
      <point x="151" y="205" type="line" smooth="yes"/>
      <point x="147" y="274" type="line" smooth="yes"/>
      <point x="155" y="367" type="line" smooth="yes"/>
    </contour>
    <contour>
      <point x="611" y="413" type="line" smooth="yes"/>
      <point x="617" y="571" type="line" smooth="yes"/>
      <point x="590" y="684" type="line" smooth="yes"/>
      <point x="661" y="780" type="line" smooth="yes"/>
      <point x="577" y="780" type="line" smooth="yes"/>
      <point x="547" y="740" type="line" smooth="yes"/>
      <point x="472" y="779" type="line" smooth="yes"/>
      <point x="370" y="792" type="line" smooth="yes"/>
      <point x="157" y="703" type="line" smooth="yes"/>
      <point x="55" y="413" type="line" smooth="yes"/>
      <point x="49" y="367" type="line" smooth="yes"/>
      <point x="43" y="209" type="line" smooth="yes"/>
      <point x="70" y="96" type="line" smooth="yes"/>
      <point x="-1" y="0" type="line" smooth="yes"/>
      <point x="83" y="0" type="line" smooth="yes"/>
      <point x="113" y="40" type="line" smooth="yes"/>
      <point x="188" y="1" type="line" smooth="yes"/>
      <point x="290" y="-12" type="line" smooth="yes"/>
      <point x="503" y="77" type="line" smooth="yes"/>
      <point x="605" y="367" type="line" smooth="yes"/>
    </contour>
  </outline>
</glyph>
<glyph name="germandbls" format="1">
  <advance width="590"/>
  <unicode hex="00DF"/>
  <outline>
    <contour>
      <point x="268" y="358" type="line" smooth="yes"/>
      <point x="342" y="303" type="line" smooth="yes"/>
      <point x="416" y="236" type="line" smooth="yes"/>
      <point x="440" y="169" type="line" smooth="yes"/>
      <point x="419" y="98" type="line" smooth="yes"/>
      <point x="348" y="68" type="line" smooth="yes"/>
      <point x="283" y="94" type="line" smooth="yes"/>
      <point x="277" y="164" type="line" smooth="yes"/>
      <point x="185" y="164" type="line" smooth="yes"/>
      <point x="184" y="157" type="line" smooth="yes"/>
      <point x="204" y="39" type="line" smooth="yes"/>
      <point x="345" y="-12" type="line" smooth="yes"/>
      <point x="489" y="40" type="line" smooth="yes"/>
      <point x="539" y="155" type="line" smooth="yes"/>
      <point x="540" y="163" type="line" smooth="yes"/>
      <point x="517" y="274" type="line" smooth="yes"/>
      <point x="418" y="370" type="line" smooth="yes"/>
      <point x="382" y="397" type="line" smooth="yes"/>
      <point x="484" y="480" type="line" smooth="yes"/>
      <point x="529" y="596" type="line" smooth="yes"/>
      <point x="530" y="604" type="line" smooth="yes"/>
      <point x="494" y="751" type="line" smooth="yes"/>
      <point x="325" y="812" type="line" smooth="yes"/>
      <point x="159" y="753" type="line" smooth="yes"/>
      <point x="89" y="604" type="line" smooth="yes"/>
      <point x="10" y="0" type="line" smooth="yes"/>
      <point x="110" y="0" type="line" smooth="yes"/>
      <point x="188" y="597" type="line" smooth="yes"/>
      <point x="228" y="687" type="line" smooth="yes"/>
      <point x="325" y="722" type="line" smooth="yes"/>
      <point x="405" y="694" type="line" smooth="yes"/>
      <point x="431" y="621" type="line" smooth="yes"/>
      <point x="395" y="508" type="line" smooth="yes"/>
      <point x="276" y="422" type="line" smooth="yes"/>
    </contour>
  </outline>
</glyph>
<glyph name="ae" format="1">
  <advance width="863"/>
  <unicode hex="00E6"/>
  <outline>
    <contour>
      <point x="608" y="460" type="line" smooth="yes"/>
      <point x="701" y="419" type="line" smooth="yes"/>
      <point x="718" y="303" type="line" smooth="yes"/>
      <point x="456" y="303" type="line" smooth="yes"/>
      <point x="507" y="418" type="line" smooth="yes"/>
    </contour>
    <contour>
      <point x="187" y="72" type="line" smooth="yes"/>
      <point x="126" y="98" type="line" smooth="yes"/>
      <point x="111" y="154" type="line" smooth="yes"/>
      <point x="112" y="162" type="line" smooth="yes"/>
      <point x="142" y="219" type="line" smooth="yes"/>
      <point x="218" y="249" type="line" smooth="yes"/>
      <point x="350" y="269" type="line" smooth="yes"/>
      <point x="348" y="256" type="line" smooth="yes"/>
      <point x="344" y="206" type="line" smooth="yes"/>
      <point x="347" y="159" type="line" smooth="yes"/>
      <point x="284" y="98" type="line" smooth="yes"/>
    </contour>
    <contour>
      <point x="809" y="227" type="line" smooth="yes"/>
      <point x="815" y="271" type="line" smooth="yes"/>
      <point x="782" y="465" type="line" smooth="yes"/>
      <point x="610" y="542" type="line" smooth="yes"/>
      <point x="507" y="521" type="line" smooth="yes"/>
      <point x="436" y="462" type="line" smooth="yes"/>
      <point x="383" y="521" type="line" smooth="yes"/>
      <point x="270" y="542" type="line" smooth="yes"/>
      <point x="113" y="486" type="line" smooth="yes"/>
      <point x="58" y="362" type="line" smooth="yes"/>
      <point x="57" y="355" type="line" smooth="yes"/>
      <point x="152" y="355" type="line" smooth="yes"/>
      <point x="180" y="430" type="line" smooth="yes"/>
      <point x="270" y="462" type="line" smooth="yes"/>
      <point x="351" y="437" type="line" smooth="yes"/>
      <point x="363" y="354" type="line" smooth="yes"/>
      <point x="361" y="339" type="line" smooth="yes"/>
      <point x="209" y="315" type="line" smooth="yes"/>
      <point x="75" y="270" type="line" smooth="yes"/>
      <point x="10" y="152" type="line" smooth="yes"/>
      <point x="9" y="144" type="line" smooth="yes"/>
      <point x="38" y="35" type="line" smooth="yes"/>
      <point x="154" y="-12" type="line" smooth="yes"/>
      <point x="265" y="7" type="line" smooth="yes"/>
      <point x="373" y="81" type="line" smooth="yes"/>
      <point x="446" y="13" type="line" smooth="yes"/>
      <point x="568" y="-12" type="line" smooth="yes"/>
      <point x="733" y="41" type="line" smooth="yes"/>
      <point x="800" y="163" type="line" smooth="yes"/>
      <point x="801" y="170" type="line" smooth="yes"/>
      <point x="705" y="170" type="line" smooth="yes"/>
      <point x="669" y="100" type="line" smooth="yes"/>
      <point x="570" y="70" type="line" smooth="yes"/>
      <point x="469" y="111" type="line" smooth="yes"/>
      <point x="446" y="227" type="line" smooth="yes"/>
    </contour>
  </outline>
</glyph>
<glyph name="ccedilla" format="1">
  <advance width="520"/>
  <unicode hex="00E7"/>
  <outline>
    <contour>
      <point x="130" y="278" type="line" smooth="yes"/>
      <point x="182" y="407" type="line" smooth="yes"/>
      <point x="288" y="454" type="line" smooth="yes"/>
      <point x="368" y="419" type="line" smooth="yes"/>
      <point x="382" y="332" type="line" smooth="yes"/>
      <point x="476" y="332" type="line" smooth="yes"/>
      <point x="477" y="339" type="line" smooth="yes"/>
      <point x="449" y="480" type="line" smooth="yes"/>
      <point x="290" y="542" type="line" smooth="yes"/>
      <point x="109" y="467" type="line" smooth="yes"/>
      <point x="29" y="278" type="line" smooth="yes"/>
      <point x="26" y="256" type="line" smooth="yes"/>
      <point x="52" y="77" type="line" smooth="yes"/>
      <point x="194" y="-10" type="line" smooth="yes"/>
      <point x="159" y="-77" type="line" smooth="yes"/>
      <point x="173" y="-102" type="line" smooth="yes"/>
      <point x="183" y="-101" type="line" smooth="yes"/>
      <point x="205" y="-99" type="line" smooth="yes"/>
      <point x="245" y="-105" type="line" smooth="yes"/>
      <point x="259" y="-125" type="line" smooth="yes"/>
      <point x="245" y="-148" type="line" smooth="yes"/>
      <point x="207" y="-155" type="line" smooth="yes"/>
      <point x="164" y="-150" type="line" smooth="yes"/>
      <point x="133" y="-136" type="line" smooth="yes"/>
      <point x="108" y="-188" type="line" smooth="yes"/>
      <point x="147" y="-205" type="line" smooth="yes"/>
      <point x="207" y="-213" type="line" smooth="yes"/>
      <point x="290" y="-191" type="line" smooth="yes"/>
      <point x="323" y="-125" type="line" smooth="yes"/>
      <point x="295" y="-68" type="line" smooth="yes"/>
      <point x="231" y="-50" type="line" smooth="yes"/>
      <point x="251" y="-11" type="line" smooth="yes"/>
      <point x="398" y="51" type="line" smooth="yes"/>
      <point x="456" y="181" type="line" smooth="yes"/>
      <point x="457" y="188" type="line" smooth="yes"/>
      <point x="362" y="188" type="line" smooth="yes"/>
      <point x="324" y="110" type="line" smooth="yes"/>
      <point x="230" y="76" type="line" smooth="yes"/>
      <point x="138" y="125" type="line" smooth="yes"/>
      <point x="127" y="256" type="line" smooth="yes"/>
    </contour>
  </outline>
</glyph>
<glyph name="ecircumflex" format="1">
  <advance width="544"/>
  <unicode hex="00EA"/>
  <outline>
    <contour>
      <point x="286" y="460" type="line" smooth="yes"/>
      <point x="379" y="419" type="line" smooth="yes"/>
      <point x="396" y="303" type="line" smooth="yes"/>
      <point x="134" y="303" type="line" smooth="yes"/>
      <point x="185" y="418" type="line" smooth="yes"/>
    </contour>
    <contour>
      <point x="487" y="227" type="line" smooth="yes"/>
      <point x="493" y="271" type="line" smooth="yes"/>
      <point x="460" y="465" type="line" smooth="yes"/>
      <point x="288" y="542" type="line" smooth="yes"/>
      <point x="108" y="467" type="line" smooth="yes"/>
      <point x="29" y="278" type="line" smooth="yes"/>
      <point x="26" y="256" type="line" smooth="yes"/>
      <point x="61" y="67" type="line" smooth="yes"/>
      <point x="246" y="-12" type="line" smooth="yes"/>
      <point x="411" y="41" type="line" smooth="yes"/>
      <point x="478" y="163" type="line" smooth="yes"/>
      <point x="479" y="170" type="line" smooth="yes"/>
      <point x="383" y="170" type="line" smooth="yes"/>
      <point x="347" y="100" type="line" smooth="yes"/>
      <point x="248" y="70" type="line" smooth="yes"/>
      <point x="147" y="111" type="line" smooth="yes"/>
      <point x="124" y="227" type="line" smooth="yes"/>
    </contour>
    <contour>
      <point x="223" y="607" type="line" smooth="yes"/>
      <point x="322" y="708" type="line" smooth="yes"/>
      <point x="393" y="607" type="line" smooth="yes"/>
      <point x="485" y="607" type="line" smooth="yes"/>
      <point x="376" y="780" type="line" smooth="yes"/>
      <point x="282" y="780" type="line" smooth="yes"/>
      <point x="127" y="607" type="line" smooth="yes"/>
    </contour>
  </outline>
</glyph>
<glyph name="icircumflex" format="1">
  <advance width="234"/>
  <unicode hex="00EE"/>
  <outline>
    <contour>
      <point x="18" y="0" type="line" smooth="yes"/>
      <point x="118" y="0" type="line" smooth="yes"/>
      <point x="187" y="530" type="line" smooth="yes"/>
      <point x="87" y="530" type="line" smooth="yes"/>
    </contour>
    <contour>
      <point x="64" y="607" type="line" smooth="yes"/>
      <point x="163" y="708" type="line" smooth="yes"/>
      <point x="234" y="607" type="line" smooth="yes"/>
      <point x="326" y="607" type="line" smooth="yes"/>
      <point x="217" y="780" type="line" smooth="yes"/>
      <point x="123" y="780" type="line" smooth="yes"/>
      <point x="-32" y="607" type="line" smooth="yes"/>
    </contour>
  </outline>
</glyph>
<glyph name="eth" format="1">
  <advance width="542"/>
  <unicode hex="00F0"/>
  <outline>
    <contour>
      <point x="236" y="76" type="line" smooth="yes"/>
      <point x="141" y="125" type="line" smooth="yes"/>
      <point x="127" y="256" type="line" smooth="yes"/>
      <point x="130" y="278" type="line" smooth="yes"/>
      <point x="180" y="407" type="line" smooth="yes"/>
      <point x="284" y="454" type="line" smooth="yes"/>
      <point x="378" y="405" type="line" smooth="yes"/>
      <point x="393" y="274" type="line" smooth="yes"/>
      <point x="390" y="252" type="line" smooth="yes"/>
      <point x="340" y="123" type="line" smooth="yes"/>
    </contour>
    <contour>
      <point x="87" y="721" type="line" smooth="yes"/>
      <point x="162" y="709" type="line" smooth="yes"/>
      <point x="230" y="688" type="line" smooth="yes"/>
      <point x="109" y="624" type="line" smooth="yes"/>
      <point x="101" y="557" type="line" smooth="yes"/>
      <point x="287" y="655" type="line" smooth="yes"/>
      <point x="315" y="633" type="line" smooth="yes"/>
      <point x="345" y="601" type="line" smooth="yes"/>
      <point x="370" y="560" type="line" smooth="yes"/>
      <point x="388" y="513" type="line" smooth="yes"/>
      <point x="348" y="534" type="line" smooth="yes"/>
      <point x="286" y="542" type="line" smooth="yes"/>
      <point x="107" y="467" type="line" smooth="yes"/>
      <point x="29" y="278" type="line" smooth="yes"/>
      <point x="26" y="256" type="line" smooth="yes"/>
      <point x="61" y="66" type="line" smooth="yes"/>
      <point x="234" y="-12" type="line" smooth="yes"/>
      <point x="414" y="63" type="line" smooth="yes"/>
      <point x="491" y="252" type="line" smooth="yes"/>
      <point x="494" y="274" type="line" smooth="yes"/>
      <point x="497" y="474" type="line" smooth="yes"/>
      <point x="431" y="659" type="line" smooth="yes"/>
      <point x="411" y="685" type="line" smooth="yes"/>
      <point x="388" y="708" type="line" smooth="yes"/>
      <point x="458" y="745" type="line" smooth="yes"/>
      <point x="466" y="812" type="line" smooth="yes"/>
      <point x="339" y="745" type="line" smooth="yes"/>
      <point x="227" y="792" type="line" smooth="yes"/>
      <point x="99" y="812" type="line" smooth="yes"/>
    </contour>
  </outline>
</glyph>
<glyph name="ntilde" format="1">
  <advance width="545"/>
  <unicode hex="00F1"/>
  <outline>
    <contour>
      <point x="440" y="0" type="line" smooth="yes"/>
      <point x="488" y="365" type="line" smooth="yes"/>
      <point x="461" y="489" type="line" smooth="yes"/>
      <point x="340" y="542" type="line" smooth="yes"/>
      <point x="235" y="519" type="line" smooth="yes"/>
      <point x="161" y="459" type="line" smooth="yes"/>
      <point x="161" y="530" type="line" smooth="yes"/>
      <point x="75" y="530" type="line" smooth="yes"/>
      <point x="63" y="380" type="line" smooth="yes"/>
      <point x="13" y="0" type="line" smooth="yes"/>
      <point x="113" y="0" type="line" smooth="yes"/>
      <point x="163" y="381" type="line" smooth="yes"/>
      <point x="213" y="428" type="line" smooth="yes"/>
      <point x="298" y="454" type="line" smooth="yes"/>
      <point x="371" y="425" type="line" smooth="yes"/>
      <point x="386" y="350" type="line" smooth="yes"/>
      <point x="340" y="0" type="line" smooth="yes"/>
    </contour>
    <contour>
      <point x="427" y="755" type="line" smooth="yes"/>
      <point x="412" y="723" type="line" smooth="yes"/>
      <point x="386" y="714" type="line" smooth="yes"/>
      <point x="326" y="741" type="line" smooth="yes"/>
      <point x="247" y="768" type="line" smooth="yes"/>
      <point x="173" y="737" type="line" smooth="yes"/>
      <point x="139" y="645" type="line" smooth="yes"/>
      <point x="210" y="645" type="line" smooth="yes"/>
      <point x="225" y="678" type="line" smooth="yes"/>
      <point x="251" y="686" type="line" smooth="yes"/>
      <point x="311" y="659" type="line" smooth="yes"/>
      <point x="390" y="632" type="line" smooth="yes"/>
      <point x="464" y="663" type="line" smooth="yes"/>
      <point x="498" y="755" type="line" smooth="yes"/>
    </contour>
  </outline>
</glyph>
<glyph name="ocircumflex" format="1">
  <advance width="544"/>
  <unicode hex="00F4"/>
  <outline>
    <contour>
      <point x="286" y="542" type="line" smooth="yes"/>
      <point x="107" y="467" type="line" smooth="yes"/>
      <point x="29" y="278" type="line" smooth="yes"/>
      <point x="26" y="256" type="line" smooth="yes"/>
      <point x="61" y="66" type="line" smooth="yes"/>
      <point x="234" y="-12" type="line" smooth="yes"/>
      <point x="414" y="63" type="line" smooth="yes"/>
      <point x="491" y="252" type="line" smooth="yes"/>
      <point x="494" y="274" type="line" smooth="yes"/>
      <point x="459" y="464" type="line" smooth="yes"/>
    </contour>
    <contour>
      <point x="236" y="76" type="line" smooth="yes"/>
      <point x="141" y="125" type="line" smooth="yes"/>
      <point x="127" y="256" type="line" smooth="yes"/>
      <point x="130" y="278" type="line" smooth="yes"/>
      <point x="180" y="407" type="line" smooth="yes"/>
      <point x="284" y="454" type="line" smooth="yes"/>
      <point x="379" y="405" type="line" smooth="yes"/>
      <point x="393" y="274" type="line" smooth="yes"/>
      <point x="390" y="252" type="line" smooth="yes"/>
      <point x="340" y="123" type="line" smooth="yes"/>
    </contour>
    <contour>
      <point x="221" y="607" type="line" smooth="yes"/>
      <point x="320" y="708" type="line" smooth="yes"/>
      <point x="391" y="607" type="line" smooth="yes"/>
      <point x="483" y="607" type="line" smooth="yes"/>
      <point x="374" y="780" type="line" smooth="yes"/>
      <point x="280" y="780" type="line" smooth="yes"/>
      <point x="125" y="607" type="line" smooth="yes"/>
    </contour>
  </outline>
</glyph>
<glyph name="otilde" format="1">
  <advance width="546"/>
  <unicode hex="00F5"/>
  <outline>
    <contour>
      <point x="286" y="542" type="line" smooth="yes"/>
      <point x="107" y="467" type="line" smooth="yes"/>
      <point x="29" y="278" type="line" smooth="yes"/>
      <point x="26" y="256" type="line" smooth="yes"/>
      <point x="61" y="66" type="line" smooth="yes"/>
      <point x="234" y="-12" type="line" smooth="yes"/>
      <point x="414" y="63" type="line" smooth="yes"/>
      <point x="491" y="252" type="line" smooth="yes"/>
      <point x="494" y="274" type="line" smooth="yes"/>
      <point x="459" y="464" type="line" smooth="yes"/>
    </contour>
    <contour>
      <point x="236" y="76" type="line" smooth="yes"/>
      <point x="141" y="125" type="line" smooth="yes"/>
      <point x="127" y="256" type="line" smooth="yes"/>
      <point x="130" y="278" type="line" smooth="yes"/>
      <point x="180" y="407" type="line" smooth="yes"/>
      <point x="284" y="454" type="line" smooth="yes"/>
      <point x="379" y="405" type="line" smooth="yes"/>
      <point x="393" y="274" type="line" smooth="yes"/>
      <point x="390" y="252" type="line" smooth="yes"/>
      <point x="340" y="123" type="line" smooth="yes"/>
    </contour>
    <contour>
      <point x="425" y="755" type="line" smooth="yes"/>
      <point x="410" y="723" type="line" smooth="yes"/>
      <point x="384" y="714" type="line" smooth="yes"/>
      <point x="324" y="741" type="line" smooth="yes"/>
      <point x="245" y="768" type="line" smooth="yes"/>
      <point x="171" y="737" type="line" smooth="yes"/>
      <point x="137" y="645" type="line" smooth="yes"/>
      <point x="208" y="645" type="line" smooth="yes"/>
      <point x="223" y="678" type="line" smooth="yes"/>
      <point x="249" y="686" type="line" smooth="yes"/>
      <point x="309" y="659" type="line" smooth="yes"/>
      <point x="388" y="632" type="line" smooth="yes"/>
      <point x="462" y="663" type="line" smooth="yes"/>
      <point x="496" y="755" type="line" smooth="yes"/>
    </contour>
  </outline>
</glyph>
<glyph name="oslash" format="1">
  <advance width="548"/>
  <unicode hex="00F8"/>
  <outline>
    <contour>
      <point x="236" y="76" type="line" smooth="yes"/>
      <point x="190" y="83" type="line" smooth="yes"/>
      <point x="157" y="105" type="line" smooth="yes"/>
      <point x="391" y="373" type="line" smooth="yes"/>
      <point x="397" y="328" type="line" smooth="yes"/>
      <point x="393" y="274" type="line" smooth="yes"/>
      <point x="390" y="252" type="line" smooth="yes"/>
      <point x="340" y="123" type="line" smooth="yes"/>
    </contour>
    <contour>
      <point x="130" y="278" type="line" smooth="yes"/>
      <point x="180" y="407" type="line" smooth="yes"/>
      <point x="284" y="454" type="line" smooth="yes"/>
      <point x="330" y="447" type="line" smooth="yes"/>
      <point x="363" y="425" type="line" smooth="yes"/>
      <point x="129" y="157" type="line" smooth="yes"/>
      <point x="124" y="202" type="line" smooth="yes"/>
      <point x="127" y="256" type="line" smooth="yes"/>
    </contour>
    <contour>
      <point x="66" y="0" type="line" smooth="yes"/>
      <point x="94" y="32" type="line" smooth="yes"/>
      <point x="154" y="-1" type="line" smooth="yes"/>
      <point x="234" y="-12" type="line" smooth="yes"/>
      <point x="414" y="63" type="line" smooth="yes"/>
      <point x="491" y="252" type="line" smooth="yes"/>
      <point x="494" y="274" type="line" smooth="yes"/>
      <point x="494" y="374" type="line" smooth="yes"/>
      <point x="463" y="457" type="line" smooth="yes"/>
      <point x="527" y="530" type="line" smooth="yes"/>
      <point x="454" y="530" type="line" smooth="yes"/>
      <point x="426" y="498" type="line" smooth="yes"/>
      <point x="366" y="531" type="line" smooth="yes"/>
      <point x="286" y="542" type="line" smooth="yes"/>
      <point x="107" y="467" type="line" smooth="yes"/>
      <point x="29" y="278" type="line" smooth="yes"/>
      <point x="26" y="256" type="line" smooth="yes"/>
      <point x="27" y="156" type="line" smooth="yes"/>
      <point x="57" y="73" type="line" smooth="yes"/>
      <point x="-7" y="0" type="line" smooth="yes"/>
    </contour>
  </outline>
</glyph>
<glyph name="udieresis" format="1">
  <advance width="545"/>
  <unicode hex="00FC"/>
  <outline>
    <contour>
      <point x="76" y="530" type="line" smooth="yes"/>
      <point x="28" y="165" type="line" smooth="yes"/>
      <point x="55" y="41" type="line" smooth="yes"/>
      <point x="176" y="-12" type="line" smooth="yes"/>
      <point x="281" y="11" type="line" smooth="yes"/>
      <point x="355" y="71" type="line" smooth="yes"/>
      <point x="355" y="0" type="line" smooth="yes"/>
      <point x="441" y="0" type="line" smooth="yes"/>
      <point x="453" y="150" type="line" smooth="yes"/>
      <point x="503" y="530" type="line" smooth="yes"/>
      <point x="403" y="530" type="line" smooth="yes"/>
      <point x="353" y="149" type="line" smooth="yes"/>
      <point x="303" y="102" type="line" smooth="yes"/>
      <point x="218" y="76" type="line" smooth="yes"/>
      <point x="145" y="105" type="line" smooth="yes"/>
      <point x="130" y="180" type="line" smooth="yes"/>
      <point x="176" y="530" type="line" smooth="yes"/>
    </contour>
    <contour>
      <point x="468" y="754" type="line" smooth="yes"/>
      <point x="354" y="754" type="line" smooth="yes"/>
      <point x="339" y="640" type="line" smooth="yes"/>
      <point x="453" y="640" type="line" smooth="yes"/>
    </contour>
    <contour>
      <point x="285" y="754" type="line" smooth="yes"/>
      <point x="171" y="754" type="line" smooth="yes"/>
      <point x="156" y="640" type="line" smooth="yes"/>
      <point x="270" y="640" type="line" smooth="yes"/>
    </contour>
  </outline>
</glyph>
<glyph name="thorn" format="1">
  <advance width="545"/>
  <unicode hex="00FE"/>
  <outline>
    <contour>
      <point x="162" y="381" type="line" smooth="yes"/>
      <point x="212" y="430" type="line" smooth="yes"/>
      <point x="298" y="454" type="line" smooth="yes"/>
      <point x="383" y="405" type="line" smooth="yes"/>
      <point x="394" y="274" type="line" smooth="yes"/>
      <point x="391" y="252" type="line" smooth="yes"/>
      <point x="343" y="123" type="line" smooth="yes"/>
      <point x="249" y="76" type="line" smooth="yes"/>
      <point x="170" y="102" type="line" smooth="yes"/>
      <point x="132" y="150" type="line" smooth="yes"/>
    </contour>
    <contour>
      <point x="117" y="800" type="line" smooth="yes"/>
      <point x="-15" y="-200" type="line" smooth="yes"/>
      <point x="85" y="-200" type="line" smooth="yes"/>
      <point x="120" y="58" type="line" smooth="yes"/>
      <point x="168" y="9" type="line" smooth="yes"/>
      <point x="253" y="-12" type="line" smooth="yes"/>
      <point x="417" y="57" type="line" smooth="yes"/>
      <point x="492" y="252" type="line" smooth="yes"/>
      <point x="495" y="274" type="line" smooth="yes"/>
      <point x="472" y="464" type="line" smooth="yes"/>
      <point x="318" y="542" type="line" smooth="yes"/>
      <point x="230" y="521" type="line" smooth="yes"/>
      <point x="175" y="480" type="line" smooth="yes"/>
      <point x="217" y="800" type="line" smooth="yes"/>
    </contour>
  </outline>
</glyph>
<glyph name="Abreve" format="1">
  <advance width="621"/>
  <unicode hex="0102"/>
  <outline>
    <contour>
      <point x="352" y="669" type="line" smooth="yes"/>
      <point x="402" y="280" type="line" smooth="yes"/>
      <point x="198" y="280" type="line" smooth="yes"/>
    </contour>
    <contour>
      <point x="292" y="786" type="line" smooth="yes"/>
      <point x="-26" y="0" type="line" smooth="yes"/>
      <point x="89" y="0" type="line" smooth="yes"/>
      <point x="162" y="188" type="line" smooth="yes"/>
      <point x="414" y="188" type="line" smooth="yes"/>
      <point x="439" y="0" type="line" smooth="yes"/>
      <point x="549" y="0" type="line" smooth="yes"/>
      <point x="437" y="786" type="line" smooth="yes"/>
    </contour>
    <contour>
      <point x="374" y="827" type="line" smooth="yes"/>
      <point x="499" y="863" type="line" smooth="yes"/>
      <point x="546" y="950" type="line" smooth="yes"/>
      <point x="469" y="950" type="line" smooth="yes"/>
      <point x="444" y="905" type="line" smooth="yes"/>
      <point x="376" y="890" type="line" smooth="yes"/>
      <point x="315" y="906" type="line" smooth="yes"/>
      <point x="301" y="950" type="line" smooth="yes"/>
      <point x="228" y="950" type="line" smooth="yes"/>
      <point x="252" y="863" type="line" smooth="yes"/>
    </contour>
  </outline>
</glyph>
<glyph name="abreve" format="1">
  <advance width="525"/>
  <unicode hex="0103"/>
  <outline>
    <contour>
      <point x="187" y="72" type="line" smooth="yes"/>
      <point x="126" y="98" type="line" smooth="yes"/>
      <point x="111" y="154" type="line" smooth="yes"/>
      <point x="112" y="162" type="line" smooth="yes"/>
      <point x="142" y="219" type="line" smooth="yes"/>
      <point x="218" y="249" type="line" smooth="yes"/>
      <point x="352" y="270" type="line" smooth="yes"/>
      <point x="335" y="144" type="line" smooth="yes"/>
      <point x="284" y="98" type="line" smooth="yes"/>
    </contour>
    <contour>
      <point x="338" y="0" type="line" smooth="yes"/>
      <point x="424" y="0" type="line" smooth="yes"/>
      <point x="436" y="150" type="line" smooth="yes"/>
      <point x="462" y="347" type="line" smooth="yes"/>
      <point x="431" y="490" type="line" smooth="yes"/>
      <point x="270" y="542" type="line" smooth="yes"/>
      <point x="113" y="486" type="line" smooth="yes"/>
      <point x="58" y="362" type="line" smooth="yes"/>
      <point x="57" y="355" type="line" smooth="yes"/>
      <point x="152" y="355" type="line" smooth="yes"/>
      <point x="180" y="430" type="line" smooth="yes"/>
      <point x="270" y="462" type="line" smooth="yes"/>
      <point x="351" y="437" type="line" smooth="yes"/>
      <point x="363" y="354" type="line" smooth="yes"/>
      <point x="361" y="339" type="line" smooth="yes"/>
      <point x="209" y="315" type="line" smooth="yes"/>
      <point x="75" y="270" type="line" smooth="yes"/>
      <point x="10" y="152" type="line" smooth="yes"/>
      <point x="9" y="144" type="line" smooth="yes"/>
      <point x="38" y="35" type="line" smooth="yes"/>
      <point x="154" y="-12" type="line" smooth="yes"/>
      <point x="263" y="11" type="line" smooth="yes"/>
      <point x="338" y="67" type="line" smooth="yes"/>
    </contour>
    <contour>
      <point x="298" y="595" type="line" smooth="yes"/>
      <point x="433" y="645" type="line" smooth="yes"/>
      <point x="486" y="780" type="line" smooth="yes"/>
      <point x="407" y="780" type="line" smooth="yes"/>
      <point x="375" y="702" type="line" smooth="yes"/>
      <point x="298" y="675" type="line" smooth="yes"/>
      <point x="233" y="703" type="line" smooth="yes"/>
      <point x="221" y="780" type="line" smooth="yes"/>
      <point x="146" y="780" type="line" smooth="yes"/>
      <point x="170" y="647" type="line" smooth="yes"/>
    </contour>
  </outline>
</glyph>
<glyph name="cacute" format="1">
  <advance width="520"/>
  <unicode hex="0107"/>
  <outline>
    <contour>
      <point x="130" y="278" type="line" smooth="yes"/>
      <point x="182" y="407" type="line" smooth="yes"/>
      <point x="288" y="454" type="line" smooth="yes"/>
      <point x="368" y="419" type="line" smooth="yes"/>
      <point x="382" y="332" type="line" smooth="yes"/>
      <point x="476" y="332" type="line" smooth="yes"/>
      <point x="477" y="339" type="line" smooth="yes"/>
      <point x="449" y="480" type="line" smooth="yes"/>
      <point x="290" y="542" type="line" smooth="yes"/>
      <point x="109" y="467" type="line" smooth="yes"/>
      <point x="29" y="278" type="line" smooth="yes"/>
      <point x="26" y="256" type="line" smooth="yes"/>
      <point x="58" y="66" type="line" smooth="yes"/>
      <point x="228" y="-12" type="line" smooth="yes"/>
      <point x="392" y="45" type="line" smooth="yes"/>
      <point x="456" y="181" type="line" smooth="yes"/>
      <point x="457" y="188" type="line" smooth="yes"/>
      <point x="362" y="188" type="line" smooth="yes"/>
      <point x="324" y="110" type="line" smooth="yes"/>
      <point x="230" y="76" type="line" smooth="yes"/>
      <point x="138" y="125" type="line" smooth="yes"/>
      <point x="127" y="256" type="line" smooth="yes"/>
    </contour>
    <contour>
      <point x="362" y="780" type="line" smooth="yes"/>
      <point x="248" y="607" type="line" smooth="yes"/>
      <point x="350" y="607" type="line" smooth="yes"/>
      <point x="472" y="780" type="line" smooth="yes"/>
    </contour>
  </outline>
</glyph>
<glyph name="ccircumflex" format="1">
  <advance width="521"/>
  <unicode hex="0109"/>
  <outline>
    <contour>
      <point x="130" y="278" type="line" smooth="yes"/>
      <point x="182" y="407" type="line" smooth="yes"/>
      <point x="288" y="454" type="line" smooth="yes"/>
      <point x="368" y="419" type="line" smooth="yes"/>
      <point x="382" y="332" type="line" smooth="yes"/>
      <point x="476" y="332" type="line" smooth="yes"/>
      <point x="477" y="339" type="line" smooth="yes"/>
      <point x="449" y="480" type="line" smooth="yes"/>
      <point x="290" y="542" type="line" smooth="yes"/>
      <point x="109" y="467" type="line" smooth="yes"/>
      <point x="29" y="278" type="line" smooth="yes"/>
      <point x="26" y="256" type="line" smooth="yes"/>
      <point x="58" y="66" type="line" smooth="yes"/>
      <point x="228" y="-12" type="line" smooth="yes"/>
      <point x="392" y="45" type="line" smooth="yes"/>
      <point x="456" y="181" type="line" smooth="yes"/>
      <point x="457" y="188" type="line" smooth="yes"/>
      <point x="362" y="188" type="line" smooth="yes"/>
      <point x="324" y="110" type="line" smooth="yes"/>
      <point x="230" y="76" type="line" smooth="yes"/>
      <point x="138" y="125" type="line" smooth="yes"/>
      <point x="127" y="256" type="line" smooth="yes"/>
    </contour>
    <contour>
      <point x="216" y="607" type="line" smooth="yes"/>
      <point x="315" y="708" type="line" smooth="yes"/>
      <point x="386" y="607" type="line" smooth="yes"/>
      <point x="478" y="607" type="line" smooth="yes"/>
      <point x="369" y="780" type="line" smooth="yes"/>
      <point x="275" y="780" type="line" smooth="yes"/>
      <point x="120" y="607" type="line" smooth="yes"/>
    </contour>
  </outline>
</glyph>
<glyph name="ccaron" format="1">
  <advance width="523"/>
  <unicode hex="010D"/>
  <outline>
    <contour>
      <point x="130" y="278" type="line" smooth="yes"/>
      <point x="182" y="407" type="line" smooth="yes"/>
      <point x="288" y="454" type="line" smooth="yes"/>
      <point x="368" y="419" type="line" smooth="yes"/>
      <point x="382" y="332" type="line" smooth="yes"/>
      <point x="476" y="332" type="line" smooth="yes"/>
      <point x="477" y="339" type="line" smooth="yes"/>
      <point x="449" y="480" type="line" smooth="yes"/>
      <point x="290" y="542" type="line" smooth="yes"/>
      <point x="109" y="467" type="line" smooth="yes"/>
      <point x="29" y="278" type="line" smooth="yes"/>
      <point x="26" y="256" type="line" smooth="yes"/>
      <point x="58" y="66" type="line" smooth="yes"/>
      <point x="228" y="-12" type="line" smooth="yes"/>
      <point x="392" y="45" type="line" smooth="yes"/>
      <point x="456" y="181" type="line" smooth="yes"/>
      <point x="457" y="188" type="line" smooth="yes"/>
      <point x="362" y="188" type="line" smooth="yes"/>
      <point x="324" y="110" type="line" smooth="yes"/>
      <point x="230" y="76" type="line" smooth="yes"/>
      <point x="138" y="125" type="line" smooth="yes"/>
      <point x="127" y="256" type="line" smooth="yes"/>
    </contour>
    <contour>
      <point x="405" y="780" type="line" smooth="yes"/>
      <point x="306" y="679" type="line" smooth="yes"/>
      <point x="235" y="780" type="line" smooth="yes"/>
      <point x="143" y="780" type="line" smooth="yes"/>
      <point x="252" y="607" type="line" smooth="yes"/>
      <point x="346" y="607" type="line" smooth="yes"/>
      <point x="501" y="780" type="line" smooth="yes"/>
    </contour>
  </outline>
</glyph>
<glyph name="Dcroat" format="1">
  <advance width="700"/>
  <unicode hex="0110"/>
  <outline>
    <contour>
      <point x="194" y="92" type="line" smooth="yes"/>
      <point x="228" y="352" type="line" smooth="yes"/>
      <point x="422" y="352" type="line" smooth="yes"/>
      <point x="434" y="444" type="line" smooth="yes"/>
      <point x="240" y="444" type="line" smooth="yes"/>
      <point x="272" y="688" type="line" smooth="yes"/>
      <point x="378" y="688" type="line" smooth="yes"/>
      <point x="530" y="623" type="line" smooth="yes"/>
      <point x="555" y="413" type="line" smooth="yes"/>
      <point x="549" y="367" type="line" smooth="yes"/>
      <point x="469" y="156" type="line" smooth="yes"/>
      <point x="300" y="92" type="line" smooth="yes"/>
    </contour>
    <contour>
      <point x="27" y="444" type="line" smooth="yes"/>
      <point x="15" y="352" type="line" smooth="yes"/>
      <point x="124" y="352" type="line" smooth="yes"/>
      <point x="78" y="0" type="line" smooth="yes"/>
      <point x="300" y="0" type="line" smooth="yes"/>
      <point x="540" y="82" type="line" smooth="yes"/>
      <point x="655" y="367" type="line" smooth="yes"/>
      <point x="661" y="413" type="line" smooth="yes"/>
      <point x="610" y="695" type="line" smooth="yes"/>
      <point x="390" y="780" type="line" smooth="yes"/>
      <point x="180" y="780" type="line" smooth="yes"/>
      <point x="136" y="444" type="line" smooth="yes"/>
    </contour>
  </outline>
</glyph>
<glyph name="dcroat" format="1">
  <advance width="554"/>
  <unicode hex="0111"/>
  <outline>
    <contour>
      <point x="363" y="149" type="line" smooth="yes"/>
      <point x="313" y="100" type="line" smooth="yes"/>
      <point x="227" y="76" type="line" smooth="yes"/>
      <point x="142" y="126" type="line" smooth="yes"/>
      <point x="131" y="256" type="line" smooth="yes"/>
      <point x="134" y="278" type="line" smooth="yes"/>
      <point x="182" y="407" type="line" smooth="yes"/>
      <point x="276" y="454" type="line" smooth="yes"/>
      <point x="355" y="428" type="line" smooth="yes"/>
      <point x="393" y="380" type="line" smooth="yes"/>
    </contour>
    <contour>
      <point x="299" y="627" type="line" smooth="yes"/>
      <point x="426" y="627" type="line" smooth="yes"/>
      <point x="405" y="472" type="line" smooth="yes"/>
      <point x="357" y="521" type="line" smooth="yes"/>
      <point x="272" y="542" type="line" smooth="yes"/>
      <point x="108" y="473" type="line" smooth="yes"/>
      <point x="33" y="278" type="line" smooth="yes"/>
      <point x="30" y="256" type="line" smooth="yes"/>
      <point x="53" y="66" type="line" smooth="yes"/>
      <point x="207" y="-12" type="line" smooth="yes"/>
      <point x="302" y="12" type="line" smooth="yes"/>
      <point x="365" y="71" type="line" smooth="yes"/>
      <point x="364" y="0" type="line" smooth="yes"/>
      <point x="451" y="0" type="line" smooth="yes"/>
      <point x="463" y="150" type="line" smooth="yes"/>
      <point x="526" y="627" type="line" smooth="yes"/>
      <point x="609" y="627" type="line" smooth="yes"/>
      <point x="619" y="703" type="line" smooth="yes"/>
      <point x="536" y="703" type="line" smooth="yes"/>
      <point x="549" y="800" type="line" smooth="yes"/>
      <point x="449" y="800" type="line" smooth="yes"/>
      <point x="436" y="703" type="line" smooth="yes"/>
      <point x="309" y="703" type="line" smooth="yes"/>
    </contour>
  </outline>
</glyph>
<glyph name="Ebreve" format="1">
  <advance width="557"/>
  <unicode hex="0114"/>
  <outline>
    <contour>
      <point x="120" y="780" type="line" smooth="yes"/>
      <point x="18" y="0" type="line" smooth="yes"/>
      <point x="468" y="0" type="line" smooth="yes"/>
      <point x="480" y="92" type="line" smooth="yes"/>
      <point x="134" y="92" type="line" smooth="yes"/>
      <point x="168" y="352" type="line" smooth="yes"/>
      <point x="464" y="352" type="line" smooth="yes"/>
      <point x="476" y="444" type="line" smooth="yes"/>
      <point x="180" y="444" type="line" smooth="yes"/>
      <point x="212" y="688" type="line" smooth="yes"/>
      <point x="558" y="688" type="line" smooth="yes"/>
      <point x="570" y="780" type="line" smooth="yes"/>
    </contour>
    <contour>
      <point x="361" y="827" type="line" smooth="yes"/>
      <point x="486" y="863" type="line" smooth="yes"/>
      <point x="533" y="950" type="line" smooth="yes"/>
      <point x="456" y="950" type="line" smooth="yes"/>
      <point x="431" y="905" type="line" smooth="yes"/>
      <point x="363" y="890" type="line" smooth="yes"/>
      <point x="302" y="906" type="line" smooth="yes"/>
      <point x="288" y="950" type="line" smooth="yes"/>
      <point x="215" y="950" type="line" smooth="yes"/>
      <point x="239" y="863" type="line" smooth="yes"/>
    </contour>
  </outline>
</glyph>
<glyph name="ebreve" format="1">
  <advance width="548"/>
  <unicode hex="0115"/>
  <outline>
    <contour>
      <point x="286" y="460" type="line" smooth="yes"/>
      <point x="379" y="419" type="line" smooth="yes"/>
      <point x="396" y="303" type="line" smooth="yes"/>
      <point x="134" y="303" type="line" smooth="yes"/>
      <point x="185" y="418" type="line" smooth="yes"/>
    </contour>
    <contour>
      <point x="487" y="227" type="line" smooth="yes"/>
      <point x="493" y="271" type="line" smooth="yes"/>
      <point x="460" y="465" type="line" smooth="yes"/>
      <point x="288" y="542" type="line" smooth="yes"/>
      <point x="108" y="467" type="line" smooth="yes"/>
      <point x="29" y="278" type="line" smooth="yes"/>
      <point x="26" y="256" type="line" smooth="yes"/>
      <point x="61" y="67" type="line" smooth="yes"/>
      <point x="246" y="-12" type="line" smooth="yes"/>
      <point x="411" y="41" type="line" smooth="yes"/>
      <point x="478" y="163" type="line" smooth="yes"/>
      <point x="479" y="170" type="line" smooth="yes"/>
      <point x="383" y="170" type="line" smooth="yes"/>
      <point x="347" y="100" type="line" smooth="yes"/>
      <point x="248" y="70" type="line" smooth="yes"/>
      <point x="147" y="111" type="line" smooth="yes"/>
      <point x="124" y="227" type="line" smooth="yes"/>
    </contour>
    <contour>
      <point x="311" y="595" type="line" smooth="yes"/>
      <point x="446" y="645" type="line" smooth="yes"/>
      <point x="499" y="780" type="line" smooth="yes"/>
      <point x="420" y="780" type="line" smooth="yes"/>
      <point x="388" y="702" type="line" smooth="yes"/>
      <point x="311" y="675" type="line" smooth="yes"/>
      <point x="246" y="703" type="line" smooth="yes"/>
      <point x="234" y="780" type="line" smooth="yes"/>
      <point x="159" y="780" type="line" smooth="yes"/>
      <point x="183" y="647" type="line" smooth="yes"/>
    </contour>
  </outline>
</glyph>
<glyph name="Eogonek" format="1">
  <advance width="557"/>
  <unicode hex="0118"/>
  <outline>
    <contour>
      <point x="120" y="780" type="line" smooth="yes"/>
      <point x="18" y="0" type="line" smooth="yes"/>
      <point x="353" y="0" type="line" smooth="yes"/>
      <point x="312" y="-49" type="line" smooth="yes"/>
      <point x="296" y="-115" type="line" smooth="yes"/>
      <point x="324" y="-187" type="line" smooth="yes"/>
      <point x="406" y="-213" type="line" smooth="yes"/>
      <point x="457" y="-207" type="line" smooth="yes"/>
      <point x="498" y="-191" type="line" smooth="yes"/>
      <point x="482" y="-123" type="line" smooth="yes"/>
      <point x="457" y="-132" type="line" smooth="yes"/>
      <point x="421" y="-136" type="line" smooth="yes"/>
      <point x="391" y="-124" type="line" smooth="yes"/>
      <point x="380" y="-95" type="line" smooth="yes"/>
      <point x="409" y="-34" type="line" smooth="yes"/>
      <point x="468" y="0" type="line" smooth="yes"/>
      <point x="480" y="92" type="line" smooth="yes"/>
      <point x="134" y="92" type="line" smooth="yes"/>
      <point x="168" y="352" type="line" smooth="yes"/>
      <point x="464" y="352" type="line" smooth="yes"/>
      <point x="476" y="444" type="line" smooth="yes"/>
      <point x="180" y="444" type="line" smooth="yes"/>
      <point x="212" y="688" type="line" smooth="yes"/>
      <point x="558" y="688" type="line" smooth="yes"/>
      <point x="570" y="780" type="line" smooth="yes"/>
    </contour>
  </outline>
</glyph>
<glyph name="eogonek" format="1">
  <advance width="544"/>
  <unicode hex="0119"/>
  <outline>
    <contour>
      <point x="286" y="460" type="line" smooth="yes"/>
      <point x="379" y="419" type="line" smooth="yes"/>
      <point x="396" y="303" type="line" smooth="yes"/>
      <point x="134" y="303" type="line" smooth="yes"/>
      <point x="185" y="418" type="line" smooth="yes"/>
    </contour>
    <contour>
      <point x="487" y="227" type="line" smooth="yes"/>
      <point x="493" y="271" type="line" smooth="yes"/>
      <point x="460" y="465" type="line" smooth="yes"/>
      <point x="288" y="542" type="line" smooth="yes"/>
      <point x="108" y="467" type="line" smooth="yes"/>
      <point x="29" y="278" type="line" smooth="yes"/>
      <point x="26" y="256" type="line" smooth="yes"/>
      <point x="54" y="78" type="line" smooth="yes"/>
      <point x="207" y="-10" type="line" smooth="yes"/>
      <point x="174" y="-56" type="line" smooth="yes"/>
      <point x="162" y="-115" type="line" smooth="yes"/>
      <point x="190" y="-187" type="line" smooth="yes"/>
      <point x="272" y="-213" type="line" smooth="yes"/>
      <point x="323" y="-207" type="line" smooth="yes"/>
      <point x="364" y="-191" type="line" smooth="yes"/>
      <point x="348" y="-123" type="line" smooth="yes"/>
      <point x="323" y="-132" type="line" smooth="yes"/>
      <point x="287" y="-136" type="line" smooth="yes"/>
      <point x="257" y="-124" type="line" smooth="yes"/>
      <point x="246" y="-95" type="line" smooth="yes"/>
      <point x="274" y="-33" type="line" smooth="yes"/>
      <point x="333" y="0" type="line" smooth="yes"/>
      <point x="435" y="64" type="line" smooth="yes"/>
      <point x="478" y="163" type="line" smooth="yes"/>
      <point x="479" y="170" type="line" smooth="yes"/>
      <point x="383" y="170" type="line" smooth="yes"/>
      <point x="347" y="100" type="line" smooth="yes"/>
      <point x="248" y="70" type="line" smooth="yes"/>
      <point x="147" y="111" type="line" smooth="yes"/>
      <point x="124" y="227" type="line" smooth="yes"/>
    </contour>
  </outline>
</glyph>
<glyph name="Gcircumflex" format="1">
  <advance width="649"/>
  <unicode hex="011C"/>
  <outline>
    <contour>
      <point x="302" y="-12" type="line" smooth="yes"/>
      <point x="453" y="15" type="line" smooth="yes"/>
      <point x="554" y="79" type="line" smooth="yes"/>
      <point x="596" y="398" type="line" smooth="yes"/>
      <point x="369" y="398" type="line" smooth="yes"/>
      <point x="357" y="306" type="line" smooth="yes"/>
      <point x="480" y="306" type="line" smooth="yes"/>
      <point x="456" y="125" type="line" smooth="yes"/>
      <point x="391" y="93" type="line" smooth="yes"/>
      <point x="306" y="80" type="line" smooth="yes"/>
      <point x="298" y="80" type="line" smooth="yes"/>
      <point x="171" y="149" type="line" smooth="yes"/>
      <point x="155" y="367" type="line" smooth="yes"/>
      <point x="161" y="413" type="line" smooth="yes"/>
      <point x="234" y="631" type="line" smooth="yes"/>
      <point x="378" y="700" type="line" smooth="yes"/>
      <point x="386" y="700" type="line" smooth="yes"/>
      <point x="492" y="649" type="line" smooth="yes"/>
      <point x="503" y="491" type="line" smooth="yes"/>
      <point x="608" y="491" type="line" smooth="yes"/>
      <point x="612" y="518" type="line" smooth="yes"/>
      <point x="575" y="724" type="line" smooth="yes"/>
      <point x="382" y="792" type="line" smooth="yes"/>
      <point x="162" y="704" type="line" smooth="yes"/>
      <point x="55" y="413" type="line" smooth="yes"/>
      <point x="49" y="367" type="line" smooth="yes"/>
      <point x="87" y="77" type="line" smooth="yes"/>
    </contour>
    <contour>
      <point x="553" y="840" type="line" smooth="yes"/>
      <point x="455" y="950" type="line" smooth="yes"/>
      <point x="357" y="950" type="line" smooth="yes"/>
      <point x="229" y="840" type="line" smooth="yes"/>
      <point x="327" y="840" type="line" smooth="yes"/>
      <point x="402" y="899" type="line" smooth="yes"/>
      <point x="459" y="840" type="line" smooth="yes"/>
    </contour>
  </outline>
</glyph>
<glyph name="gbreve" format="1">
  <advance width="550"/>
  <unicode hex="011F"/>
  <outline>
    <contour>
      <point x="365" y="187" type="line" smooth="yes"/>
      <point x="315" y="140" type="line" smooth="yes"/>
      <point x="229" y="116" type="line" smooth="yes"/>
      <point x="144" y="164" type="line" smooth="yes"/>
      <point x="131" y="276" type="line" smooth="yes"/>
      <point x="134" y="298" type="line" smooth="yes"/>
      <point x="180" y="406" type="line" smooth="yes"/>
      <point x="274" y="454" type="line" smooth="yes"/>
      <point x="353" y="428" type="line" smooth="yes"/>
      <point x="391" y="379" type="line" smooth="yes"/>
    </contour>
    <contour>
      <point x="341" y="-3" type="line" smooth="yes"/>
      <point x="304" y="-96" type="line" smooth="yes"/>
      <point x="200" y="-128" type="line" smooth="yes"/>
      <point x="116" y="-96" type="line" smooth="yes"/>
      <point x="98" y="0" type="line" smooth="yes"/>
      <point x="4" y="0" type="line" smooth="yes"/>
      <point x="3" y="-7" type="line" smooth="yes"/>
      <point x="34" y="-147" type="line" smooth="yes"/>
      <point x="200" y="-212" type="line" smooth="yes"/>
      <point x="370" y="-160" type="line" smooth="yes"/>
      <point x="440" y="-8" type="line" smooth="yes"/>
      <point x="492" y="385" type="line" smooth="yes"/>
      <point x="518" y="530" type="line" smooth="yes"/>
      <point x="431" y="530" type="line" smooth="yes"/>
      <point x="412" y="461" type="line" smooth="yes"/>
      <point x="359" y="519" type="line" smooth="yes"/>
      <point x="269" y="542" type="line" smooth="yes"/>
      <point x="105" y="471" type="line" smooth="yes"/>
      <point x="33" y="298" type="line" smooth="yes"/>
      <point x="30" y="276" type="line" smooth="yes"/>
      <point x="55" y="106" type="line" smooth="yes"/>
      <point x="209" y="28" type="line" smooth="yes"/>
      <point x="297" y="49" type="line" smooth="yes"/>
      <point x="352" y="90" type="line" smooth="yes"/>
    </contour>
    <contour>
      <point x="305" y="595" type="line" smooth="yes"/>
      <point x="440" y="645" type="line" smooth="yes"/>
      <point x="493" y="780" type="line" smooth="yes"/>
      <point x="414" y="780" type="line" smooth="yes"/>
      <point x="382" y="702" type="line" smooth="yes"/>
      <point x="305" y="675" type="line" smooth="yes"/>
      <point x="240" y="703" type="line" smooth="yes"/>
      <point x="228" y="780" type="line" smooth="yes"/>
      <point x="153" y="780" type="line" smooth="yes"/>
      <point x="177" y="647" type="line" smooth="yes"/>
    </contour>
  </outline>
</glyph>
<glyph name="Gdotaccent" format="1">
  <advance width="649"/>
  <unicode hex="0120"/>
  <outline>
    <contour>
      <point x="302" y="-12" type="line" smooth="yes"/>
      <point x="453" y="15" type="line" smooth="yes"/>
      <point x="554" y="79" type="line" smooth="yes"/>
      <point x="596" y="398" type="line" smooth="yes"/>
      <point x="369" y="398" type="line" smooth="yes"/>
      <point x="357" y="306" type="line" smooth="yes"/>
      <point x="480" y="306" type="line" smooth="yes"/>
      <point x="456" y="125" type="line" smooth="yes"/>
      <point x="391" y="93" type="line" smooth="yes"/>
      <point x="306" y="80" type="line" smooth="yes"/>
      <point x="298" y="80" type="line" smooth="yes"/>
      <point x="171" y="149" type="line" smooth="yes"/>
      <point x="155" y="367" type="line" smooth="yes"/>
      <point x="161" y="413" type="line" smooth="yes"/>
      <point x="234" y="631" type="line" smooth="yes"/>
      <point x="378" y="700" type="line" smooth="yes"/>
      <point x="386" y="700" type="line" smooth="yes"/>
      <point x="492" y="649" type="line" smooth="yes"/>
      <point x="503" y="491" type="line" smooth="yes"/>
      <point x="608" y="491" type="line" smooth="yes"/>
      <point x="612" y="518" type="line" smooth="yes"/>
      <point x="575" y="724" type="line" smooth="yes"/>
      <point x="382" y="792" type="line" smooth="yes"/>
      <point x="162" y="704" type="line" smooth="yes"/>
      <point x="55" y="413" type="line" smooth="yes"/>
      <point x="49" y="367" type="line" smooth="yes"/>
      <point x="87" y="77" type="line" smooth="yes"/>
    </contour>
    <contour>
      <point x="455" y="936" type="line" smooth="yes"/>
      <point x="355" y="936" type="line" smooth="yes"/>
      <point x="344" y="854" type="line" smooth="yes"/>
      <point x="444" y="854" type="line" smooth="yes"/>
    </contour>
  </outline>
</glyph>
<glyph name="Gcommaaccent" format="1">
  <advance width="649"/>
  <unicode hex="0122"/>
  <outline>
    <contour>
      <point x="302" y="-12" type="line" smooth="yes"/>
      <point x="453" y="15" type="line" smooth="yes"/>
      <point x="554" y="79" type="line" smooth="yes"/>
      <point x="596" y="398" type="line" smooth="yes"/>
      <point x="369" y="398" type="line" smooth="yes"/>
      <point x="357" y="306" type="line" smooth="yes"/>
      <point x="480" y="306" type="line" smooth="yes"/>
      <point x="456" y="125" type="line" smooth="yes"/>
      <point x="391" y="93" type="line" smooth="yes"/>
      <point x="306" y="80" type="line" smooth="yes"/>
      <point x="298" y="80" type="line" smooth="yes"/>
      <point x="171" y="149" type="line" smooth="yes"/>
      <point x="155" y="367" type="line" smooth="yes"/>
      <point x="161" y="413" type="line" smooth="yes"/>
      <point x="234" y="631" type="line" smooth="yes"/>
      <point x="378" y="700" type="line" smooth="yes"/>
      <point x="386" y="700" type="line" smooth="yes"/>
      <point x="492" y="649" type="line" smooth="yes"/>
      <point x="503" y="491" type="line" smooth="yes"/>
      <point x="608" y="491" type="line" smooth="yes"/>
      <point x="612" y="518" type="line" smooth="yes"/>
      <point x="575" y="724" type="line" smooth="yes"/>
      <point x="382" y="792" type="line" smooth="yes"/>
      <point x="162" y="704" type="line" smooth="yes"/>
      <point x="55" y="413" type="line" smooth="yes"/>
      <point x="49" y="367" type="line" smooth="yes"/>
      <point x="87" y="77" type="line" smooth="yes"/>
    </contour>
    <contour>
      <point x="340" y="-51" type="line" smooth="yes"/>
      <point x="237" y="-51" type="line" smooth="yes"/>
      <point x="227" y="-129" type="line" smooth="yes"/>
      <point x="280" y="-129" type="line" smooth="yes"/>
      <point x="254" y="-162" type="line" smooth="yes"/>
      <point x="204" y="-172" type="line" smooth="yes"/>
      <point x="198" y="-219" type="line" smooth="yes"/>
      <point x="291" y="-191" type="line" smooth="yes"/>
      <point x="333" y="-105" type="line" smooth="yes"/>
    </contour>
  </outline>
</glyph>
<glyph name="gcommaaccent" format="1">
  <advance width="550"/>
  <unicode hex="0123"/>
  <outline>
    <contour>
      <point x="246" y="607" type="line" smooth="yes"/>
      <point x="349" y="607" type="line" smooth="yes"/>
      <point x="361" y="692" type="line" smooth="yes"/>
      <point x="308" y="692" type="line" smooth="yes"/>
      <point x="335" y="730" type="line" smooth="yes"/>
      <point x="386" y="745" type="line" smooth="yes"/>
      <point x="392" y="792" type="line" smooth="yes"/>
      <point x="298" y="759" type="line" smooth="yes"/>
      <point x="255" y="668" type="line" smooth="yes"/>
    </contour>
    <contour>
      <point x="365" y="187" type="line" smooth="yes"/>
      <point x="315" y="140" type="line" smooth="yes"/>
      <point x="229" y="116" type="line" smooth="yes"/>
      <point x="144" y="164" type="line" smooth="yes"/>
      <point x="131" y="276" type="line" smooth="yes"/>
      <point x="134" y="298" type="line" smooth="yes"/>
      <point x="180" y="406" type="line" smooth="yes"/>
      <point x="274" y="454" type="line" smooth="yes"/>
      <point x="353" y="428" type="line" smooth="yes"/>
      <point x="391" y="379" type="line" smooth="yes"/>
    </contour>
    <contour>
      <point x="341" y="-3" type="line" smooth="yes"/>
      <point x="304" y="-96" type="line" smooth="yes"/>
      <point x="200" y="-128" type="line" smooth="yes"/>
      <point x="116" y="-96" type="line" smooth="yes"/>
      <point x="98" y="0" type="line" smooth="yes"/>
      <point x="4" y="0" type="line" smooth="yes"/>
      <point x="3" y="-7" type="line" smooth="yes"/>
      <point x="34" y="-147" type="line" smooth="yes"/>
      <point x="200" y="-212" type="line" smooth="yes"/>
      <point x="370" y="-160" type="line" smooth="yes"/>
      <point x="440" y="-8" type="line" smooth="yes"/>
      <point x="492" y="385" type="line" smooth="yes"/>
      <point x="518" y="530" type="line" smooth="yes"/>
      <point x="431" y="530" type="line" smooth="yes"/>
      <point x="412" y="461" type="line" smooth="yes"/>
      <point x="359" y="519" type="line" smooth="yes"/>
      <point x="269" y="542" type="line" smooth="yes"/>
      <point x="105" y="471" type="line" smooth="yes"/>
      <point x="33" y="298" type="line" smooth="yes"/>
      <point x="30" y="276" type="line" smooth="yes"/>
      <point x="55" y="106" type="line" smooth="yes"/>
      <point x="209" y="28" type="line" smooth="yes"/>
      <point x="297" y="49" type="line" smooth="yes"/>
      <point x="352" y="90" type="line" smooth="yes"/>
    </contour>
  </outline>
</glyph>
<glyph name="Itilde" format="1">
  <advance width="248"/>
  <unicode hex="0128"/>
  <outline>
    <contour>
      <point x="229" y="780" type="line" smooth="yes"/>
      <point x="125" y="780" type="line" smooth="yes"/>
      <point x="23" y="0" type="line" smooth="yes"/>
      <point x="127" y="0" type="line" smooth="yes"/>
    </contour>
    <contour>
      <point x="299" y="940" type="line" smooth="yes"/>
      <point x="284" y="910" type="line" smooth="yes"/>
      <point x="260" y="901" type="line" smooth="yes"/>
      <point x="200" y="927" type="line" smooth="yes"/>
      <point x="124" y="952" type="line" smooth="yes"/>
      <point x="59" y="928" type="line" smooth="yes"/>
      <point x="23" y="850" type="line" smooth="yes"/>
      <point x="85" y="850" type="line" smooth="yes"/>
      <point x="100" y="880" type="line" smooth="yes"/>
      <point x="124" y="889" type="line" smooth="yes"/>
      <point x="185" y="864" type="line" smooth="yes"/>
      <point x="260" y="838" type="line" smooth="yes"/>
      <point x="326" y="862" type="line" smooth="yes"/>
      <point x="361" y="940" type="line" smooth="yes"/>
    </contour>
  </outline>
</glyph>
<glyph name="itilde" format="1">
  <advance width="234"/>
  <unicode hex="0129"/>
  <outline>
    <contour>
      <point x="18" y="0" type="line" smooth="yes"/>
      <point x="118" y="0" type="line" smooth="yes"/>
      <point x="187" y="530" type="line" smooth="yes"/>
      <point x="87" y="530" type="line" smooth="yes"/>
    </contour>
    <contour>
      <point x="268" y="755" type="line" smooth="yes"/>
      <point x="253" y="723" type="line" smooth="yes"/>
      <point x="227" y="714" type="line" smooth="yes"/>
      <point x="167" y="741" type="line" smooth="yes"/>
      <point x="88" y="768" type="line" smooth="yes"/>
      <point x="14" y="737" type="line" smooth="yes"/>
      <point x="-20" y="645" type="line" smooth="yes"/>
      <point x="51" y="645" type="line" smooth="yes"/>
      <point x="66" y="678" type="line" smooth="yes"/>
      <point x="92" y="686" type="line" smooth="yes"/>
      <point x="152" y="659" type="line" smooth="yes"/>
      <point x="231" y="632" type="line" smooth="yes"/>
      <point x="305" y="663" type="line" smooth="yes"/>
      <point x="339" y="755" type="line" smooth="yes"/>
    </contour>
  </outline>
</glyph>
<glyph name="Ibreve" format="1">
  <advance width="248"/>
  <unicode hex="012C"/>
  <outline>
    <contour>
      <point x="229" y="780" type="line" smooth="yes"/>
      <point x="125" y="780" type="line" smooth="yes"/>
      <point x="23" y="0" type="line" smooth="yes"/>
      <point x="127" y="0" type="line" smooth="yes"/>
    </contour>
    <contour>
      <point x="187" y="827" type="line" smooth="yes"/>
      <point x="312" y="863" type="line" smooth="yes"/>
      <point x="359" y="950" type="line" smooth="yes"/>
      <point x="282" y="950" type="line" smooth="yes"/>
      <point x="257" y="905" type="line" smooth="yes"/>
      <point x="189" y="890" type="line" smooth="yes"/>
      <point x="128" y="906" type="line" smooth="yes"/>
      <point x="114" y="950" type="line" smooth="yes"/>
      <point x="41" y="950" type="line" smooth="yes"/>
      <point x="65" y="863" type="line" smooth="yes"/>
    </contour>
  </outline>
</glyph>
<glyph name="Idotaccent" format="1">
  <advance width="248"/>
  <unicode hex="0130"/>
  <outline>
    <contour>
      <point x="229" y="780" type="line" smooth="yes"/>
      <point x="125" y="780" type="line" smooth="yes"/>
      <point x="23" y="0" type="line" smooth="yes"/>
      <point x="127" y="0" type="line" smooth="yes"/>
    </contour>
    <contour>
      <point x="249" y="936" type="line" smooth="yes"/>
      <point x="149" y="936" type="line" smooth="yes"/>
      <point x="138" y="854" type="line" smooth="yes"/>
      <point x="238" y="854" type="line" smooth="yes"/>
    </contour>
  </outline>
</glyph>
<glyph name="Lcommaaccent" format="1">
  <advance width="501"/>
  <unicode hex="013B"/>
  <outline>
    <contour>
      <point x="273" y="-51" type="line" smooth="yes"/>
      <point x="170" y="-51" type="line" smooth="yes"/>
      <point x="160" y="-129" type="line" smooth="yes"/>
      <point x="213" y="-129" type="line" smooth="yes"/>
      <point x="187" y="-162" type="line" smooth="yes"/>
      <point x="137" y="-172" type="line" smooth="yes"/>
      <point x="131" y="-219" type="line" smooth="yes"/>
      <point x="224" y="-191" type="line" smooth="yes"/>
      <point x="266" y="-105" type="line" smooth="yes"/>
    </contour>
    <contour>
      <point x="437" y="0" type="line" smooth="yes"/>
      <point x="449" y="92" type="line" smooth="yes"/>
      <point x="134" y="92" type="line" smooth="yes"/>
      <point x="224" y="780" type="line" smooth="yes"/>
      <point x="120" y="780" type="line" smooth="yes"/>
      <point x="18" y="0" type="line" smooth="yes"/>
    </contour>
  </outline>
</glyph>
<glyph name="lcommaaccent" format="1">
  <advance width="234"/>
  <unicode hex="013C"/>
  <outline>
    <contour>
      <point x="113" y="-51" type="line" smooth="yes"/>
      <point x="10" y="-51" type="line" smooth="yes"/>
      <point x="0" y="-129" type="line" smooth="yes"/>
      <point x="53" y="-129" type="line" smooth="yes"/>
      <point x="27" y="-162" type="line" smooth="yes"/>
      <point x="-23" y="-172" type="line" smooth="yes"/>
      <point x="-29" y="-219" type="line" smooth="yes"/>
      <point x="64" y="-191" type="line" smooth="yes"/>
      <point x="106" y="-105" type="line" smooth="yes"/>
    </contour>
    <contour>
      <point x="18" y="0" type="line" smooth="yes"/>
      <point x="118" y="0" type="line" smooth="yes"/>
      <point x="223" y="800" type="line" smooth="yes"/>
      <point x="123" y="800" type="line" smooth="yes"/>
    </contour>
  </outline>
</glyph>
<glyph name="Lcaron" format="1">
  <advance width="501"/>
  <unicode hex="013D"/>
  <outline>
    <contour>
      <point x="437" y="0" type="line" smooth="yes"/>
      <point x="449" y="92" type="line" smooth="yes"/>
      <point x="134" y="92" type="line" smooth="yes"/>
      <point x="224" y="780" type="line" smooth="yes"/>
      <point x="120" y="780" type="line" smooth="yes"/>
      <point x="18" y="0" type="line" smooth="yes"/>
    </contour>
    <contour>
      <point x="362" y="800" type="line" smooth="yes"/>
      <point x="336" y="607" type="line" smooth="yes"/>
      <point x="388" y="607" type="line" smooth="yes"/>
      <point x="433" y="800" type="line" smooth="yes"/>
    </contour>
  </outline>
</glyph>
<glyph name="ncommaaccent" format="1">
  <advance width="543"/>
  <unicode hex="0146"/>
  <outline>
    <contour>
      <point x="440" y="0" type="line" smooth="yes"/>
      <point x="488" y="365" type="line" smooth="yes"/>
      <point x="461" y="489" type="line" smooth="yes"/>
      <point x="340" y="542" type="line" smooth="yes"/>
      <point x="235" y="519" type="line" smooth="yes"/>
      <point x="161" y="459" type="line" smooth="yes"/>
      <point x="161" y="530" type="line" smooth="yes"/>
      <point x="75" y="530" type="line" smooth="yes"/>
      <point x="63" y="380" type="line" smooth="yes"/>
      <point x="13" y="0" type="line" smooth="yes"/>
      <point x="113" y="0" type="line" smooth="yes"/>
      <point x="163" y="381" type="line" smooth="yes"/>
      <point x="213" y="428" type="line" smooth="yes"/>
      <point x="298" y="454" type="line" smooth="yes"/>
      <point x="371" y="425" type="line" smooth="yes"/>
      <point x="386" y="350" type="line" smooth="yes"/>
      <point x="340" y="0" type="line" smooth="yes"/>
    </contour>
    <contour>
      <point x="271" y="-51" type="line" smooth="yes"/>
      <point x="168" y="-51" type="line" smooth="yes"/>
      <point x="158" y="-129" type="line" smooth="yes"/>
      <point x="211" y="-129" type="line" smooth="yes"/>
      <point x="185" y="-162" type="line" smooth="yes"/>
      <point x="135" y="-172" type="line" smooth="yes"/>
      <point x="129" y="-219" type="line" smooth="yes"/>
      <point x="222" y="-191" type="line" smooth="yes"/>
      <point x="264" y="-105" type="line" smooth="yes"/>
    </contour>
  </outline>
</glyph>
<glyph name="Eng" format="1">
  <advance width="667"/>
  <unicode hex="014A"/>
  <outline>
    <contour>
      <point x="446" y="-30" type="line" smooth="yes"/>
      <point x="412" y="-105" type="line" smooth="yes"/>
      <point x="344" y="-122" type="line" smooth="yes"/>
      <point x="309" y="-119" type="line" smooth="yes"/>
      <point x="286" y="-114" type="line" smooth="yes"/>
      <point x="275" y="-200" type="line" smooth="yes"/>
      <point x="298" y="-207" type="line" smooth="yes"/>
      <point x="351" y="-212" type="line" smooth="yes"/>
      <point x="480" y="-175" type="line" smooth="yes"/>
      <point x="546" y="-39" type="line" smooth="yes"/>
      <point x="653" y="780" type="line" smooth="yes"/>
      <point x="552" y="780" type="line" smooth="yes"/>
      <point x="497" y="357" type="line" smooth="yes"/>
      <point x="478" y="184" type="line" smooth="yes"/>
      <point x="229" y="780" type="line" smooth="yes"/>
      <point x="120" y="780" type="line" smooth="yes"/>
      <point x="18" y="0" type="line" smooth="yes"/>
      <point x="119" y="0" type="line" smooth="yes"/>
      <point x="174" y="423" type="line" smooth="yes"/>
      <point x="193" y="596" type="line" smooth="yes"/>
      <point x="448" y="-14" type="line" smooth="yes"/>
    </contour>
  </outline>
</glyph>
<glyph name="eng" format="1">
  <advance width="543"/>
  <unicode hex="014B"/>
  <outline>
    <contour>
      <point x="488" y="365" type="line" smooth="yes"/>
      <point x="461" y="489" type="line" smooth="yes"/>
      <point x="340" y="542" type="line" smooth="yes"/>
      <point x="235" y="519" type="line" smooth="yes"/>
      <point x="161" y="459" type="line" smooth="yes"/>
      <point x="161" y="530" type="line" smooth="yes"/>
      <point x="75" y="530" type="line" smooth="yes"/>
      <point x="63" y="380" type="line" smooth="yes"/>
      <point x="13" y="0" type="line" smooth="yes"/>
      <point x="113" y="0" type="line" smooth="yes"/>
      <point x="163" y="381" type="line" smooth="yes"/>
      <point x="213" y="428" type="line" smooth="yes"/>
      <point x="298" y="454" type="line" smooth="yes"/>
      <point x="371" y="425" type="line" smooth="yes"/>
      <point x="386" y="350" type="line" smooth="yes"/>
      <point x="336" y="-31" type="line" smooth="yes"/>
      <point x="302" y="-106" type="line" smooth="yes"/>
      <point x="235" y="-124" type="line" smooth="yes"/>
      <point x="200" y="-121" type="line" smooth="yes"/>
      <point x="177" y="-116" type="line" smooth="yes"/>
      <point x="166" y="-200" type="line" smooth="yes"/>
      <point x="188" y="-207" type="line" smooth="yes"/>
      <point x="240" y="-212" type="line" smooth="yes"/>
      <point x="369" y="-175" type="line" smooth="yes"/>
      <point x="435" y="-39" type="line" smooth="yes"/>
    </contour>
  </outline>
</glyph>
<glyph name="omacron" format="1">
  <advance width="544"/>
  <unicode hex="014D"/>
  <outline>
    <contour>
      <point x="286" y="542" type="line" smooth="yes"/>
      <point x="107" y="467" type="line" smooth="yes"/>
      <point x="29" y="278" type="line" smooth="yes"/>
      <point x="26" y="256" type="line" smooth="yes"/>
      <point x="61" y="66" type="line" smooth="yes"/>
      <point x="234" y="-12" type="line" smooth="yes"/>
      <point x="414" y="63" type="line" smooth="yes"/>
      <point x="491" y="252" type="line" smooth="yes"/>
      <point x="494" y="274" type="line" smooth="yes"/>
      <point x="459" y="464" type="line" smooth="yes"/>
    </contour>
    <contour>
      <point x="236" y="76" type="line" smooth="yes"/>
      <point x="141" y="125" type="line" smooth="yes"/>
      <point x="127" y="256" type="line" smooth="yes"/>
      <point x="130" y="278" type="line" smooth="yes"/>
      <point x="180" y="407" type="line" smooth="yes"/>
      <point x="284" y="454" type="line" smooth="yes"/>
      <point x="379" y="405" type="line" smooth="yes"/>
      <point x="393" y="274" type="line" smooth="yes"/>
      <point x="390" y="252" type="line" smooth="yes"/>
      <point x="340" y="123" type="line" smooth="yes"/>
    </contour>
    <contour>
      <point x="182" y="652" type="line" smooth="yes"/>
      <point x="439" y="652" type="line" smooth="yes"/>
      <point x="451" y="742" type="line" smooth="yes"/>
      <point x="194" y="742" type="line" smooth="yes"/>
    </contour>
  </outline>
</glyph>
<glyph name="obreve" format="1">
  <advance width="547"/>
  <unicode hex="014F"/>
  <outline>
    <contour>
      <point x="286" y="542" type="line" smooth="yes"/>
      <point x="107" y="467" type="line" smooth="yes"/>
      <point x="29" y="278" type="line" smooth="yes"/>
      <point x="26" y="256" type="line" smooth="yes"/>
      <point x="61" y="66" type="line" smooth="yes"/>
      <point x="234" y="-12" type="line" smooth="yes"/>
      <point x="414" y="63" type="line" smooth="yes"/>
      <point x="491" y="252" type="line" smooth="yes"/>
      <point x="494" y="274" type="line" smooth="yes"/>
      <point x="459" y="464" type="line" smooth="yes"/>
    </contour>
    <contour>
      <point x="236" y="76" type="line" smooth="yes"/>
      <point x="141" y="125" type="line" smooth="yes"/>
      <point x="127" y="256" type="line" smooth="yes"/>
      <point x="130" y="278" type="line" smooth="yes"/>
      <point x="180" y="407" type="line" smooth="yes"/>
      <point x="284" y="454" type="line" smooth="yes"/>
      <point x="379" y="405" type="line" smooth="yes"/>
      <point x="393" y="274" type="line" smooth="yes"/>
      <point x="390" y="252" type="line" smooth="yes"/>
      <point x="340" y="123" type="line" smooth="yes"/>
    </contour>
    <contour>
      <point x="309" y="595" type="line" smooth="yes"/>
      <point x="444" y="645" type="line" smooth="yes"/>
      <point x="497" y="780" type="line" smooth="yes"/>
      <point x="418" y="780" type="line" smooth="yes"/>
      <point x="386" y="702" type="line" smooth="yes"/>
      <point x="309" y="675" type="line" smooth="yes"/>
      <point x="244" y="703" type="line" smooth="yes"/>
      <point x="232" y="780" type="line" smooth="yes"/>
      <point x="157" y="780" type="line" smooth="yes"/>
      <point x="181" y="647" type="line" smooth="yes"/>
    </contour>
  </outline>
</glyph>
<glyph name="oe" format="1">
  <advance width="907"/>
  <unicode hex="0153"/>
  <outline>
    <contour>
      <point x="647" y="460" type="line" smooth="yes"/>
      <point x="740" y="419" type="line" smooth="yes"/>
      <point x="757" y="303" type="line" smooth="yes"/>
      <point x="495" y="303" type="line" smooth="yes"/>
      <point x="546" y="418" type="line" smooth="yes"/>
    </contour>
    <contour>
      <point x="236" y="76" type="line" smooth="yes"/>
      <point x="141" y="125" type="line" smooth="yes"/>
      <point x="127" y="256" type="line" smooth="yes"/>
      <point x="130" y="278" type="line" smooth="yes"/>
      <point x="180" y="407" type="line" smooth="yes"/>
      <point x="284" y="454" type="line" smooth="yes"/>
      <point x="379" y="405" type="line" smooth="yes"/>
      <point x="393" y="274" type="line" smooth="yes"/>
      <point x="390" y="252" type="line" smooth="yes"/>
      <point x="340" y="123" type="line" smooth="yes"/>
    </contour>
    <contour>
      <point x="848" y="227" type="line" smooth="yes"/>
      <point x="854" y="271" type="line" smooth="yes"/>
      <point x="821" y="465" type="line" smooth="yes"/>
      <point x="649" y="542" type="line" smooth="yes"/>
      <point x="534" y="515" type="line" smooth="yes"/>
      <point x="460" y="440" type="line" smooth="yes"/>
      <point x="399" y="514" type="line" smooth="yes"/>
      <point x="286" y="542" type="line" smooth="yes"/>
      <point x="107" y="467" type="line" smooth="yes"/>
      <point x="29" y="278" type="line" smooth="yes"/>
      <point x="26" y="256" type="line" smooth="yes"/>
      <point x="61" y="66" type="line" smooth="yes"/>
      <point x="234" y="-12" type="line" smooth="yes"/>
      <point x="347" y="15" type="line" smooth="yes"/>
      <point x="420" y="89" type="line" smooth="yes"/>
      <point x="485" y="15" type="line" smooth="yes"/>
      <point x="607" y="-12" type="line" smooth="yes"/>
      <point x="772" y="41" type="line" smooth="yes"/>
      <point x="839" y="163" type="line" smooth="yes"/>
      <point x="840" y="170" type="line" smooth="yes"/>
      <point x="744" y="170" type="line" smooth="yes"/>
      <point x="708" y="100" type="line" smooth="yes"/>
      <point x="609" y="70" type="line" smooth="yes"/>
      <point x="508" y="111" type="line" smooth="yes"/>
      <point x="485" y="227" type="line" smooth="yes"/>
    </contour>
  </outline>
</glyph>
<glyph name="racute" format="1">
  <advance width="350"/>
  <unicode hex="0155"/>
  <outline>
    <contour>
      <point x="319" y="542" type="line" smooth="yes"/>
      <point x="226" y="519" type="line" smooth="yes"/>
      <point x="161" y="459" type="line" smooth="yes"/>
      <point x="161" y="530" type="line" smooth="yes"/>
      <point x="75" y="530" type="line" smooth="yes"/>
      <point x="63" y="380" type="line" smooth="yes"/>
      <point x="13" y="0" type="line" smooth="yes"/>
      <point x="113" y="0" type="line" smooth="yes"/>
      <point x="162" y="373" type="line" smooth="yes"/>
      <point x="217" y="419" type="line" smooth="yes"/>
      <point x="302" y="441" type="line" smooth="yes"/>
      <point x="321" y="441" type="line" smooth="yes"/>
      <point x="334" y="541" type="line" smooth="yes"/>
      <point x="329" y="542" type="line" smooth="yes"/>
    </contour>
    <contour>
      <point x="280" y="780" type="line" smooth="yes"/>
      <point x="166" y="607" type="line" smooth="yes"/>
      <point x="268" y="607" type="line" smooth="yes"/>
      <point x="390" y="780" type="line" smooth="yes"/>
    </contour>
  </outline>
</glyph>
<glyph name="rcommaaccent" format="1">
  <advance width="350"/>
  <unicode hex="0157"/>
  <outline>
    <contour>
      <point x="319" y="542" type="line" smooth="yes"/>
      <point x="226" y="519" type="line" smooth="yes"/>
      <point x="161" y="459" type="line" smooth="yes"/>
      <point x="161" y="530" type="line" smooth="yes"/>
      <point x="75" y="530" type="line" smooth="yes"/>
      <point x="63" y="380" type="line" smooth="yes"/>
      <point x="13" y="0" type="line" smooth="yes"/>
      <point x="113" y="0" type="line" smooth="yes"/>
      <point x="162" y="373" type="line" smooth="yes"/>
      <point x="217" y="419" type="line" smooth="yes"/>
      <point x="302" y="441" type="line" smooth="yes"/>
      <point x="321" y="441" type="line" smooth="yes"/>
      <point x="334" y="541" type="line" smooth="yes"/>
      <point x="329" y="542" type="line" smooth="yes"/>
    </contour>
    <contour>
      <point x="109" y="-51" type="line" smooth="yes"/>
      <point x="6" y="-51" type="line" smooth="yes"/>
      <point x="-4" y="-129" type="line" smooth="yes"/>
      <point x="49" y="-129" type="line" smooth="yes"/>
      <point x="23" y="-162" type="line" smooth="yes"/>
      <point x="-27" y="-172" type="line" smooth="yes"/>
      <point x="-33" y="-219" type="line" smooth="yes"/>
      <point x="60" y="-191" type="line" smooth="yes"/>
      <point x="102" y="-105" type="line" smooth="yes"/>
    </contour>
  </outline>
</glyph>
<glyph name="scircumflex" format="1">
  <advance width="524"/>
  <unicode hex="015D"/>
  <outline>
    <contour>
      <point x="226" y="68" type="line" smooth="yes"/>
      <point x="138" y="95" type="line" smooth="yes"/>
      <point x="121" y="164" type="line" smooth="yes"/>
      <point x="23" y="164" type="line" smooth="yes"/>
      <point x="22" y="157" type="line" smooth="yes"/>
      <point x="56" y="37" type="line" smooth="yes"/>
      <point x="222" y="-12" type="line" smooth="yes"/>
      <point x="377" y="30" type="line" smooth="yes"/>
      <point x="443" y="138" type="line" smooth="yes"/>
      <point x="444" y="146" type="line" smooth="yes"/>
      <point x="405" y="260" type="line" smooth="yes"/>
      <point x="267" y="309" type="line" smooth="yes"/>
      <point x="180" y="332" type="line" smooth="yes"/>
      <point x="156" y="378" type="line" smooth="yes"/>
      <point x="195" y="444" type="line" smooth="yes"/>
      <point x="272" y="462" type="line" smooth="yes"/>
      <point x="355" y="434" type="line" smooth="yes"/>
      <point x="370" y="358" type="line" smooth="yes"/>
      <point x="466" y="358" type="line" smooth="yes"/>
      <point x="467" y="365" type="line" smooth="yes"/>
      <point x="434" y="494" type="line" smooth="yes"/>
      <point x="272" y="542" type="line" smooth="yes"/>
      <point x="126" y="503" type="line" smooth="yes"/>
      <point x="58" y="395" type="line" smooth="yes"/>
      <point x="57" y="387" type="line" smooth="yes"/>
      <point x="91" y="282" type="line" smooth="yes"/>
      <point x="233" y="231" type="line" smooth="yes"/>
      <point x="318" y="208" type="line" smooth="yes"/>
      <point x="343" y="155" type="line" smooth="yes"/>
      <point x="309" y="88" type="line" smooth="yes"/>
    </contour>
    <contour>
      <point x="209" y="607" type="line" smooth="yes"/>
      <point x="308" y="708" type="line" smooth="yes"/>
      <point x="379" y="607" type="line" smooth="yes"/>
      <point x="471" y="607" type="line" smooth="yes"/>
      <point x="362" y="780" type="line" smooth="yes"/>
      <point x="268" y="780" type="line" smooth="yes"/>
      <point x="113" y="607" type="line" smooth="yes"/>
    </contour>
  </outline>
</glyph>
<glyph name="Scedilla" format="1">
  <advance width="607"/>
  <unicode hex="015E"/>
  <outline>
    <contour>
      <point x="283" y="355" type="line" smooth="yes"/>
      <point x="413" y="305" type="line" smooth="yes"/>
      <point x="442" y="210" type="line" smooth="yes"/>
      <point x="441" y="202" type="line" smooth="yes"/>
      <point x="389" y="111" type="line" smooth="yes"/>
      <point x="274" y="80" type="line" smooth="yes"/>
      <point x="264" y="80" type="line" smooth="yes"/>
      <point x="154" y="119" type="line" smooth="yes"/>
      <point x="130" y="259" type="line" smooth="yes"/>
      <point x="26" y="259" type="line" smooth="yes"/>
      <point x="22" y="232" type="line" smooth="yes"/>
      <point x="59" y="62" type="line" smooth="yes"/>
      <point x="223" y="-10" type="line" smooth="yes"/>
      <point x="188" y="-77" type="line" smooth="yes"/>
      <point x="202" y="-102" type="line" smooth="yes"/>
      <point x="212" y="-101" type="line" smooth="yes"/>
      <point x="234" y="-99" type="line" smooth="yes"/>
      <point x="274" y="-105" type="line" smooth="yes"/>
      <point x="288" y="-125" type="line" smooth="yes"/>
      <point x="274" y="-148" type="line" smooth="yes"/>
      <point x="236" y="-155" type="line" smooth="yes"/>
      <point x="193" y="-150" type="line" smooth="yes"/>
      <point x="162" y="-136" type="line" smooth="yes"/>
      <point x="137" y="-188" type="line" smooth="yes"/>
      <point x="176" y="-205" type="line" smooth="yes"/>
      <point x="236" y="-213" type="line" smooth="yes"/>
      <point x="319" y="-191" type="line" smooth="yes"/>
      <point x="352" y="-125" type="line" smooth="yes"/>
      <point x="324" y="-68" type="line" smooth="yes"/>
      <point x="260" y="-50" type="line" smooth="yes"/>
      <point x="280" y="-12" type="line" smooth="yes"/>
      <point x="462" y="42" type="line" smooth="yes"/>
      <point x="546" y="196" type="line" smooth="yes"/>
      <point x="549" y="218" type="line" smooth="yes"/>
      <point x="510" y="363" type="line" smooth="yes"/>
      <point x="335" y="440" type="line" smooth="yes"/>
      <point x="207" y="490" type="line" smooth="yes"/>
      <point x="182" y="578" type="line" smooth="yes"/>
      <point x="183" y="586" type="line" smooth="yes"/>
      <point x="231" y="669" type="line" smooth="yes"/>
      <point x="336" y="700" type="line" smooth="yes"/>
      <point x="346" y="700" type="line" smooth="yes"/>
      <point x="457" y="655" type="line" smooth="yes"/>
      <point x="476" y="511" type="line" smooth="yes"/>
      <point x="580" y="511" type="line" smooth="yes"/>
      <point x="584" y="538" type="line" smooth="yes"/>
      <point x="542" y="723" type="line" smooth="yes"/>
      <point x="341" y="792" type="line" smooth="yes"/>
      <point x="161" y="739" type="line" smooth="yes"/>
      <point x="78" y="592" type="line" smooth="yes"/>
      <point x="75" y="570" type="line" smooth="yes"/>
      <point x="112" y="433" type="line" smooth="yes"/>
    </contour>
  </outline>
</glyph>
<glyph name="scedilla" format="1">
  <advance width="521"/>
  <unicode hex="015F"/>
  <outline>
    <contour>
      <point x="226" y="68" type="line" smooth="yes"/>
      <point x="138" y="95" type="line" smooth="yes"/>
      <point x="121" y="164" type="line" smooth="yes"/>
      <point x="23" y="164" type="line" smooth="yes"/>
      <point x="22" y="157" type="line" smooth="yes"/>
      <point x="48" y="46" type="line" smooth="yes"/>
      <point x="178" y="-10" type="line" smooth="yes"/>
      <point x="144" y="-77" type="line" smooth="yes"/>
      <point x="158" y="-102" type="line" smooth="yes"/>
      <point x="168" y="-101" type="line" smooth="yes"/>
      <point x="190" y="-99" type="line" smooth="yes"/>
      <point x="230" y="-105" type="line" smooth="yes"/>
      <point x="244" y="-125" type="line" smooth="yes"/>
      <point x="230" y="-148" type="line" smooth="yes"/>
      <point x="192" y="-155" type="line" smooth="yes"/>
      <point x="149" y="-150" type="line" smooth="yes"/>
      <point x="118" y="-136" type="line" smooth="yes"/>
      <point x="93" y="-188" type="line" smooth="yes"/>
      <point x="132" y="-205" type="line" smooth="yes"/>
      <point x="192" y="-213" type="line" smooth="yes"/>
      <point x="275" y="-191" type="line" smooth="yes"/>
      <point x="308" y="-125" type="line" smooth="yes"/>
      <point x="280" y="-68" type="line" smooth="yes"/>
      <point x="216" y="-50" type="line" smooth="yes"/>
      <point x="236" y="-12" type="line" smooth="yes"/>
      <point x="381" y="33" type="line" smooth="yes"/>
      <point x="443" y="138" type="line" smooth="yes"/>
      <point x="444" y="146" type="line" smooth="yes"/>
      <point x="405" y="260" type="line" smooth="yes"/>
      <point x="267" y="309" type="line" smooth="yes"/>
      <point x="180" y="332" type="line" smooth="yes"/>
      <point x="156" y="378" type="line" smooth="yes"/>
      <point x="195" y="444" type="line" smooth="yes"/>
      <point x="272" y="462" type="line" smooth="yes"/>
      <point x="355" y="434" type="line" smooth="yes"/>
      <point x="370" y="358" type="line" smooth="yes"/>
      <point x="466" y="358" type="line" smooth="yes"/>
      <point x="467" y="365" type="line" smooth="yes"/>
      <point x="434" y="494" type="line" smooth="yes"/>
      <point x="272" y="542" type="line" smooth="yes"/>
      <point x="126" y="503" type="line" smooth="yes"/>
      <point x="58" y="395" type="line" smooth="yes"/>
      <point x="57" y="387" type="line" smooth="yes"/>
      <point x="91" y="282" type="line" smooth="yes"/>
      <point x="233" y="231" type="line" smooth="yes"/>
      <point x="318" y="208" type="line" smooth="yes"/>
      <point x="343" y="155" type="line" smooth="yes"/>
      <point x="309" y="88" type="line" smooth="yes"/>
    </contour>
  </outline>
</glyph>
<glyph name="tcaron" format="1">
  <advance width="411"/>
  <unicode hex="0165"/>
  <outline>
    <contour>
      <point x="333" y="800" type="line" smooth="yes"/>
      <point x="307" y="607" type="line" smooth="yes"/>
      <point x="359" y="607" type="line" smooth="yes"/>
      <point x="404" y="800" type="line" smooth="yes"/>
    </contour>
    <contour>
      <point x="231" y="530" type="line" smooth="yes"/>
      <point x="251" y="680" type="line" smooth="yes"/>
      <point x="151" y="680" type="line" smooth="yes"/>
      <point x="131" y="530" type="line" smooth="yes"/>
      <point x="47" y="530" type="line" smooth="yes"/>
      <point x="35" y="441" type="line" smooth="yes"/>
      <point x="119" y="441" type="line" smooth="yes"/>
      <point x="82" y="160" type="line" smooth="yes"/>
      <point x="110" y="29" type="line" smooth="yes"/>
      <point x="240" y="-12" type="line" smooth="yes"/>
      <point x="283" y="-8" type="line" smooth="yes"/>
      <point x="309" y="0" type="line" smooth="yes"/>
      <point x="320" y="83" type="line" smooth="yes"/>
      <point x="295" y="78" type="line" smooth="yes"/>
      <point x="255" y="76" type="line" smooth="yes"/>
      <point x="197" y="95" type="line" smooth="yes"/>
      <point x="183" y="169" type="line" smooth="yes"/>
      <point x="219" y="441" type="line" smooth="yes"/>
      <point x="376" y="441" type="line" smooth="yes"/>
      <point x="388" y="530" type="line" smooth="yes"/>
    </contour>
  </outline>
</glyph>
<glyph name="tbar" format="1">
  <advance width="411"/>
  <unicode hex="0167"/>
  <outline>
    <contour>
      <point x="317" y="303" type="line" smooth="yes"/>
      <point x="200" y="303" type="line" smooth="yes"/>
      <point x="219" y="441" type="line" smooth="yes"/>
      <point x="376" y="441" type="line" smooth="yes"/>
      <point x="388" y="530" type="line" smooth="yes"/>
      <point x="231" y="530" type="line" smooth="yes"/>
      <point x="251" y="680" type="line" smooth="yes"/>
      <point x="151" y="680" type="line" smooth="yes"/>
      <point x="131" y="530" type="line" smooth="yes"/>
      <point x="47" y="530" type="line" smooth="yes"/>
      <point x="35" y="441" type="line" smooth="yes"/>
      <point x="119" y="441" type="line" smooth="yes"/>
      <point x="101" y="303" type="line" smooth="yes"/>
      <point x="27" y="303" type="line" smooth="yes"/>
      <point x="17" y="227" type="line" smooth="yes"/>
      <point x="91" y="227" type="line" smooth="yes"/>
      <point x="82" y="160" type="line" smooth="yes"/>
      <point x="110" y="29" type="line" smooth="yes"/>
      <point x="240" y="-12" type="line" smooth="yes"/>
      <point x="283" y="-8" type="line" smooth="yes"/>
      <point x="309" y="0" type="line" smooth="yes"/>
      <point x="320" y="83" type="line" smooth="yes"/>
      <point x="295" y="78" type="line" smooth="yes"/>
      <point x="255" y="76" type="line" smooth="yes"/>
      <point x="197" y="95" type="line" smooth="yes"/>
      <point x="183" y="169" type="line" smooth="yes"/>
      <point x="190" y="227" type="line" smooth="yes"/>
      <point x="307" y="227" type="line" smooth="yes"/>
    </contour>
  </outline>
</glyph>
<glyph name="Utilde" format="1">
  <advance width="647"/>
  <unicode hex="0168"/>
  <outline>
    <contour>
      <point x="282" y="-12" type="line" smooth="yes"/>
      <point x="485" y="49" type="line" smooth="yes"/>
      <point x="567" y="243" type="line" smooth="yes"/>
      <point x="638" y="780" type="line" smooth="yes"/>
      <point x="534" y="780" type="line" smooth="yes"/>
      <point x="464" y="248" type="line" smooth="yes"/>
      <point x="409" y="118" type="line" smooth="yes"/>
      <point x="284" y="80" type="line" smooth="yes"/>
      <point x="170" y="118" type="line" smooth="yes"/>
      <point x="150" y="248" type="line" smooth="yes"/>
      <point x="219" y="780" type="line" smooth="yes"/>
      <point x="115" y="780" type="line" smooth="yes"/>
      <point x="45" y="243" type="line" smooth="yes"/>
      <point x="87" y="49" type="line" smooth="yes"/>
    </contour>
    <contour>
      <point x="499" y="940" type="line" smooth="yes"/>
      <point x="484" y="910" type="line" smooth="yes"/>
      <point x="460" y="901" type="line" smooth="yes"/>
      <point x="400" y="927" type="line" smooth="yes"/>
      <point x="324" y="952" type="line" smooth="yes"/>
      <point x="259" y="928" type="line" smooth="yes"/>
      <point x="223" y="850" type="line" smooth="yes"/>
      <point x="285" y="850" type="line" smooth="yes"/>
      <point x="300" y="880" type="line" smooth="yes"/>
      <point x="324" y="889" type="line" smooth="yes"/>
      <point x="385" y="864" type="line" smooth="yes"/>
      <point x="460" y="838" type="line" smooth="yes"/>
      <point x="526" y="862" type="line" smooth="yes"/>
      <point x="561" y="940" type="line" smooth="yes"/>
    </contour>
  </outline>
</glyph>
<glyph name="utilde" format="1">
  <advance width="545"/>
  <unicode hex="0169"/>
  <outline>
    <contour>
      <point x="76" y="530" type="line" smooth="yes"/>
      <point x="28" y="165" type="line" smooth="yes"/>
      <point x="55" y="41" type="line" smooth="yes"/>
      <point x="176" y="-12" type="line" smooth="yes"/>
      <point x="281" y="11" type="line" smooth="yes"/>
      <point x="355" y="71" type="line" smooth="yes"/>
      <point x="355" y="0" type="line" smooth="yes"/>
      <point x="441" y="0" type="line" smooth="yes"/>
      <point x="453" y="150" type="line" smooth="yes"/>
      <point x="503" y="530" type="line" smooth="yes"/>
      <point x="403" y="530" type="line" smooth="yes"/>
      <point x="353" y="149" type="line" smooth="yes"/>
      <point x="303" y="102" type="line" smooth="yes"/>
      <point x="218" y="76" type="line" smooth="yes"/>
      <point x="145" y="105" type="line" smooth="yes"/>
      <point x="130" y="180" type="line" smooth="yes"/>
      <point x="176" y="530" type="line" smooth="yes"/>
    </contour>
    <contour>
      <point x="421" y="755" type="line" smooth="yes"/>
      <point x="406" y="723" type="line" smooth="yes"/>
      <point x="380" y="714" type="line" smooth="yes"/>
      <point x="320" y="741" type="line" smooth="yes"/>
      <point x="241" y="768" type="line" smooth="yes"/>
      <point x="167" y="737" type="line" smooth="yes"/>
      <point x="133" y="645" type="line" smooth="yes"/>
      <point x="204" y="645" type="line" smooth="yes"/>
      <point x="219" y="678" type="line" smooth="yes"/>
      <point x="245" y="686" type="line" smooth="yes"/>
      <point x="305" y="659" type="line" smooth="yes"/>
      <point x="384" y="632" type="line" smooth="yes"/>
      <point x="458" y="663" type="line" smooth="yes"/>
      <point x="492" y="755" type="line" smooth="yes"/>
    </contour>
  </outline>
</glyph>
<glyph name="Umacron" format="1">
  <advance width="647"/>
  <unicode hex="016A"/>
  <outline>
    <contour>
      <point x="282" y="-12" type="line" smooth="yes"/>
      <point x="485" y="49" type="line" smooth="yes"/>
      <point x="567" y="243" type="line" smooth="yes"/>
      <point x="638" y="780" type="line" smooth="yes"/>
      <point x="534" y="780" type="line" smooth="yes"/>
      <point x="464" y="248" type="line" smooth="yes"/>
      <point x="409" y="118" type="line" smooth="yes"/>
      <point x="284" y="80" type="line" smooth="yes"/>
      <point x="170" y="118" type="line" smooth="yes"/>
      <point x="150" y="248" type="line" smooth="yes"/>
      <point x="219" y="780" type="line" smooth="yes"/>
      <point x="115" y="780" type="line" smooth="yes"/>
      <point x="45" y="243" type="line" smooth="yes"/>
      <point x="87" y="49" type="line" smooth="yes"/>
    </contour>
    <contour>
      <point x="262" y="860" type="line" smooth="yes"/>
      <point x="516" y="860" type="line" smooth="yes"/>
      <point x="525" y="930" type="line" smooth="yes"/>
      <point x="271" y="930" type="line" smooth="yes"/>
    </contour>
  </outline>
</glyph>
<glyph name="umacron" format="1">
  <advance width="545"/>
  <unicode hex="016B"/>
  <outline>
    <contour>
      <point x="76" y="530" type="line" smooth="yes"/>
      <point x="28" y="165" type="line" smooth="yes"/>
      <point x="55" y="41" type="line" smooth="yes"/>
      <point x="176" y="-12" type="line" smooth="yes"/>
      <point x="281" y="11" type="line" smooth="yes"/>
      <point x="355" y="71" type="line" smooth="yes"/>
      <point x="355" y="0" type="line" smooth="yes"/>
      <point x="441" y="0" type="line" smooth="yes"/>
      <point x="453" y="150" type="line" smooth="yes"/>
      <point x="503" y="530" type="line" smooth="yes"/>
      <point x="403" y="530" type="line" smooth="yes"/>
      <point x="353" y="149" type="line" smooth="yes"/>
      <point x="303" y="102" type="line" smooth="yes"/>
      <point x="218" y="76" type="line" smooth="yes"/>
      <point x="145" y="105" type="line" smooth="yes"/>
      <point x="130" y="180" type="line" smooth="yes"/>
      <point x="176" y="530" type="line" smooth="yes"/>
    </contour>
    <contour>
      <point x="178" y="652" type="line" smooth="yes"/>
      <point x="435" y="652" type="line" smooth="yes"/>
      <point x="447" y="742" type="line" smooth="yes"/>
      <point x="190" y="742" type="line" smooth="yes"/>
    </contour>
  </outline>
</glyph>
<glyph name="Ubreve" format="1">
  <advance width="647"/>
  <unicode hex="016C"/>
  <outline>
    <contour>
      <point x="282" y="-12" type="line" smooth="yes"/>
      <point x="485" y="49" type="line" smooth="yes"/>
      <point x="567" y="243" type="line" smooth="yes"/>
      <point x="638" y="780" type="line" smooth="yes"/>
      <point x="534" y="780" type="line" smooth="yes"/>
      <point x="464" y="248" type="line" smooth="yes"/>
      <point x="409" y="118" type="line" smooth="yes"/>
      <point x="284" y="80" type="line" smooth="yes"/>
      <point x="170" y="118" type="line" smooth="yes"/>
      <point x="150" y="248" type="line" smooth="yes"/>
      <point x="219" y="780" type="line" smooth="yes"/>
      <point x="115" y="780" type="line" smooth="yes"/>
      <point x="45" y="243" type="line" smooth="yes"/>
      <point x="87" y="49" type="line" smooth="yes"/>
    </contour>
    <contour>
      <point x="387" y="827" type="line" smooth="yes"/>
      <point x="512" y="863" type="line" smooth="yes"/>
      <point x="559" y="950" type="line" smooth="yes"/>
      <point x="482" y="950" type="line" smooth="yes"/>
      <point x="457" y="905" type="line" smooth="yes"/>
      <point x="389" y="890" type="line" smooth="yes"/>
      <point x="328" y="906" type="line" smooth="yes"/>
      <point x="314" y="950" type="line" smooth="yes"/>
      <point x="241" y="950" type="line" smooth="yes"/>
      <point x="265" y="863" type="line" smooth="yes"/>
    </contour>
  </outline>
</glyph>
<glyph name="ubreve" format="1">
  <advance width="545"/>
  <unicode hex="016D"/>
  <outline>
    <contour>
      <point x="76" y="530" type="line" smooth="yes"/>
      <point x="28" y="165" type="line" smooth="yes"/>
      <point x="55" y="41" type="line" smooth="yes"/>
      <point x="176" y="-12" type="line" smooth="yes"/>
      <point x="281" y="11" type="line" smooth="yes"/>
      <point x="355" y="71" type="line" smooth="yes"/>
      <point x="355" y="0" type="line" smooth="yes"/>
      <point x="441" y="0" type="line" smooth="yes"/>
      <point x="453" y="150" type="line" smooth="yes"/>
      <point x="503" y="530" type="line" smooth="yes"/>
      <point x="403" y="530" type="line" smooth="yes"/>
      <point x="353" y="149" type="line" smooth="yes"/>
      <point x="303" y="102" type="line" smooth="yes"/>
      <point x="218" y="76" type="line" smooth="yes"/>
      <point x="145" y="105" type="line" smooth="yes"/>
      <point x="130" y="180" type="line" smooth="yes"/>
      <point x="176" y="530" type="line" smooth="yes"/>
    </contour>
    <contour>
      <point x="305" y="595" type="line" smooth="yes"/>
      <point x="440" y="645" type="line" smooth="yes"/>
      <point x="493" y="780" type="line" smooth="yes"/>
      <point x="414" y="780" type="line" smooth="yes"/>
      <point x="382" y="702" type="line" smooth="yes"/>
      <point x="305" y="675" type="line" smooth="yes"/>
      <point x="240" y="703" type="line" smooth="yes"/>
      <point x="228" y="780" type="line" smooth="yes"/>
      <point x="153" y="780" type="line" smooth="yes"/>
      <point x="177" y="647" type="line" smooth="yes"/>
    </contour>
  </outline>
</glyph>
<glyph name="Uring" format="1">
  <advance width="647"/>
  <unicode hex="016E"/>
  <outline>
    <contour>
      <point x="282" y="-12" type="line" smooth="yes"/>
      <point x="485" y="49" type="line" smooth="yes"/>
      <point x="567" y="243" type="line" smooth="yes"/>
      <point x="638" y="780" type="line" smooth="yes"/>
      <point x="534" y="780" type="line" smooth="yes"/>
      <point x="464" y="248" type="line" smooth="yes"/>
      <point x="409" y="118" type="line" smooth="yes"/>
      <point x="284" y="80" type="line" smooth="yes"/>
      <point x="170" y="118" type="line" smooth="yes"/>
      <point x="150" y="248" type="line" smooth="yes"/>
      <point x="219" y="780" type="line" smooth="yes"/>
      <point x="115" y="780" type="line" smooth="yes"/>
      <point x="45" y="243" type="line" smooth="yes"/>
      <point x="87" y="49" type="line" smooth="yes"/>
    </contour>
    <contour>
      <point x="334" y="857" type="line" smooth="yes"/>
      <point x="353" y="902" type="line" smooth="yes"/>
      <point x="396" y="918" type="line" smooth="yes"/>
      <point x="430" y="905" type="line" smooth="yes"/>
      <point x="442" y="870" type="line" smooth="yes"/>
      <point x="423" y="825" type="line" smooth="yes"/>
      <point x="380" y="809" type="line" smooth="yes"/>
      <point x="347" y="822" type="line" smooth="yes"/>
    </contour>
    <contour>
      <point x="487" y="870" type="line" smooth="yes"/>
      <point x="461" y="937" type="line" smooth="yes"/>
      <point x="396" y="962" type="line" smooth="yes"/>
      <point x="322" y="932" type="line" smooth="yes"/>
      <point x="289" y="857" type="line" smooth="yes"/>
      <point x="315" y="790" type="line" smooth="yes"/>
      <point x="380" y="765" type="line" smooth="yes"/>
      <point x="455" y="795" type="line" smooth="yes"/>
    </contour>
  </outline>
</glyph>
<glyph name="uring" format="1">
  <advance width="545"/>
  <unicode hex="016F"/>
  <outline>
    <contour>
      <point x="76" y="530" type="line" smooth="yes"/>
      <point x="28" y="165" type="line" smooth="yes"/>
      <point x="55" y="41" type="line" smooth="yes"/>
      <point x="176" y="-12" type="line" smooth="yes"/>
      <point x="281" y="11" type="line" smooth="yes"/>
      <point x="355" y="71" type="line" smooth="yes"/>
      <point x="355" y="0" type="line" smooth="yes"/>
      <point x="441" y="0" type="line" smooth="yes"/>
      <point x="453" y="150" type="line" smooth="yes"/>
      <point x="503" y="530" type="line" smooth="yes"/>
      <point x="403" y="530" type="line" smooth="yes"/>
      <point x="353" y="149" type="line" smooth="yes"/>
      <point x="303" y="102" type="line" smooth="yes"/>
      <point x="218" y="76" type="line" smooth="yes"/>
      <point x="145" y="105" type="line" smooth="yes"/>
      <point x="130" y="180" type="line" smooth="yes"/>
      <point x="176" y="530" type="line" smooth="yes"/>
    </contour>
    <contour>
      <point x="258" y="687" type="line" smooth="yes"/>
      <point x="277" y="732" type="line" smooth="yes"/>
      <point x="320" y="748" type="line" smooth="yes"/>
      <point x="354" y="735" type="line" smooth="yes"/>
      <point x="366" y="700" type="line" smooth="yes"/>
      <point x="347" y="655" type="line" smooth="yes"/>
      <point x="304" y="639" type="line" smooth="yes"/>
      <point x="271" y="652" type="line" smooth="yes"/>
    </contour>
    <contour>
      <point x="411" y="700" type="line" smooth="yes"/>
      <point x="385" y="767" type="line" smooth="yes"/>
      <point x="320" y="792" type="line" smooth="yes"/>
      <point x="246" y="762" type="line" smooth="yes"/>
      <point x="213" y="687" type="line" smooth="yes"/>
      <point x="239" y="620" type="line" smooth="yes"/>
      <point x="304" y="595" type="line" smooth="yes"/>
      <point x="379" y="625" type="line" smooth="yes"/>
    </contour>
  </outline>
</glyph>
<glyph name="Uogonek" format="1">
  <advance width="647"/>
  <unicode hex="0172"/>
  <outline>
    <contour>
      <point x="390" y="0" type="line" smooth="yes"/>
      <point x="512" y="80" type="line" smooth="yes"/>
      <point x="567" y="243" type="line" smooth="yes"/>
      <point x="638" y="780" type="line" smooth="yes"/>
      <point x="534" y="780" type="line" smooth="yes"/>
      <point x="464" y="248" type="line" smooth="yes"/>
      <point x="409" y="118" type="line" smooth="yes"/>
      <point x="284" y="80" type="line" smooth="yes"/>
      <point x="170" y="118" type="line" smooth="yes"/>
      <point x="150" y="248" type="line" smooth="yes"/>
      <point x="219" y="780" type="line" smooth="yes"/>
      <point x="115" y="780" type="line" smooth="yes"/>
      <point x="45" y="243" type="line" smooth="yes"/>
      <point x="82" y="53" type="line" smooth="yes"/>
      <point x="262" y="-11" type="line" smooth="yes"/>
      <point x="230" y="-57" type="line" smooth="yes"/>
      <point x="218" y="-115" type="line" smooth="yes"/>
      <point x="246" y="-187" type="line" smooth="yes"/>
      <point x="328" y="-213" type="line" smooth="yes"/>
      <point x="379" y="-207" type="line" smooth="yes"/>
      <point x="420" y="-191" type="line" smooth="yes"/>
      <point x="404" y="-123" type="line" smooth="yes"/>
      <point x="379" y="-132" type="line" smooth="yes"/>
      <point x="343" y="-136" type="line" smooth="yes"/>
      <point x="313" y="-124" type="line" smooth="yes"/>
      <point x="302" y="-95" type="line" smooth="yes"/>
      <point x="331" y="-32" type="line" smooth="yes"/>
    </contour>
  </outline>
</glyph>
<glyph name="uogonek" format="1">
  <advance width="545"/>
  <unicode hex="0173"/>
  <outline>
    <contour>
      <point x="76" y="530" type="line" smooth="yes"/>
      <point x="28" y="165" type="line" smooth="yes"/>
      <point x="55" y="41" type="line" smooth="yes"/>
      <point x="176" y="-12" type="line" smooth="yes"/>
      <point x="281" y="11" type="line" smooth="yes"/>
      <point x="355" y="71" type="line" smooth="yes"/>
      <point x="355" y="21" type="line" smooth="yes"/>
      <point x="294" y="-34" type="line" smooth="yes"/>
      <point x="269" y="-115" type="line" smooth="yes"/>
      <point x="297" y="-187" type="line" smooth="yes"/>
      <point x="379" y="-213" type="line" smooth="yes"/>
      <point x="430" y="-207" type="line" smooth="yes"/>
      <point x="471" y="-191" type="line" smooth="yes"/>
      <point x="455" y="-123" type="line" smooth="yes"/>
      <point x="430" y="-132" type="line" smooth="yes"/>
      <point x="394" y="-136" type="line" smooth="yes"/>
      <point x="364" y="-124" type="line" smooth="yes"/>
      <point x="353" y="-95" type="line" smooth="yes"/>
      <point x="382" y="-34" type="line" smooth="yes"/>
      <point x="441" y="0" type="line" smooth="yes"/>
      <point x="453" y="150" type="line" smooth="yes"/>
      <point x="503" y="530" type="line" smooth="yes"/>
      <point x="403" y="530" type="line" smooth="yes"/>
      <point x="353" y="149" type="line" smooth="yes"/>
      <point x="303" y="102" type="line" smooth="yes"/>
      <point x="218" y="76" type="line" smooth="yes"/>
      <point x="145" y="105" type="line" smooth="yes"/>
      <point x="130" y="180" type="line" smooth="yes"/>
      <point x="176" y="530" type="line" smooth="yes"/>
    </contour>
  </outline>
</glyph>
<glyph name="Ydieresis" format="1">
  <advance width="594"/>
  <unicode hex="0178"/>
  <outline>
    <contour>
      <point x="331" y="237" type="line" smooth="yes"/>
      <point x="631" y="780" type="line" smooth="yes"/>
      <point x="516" y="780" type="line" smooth="yes"/>
      <point x="294" y="366" type="line" smooth="yes"/>
      <point x="180" y="780" type="line" smooth="yes"/>
      <point x="69" y="780" type="line" smooth="yes"/>
      <point x="227" y="237" type="line" smooth="yes"/>
      <point x="196" y="0" type="line" smooth="yes"/>
      <point x="300" y="0" type="line" smooth="yes"/>
    </contour>
    <contour>
      <point x="502" y="936" type="line" smooth="yes"/>
      <point x="403" y="936" type="line" smooth="yes"/>
      <point x="392" y="854" type="line" smooth="yes"/>
      <point x="491" y="854" type="line" smooth="yes"/>
    </contour>
    <contour>
      <point x="339" y="936" type="line" smooth="yes"/>
      <point x="240" y="936" type="line" smooth="yes"/>
      <point x="229" y="854" type="line" smooth="yes"/>
      <point x="328" y="854" type="line" smooth="yes"/>
    </contour>
  </outline>
</glyph>
<glyph name="Zacute" format="1">
  <advance width="575"/>
  <unicode hex="0179"/>
  <outline>
    <contour>
      <point x="-1" y="70" type="line" smooth="yes"/>
      <point x="-10" y="0" type="line" smooth="yes"/>
      <point x="485" y="0" type="line" smooth="yes"/>
      <point x="497" y="92" type="line" smooth="yes"/>
      <point x="262" y="92" type="line" smooth="yes"/>
      <point x="130" y="89" type="line" smooth="yes"/>
      <point x="568" y="710" type="line" smooth="yes"/>
      <point x="577" y="780" type="line" smooth="yes"/>
      <point x="102" y="780" type="line" smooth="yes"/>
      <point x="90" y="688" type="line" smooth="yes"/>
      <point x="305" y="688" type="line" smooth="yes"/>
      <point x="437" y="691" type="line" smooth="yes"/>
    </contour>
    <contour>
      <point x="356" y="950" type="line" smooth="yes"/>
      <point x="283" y="840" type="line" smooth="yes"/>
      <point x="385" y="840" type="line" smooth="yes"/>
      <point x="463" y="950" type="line" smooth="yes"/>
    </contour>
  </outline>
</glyph>
<glyph name="Zcaron" format="1">
  <advance width="575"/>
  <unicode hex="017D"/>
  <outline>
    <contour>
      <point x="-1" y="70" type="line" smooth="yes"/>
      <point x="-10" y="0" type="line" smooth="yes"/>
      <point x="485" y="0" type="line" smooth="yes"/>
      <point x="497" y="92" type="line" smooth="yes"/>
      <point x="262" y="92" type="line" smooth="yes"/>
      <point x="130" y="89" type="line" smooth="yes"/>
      <point x="568" y="710" type="line" smooth="yes"/>
      <point x="577" y="780" type="line" smooth="yes"/>
      <point x="102" y="780" type="line" smooth="yes"/>
      <point x="90" y="688" type="line" smooth="yes"/>
      <point x="305" y="688" type="line" smooth="yes"/>
      <point x="437" y="691" type="line" smooth="yes"/>
    </contour>
    <contour>
      <point x="187" y="950" type="line" smooth="yes"/>
      <point x="285" y="840" type="line" smooth="yes"/>
      <point x="383" y="840" type="line" smooth="yes"/>
      <point x="511" y="950" type="line" smooth="yes"/>
      <point x="413" y="950" type="line" smooth="yes"/>
      <point x="338" y="891" type="line" smooth="yes"/>
      <point x="281" y="950" type="line" smooth="yes"/>
    </contour>
  </outline>
</glyph>
<glyph name="Scommaaccent" format="1">
  <advance width="607"/>
  <unicode hex="0218"/>
  <outline>
    <contour>
      <point x="283" y="355" type="line" smooth="yes"/>
      <point x="413" y="305" type="line" smooth="yes"/>
      <point x="442" y="210" type="line" smooth="yes"/>
      <point x="441" y="202" type="line" smooth="yes"/>
      <point x="389" y="111" type="line" smooth="yes"/>
      <point x="274" y="80" type="line" smooth="yes"/>
      <point x="264" y="80" type="line" smooth="yes"/>
      <point x="154" y="119" type="line" smooth="yes"/>
      <point x="130" y="259" type="line" smooth="yes"/>
      <point x="26" y="259" type="line" smooth="yes"/>
      <point x="22" y="232" type="line" smooth="yes"/>
      <point x="70" y="50" type="line" smooth="yes"/>
      <point x="269" y="-12" type="line" smooth="yes"/>
      <point x="459" y="40" type="line" smooth="yes"/>
      <point x="546" y="196" type="line" smooth="yes"/>
      <point x="549" y="218" type="line" smooth="yes"/>
      <point x="510" y="363" type="line" smooth="yes"/>
      <point x="335" y="440" type="line" smooth="yes"/>
      <point x="207" y="490" type="line" smooth="yes"/>
      <point x="182" y="578" type="line" smooth="yes"/>
      <point x="183" y="586" type="line" smooth="yes"/>
      <point x="231" y="669" type="line" smooth="yes"/>
      <point x="336" y="700" type="line" smooth="yes"/>
      <point x="346" y="700" type="line" smooth="yes"/>
      <point x="457" y="655" type="line" smooth="yes"/>
      <point x="476" y="511" type="line" smooth="yes"/>
      <point x="580" y="511" type="line" smooth="yes"/>
      <point x="584" y="538" type="line" smooth="yes"/>
      <point x="542" y="723" type="line" smooth="yes"/>
      <point x="341" y="792" type="line" smooth="yes"/>
      <point x="161" y="739" type="line" smooth="yes"/>
      <point x="78" y="592" type="line" smooth="yes"/>
      <point x="75" y="570" type="line" smooth="yes"/>
      <point x="112" y="433" type="line" smooth="yes"/>
    </contour>
    <contour>
      <point x="301" y="-51" type="line" smooth="yes"/>
      <point x="198" y="-51" type="line" smooth="yes"/>
      <point x="188" y="-129" type="line" smooth="yes"/>
      <point x="241" y="-129" type="line" smooth="yes"/>
      <point x="215" y="-162" type="line" smooth="yes"/>
      <point x="165" y="-172" type="line" smooth="yes"/>
      <point x="159" y="-219" type="line" smooth="yes"/>
      <point x="252" y="-191" type="line" smooth="yes"/>
      <point x="294" y="-105" type="line" smooth="yes"/>
    </contour>
  </outline>
</glyph>
<glyph name="Ymacron" format="1">
  <advance width="594"/>
  <unicode hex="0232"/>
  <outline>
    <contour>
      <point x="331" y="237" type="line" smooth="yes"/>
      <point x="631" y="780" type="line" smooth="yes"/>
      <point x="516" y="780" type="line" smooth="yes"/>
      <point x="294" y="366" type="line" smooth="yes"/>
      <point x="180" y="780" type="line" smooth="yes"/>
      <point x="69" y="780" type="line" smooth="yes"/>
      <point x="227" y="237" type="line" smooth="yes"/>
      <point x="196" y="0" type="line" smooth="yes"/>
      <point x="300" y="0" type="line" smooth="yes"/>
    </contour>
    <contour>
      <point x="235" y="860" type="line" smooth="yes"/>
      <point x="489" y="860" type="line" smooth="yes"/>
      <point x="498" y="930" type="line" smooth="yes"/>
      <point x="244" y="930" type="line" smooth="yes"/>
    </contour>
  </outline>
</glyph>
<glyph name="breve" format="1">
  <advance width="500"/>
  <unicode hex="02D8"/>
  <outline>
    <contour>
      <point x="285" y="595" type="line" smooth="yes"/>
      <point x="420" y="645" type="line" smooth="yes"/>
      <point x="473" y="780" type="line" smooth="yes"/>
      <point x="394" y="780" type="line" smooth="yes"/>
      <point x="362" y="702" type="line" smooth="yes"/>
      <point x="285" y="675" type="line" smooth="yes"/>
      <point x="220" y="703" type="line" smooth="yes"/>
      <point x="208" y="780" type="line" smooth="yes"/>
      <point x="133" y="780" type="line" smooth="yes"/>
      <point x="157" y="647" type="line" smooth="yes"/>
    </contour>
  </outline>
</glyph>
<glyph name="ring" format="1">
  <advance width="500"/>
  <unicode hex="02DA"/>
  <outline>
    <contour>
      <point x="238" y="687" type="line" smooth="yes"/>
      <point x="257" y="732" type="line" smooth="yes"/>
      <point x="300" y="748" type="line" smooth="yes"/>
      <point x="334" y="735" type="line" smooth="yes"/>
      <point x="346" y="700" type="line" smooth="yes"/>
      <point x="327" y="655" type="line" smooth="yes"/>
      <point x="284" y="639" type="line" smooth="yes"/>
      <point x="251" y="652" type="line" smooth="yes"/>
    </contour>
    <contour>
      <point x="391" y="700" type="line" smooth="yes"/>
      <point x="365" y="767" type="line" smooth="yes"/>
      <point x="300" y="792" type="line" smooth="yes"/>
      <point x="226" y="762" type="line" smooth="yes"/>
      <point x="193" y="687" type="line" smooth="yes"/>
      <point x="219" y="620" type="line" smooth="yes"/>
      <point x="284" y="595" type="line" smooth="yes"/>
      <point x="359" y="625" type="line" smooth="yes"/>
    </contour>
  </outline>
</glyph>
<glyph name="ogonek" format="1">
  <advance width="602"/>
  <unicode hex="02DB"/>
  <outline>
    <contour>
      <point x="237" y="0" type="line" smooth="yes"/>
      <point x="219" y="51" type="line" smooth="yes"/>
      <point x="114" y="-7" type="line" smooth="yes"/>
      <point x="65" y="-115" type="line" smooth="yes"/>
      <point x="93" y="-187" type="line" smooth="yes"/>
      <point x="175" y="-213" type="line" smooth="yes"/>
      <point x="226" y="-207" type="line" smooth="yes"/>
      <point x="267" y="-191" type="line" smooth="yes"/>
      <point x="251" y="-123" type="line" smooth="yes"/>
      <point x="226" y="-132" type="line" smooth="yes"/>
      <point x="190" y="-136" type="line" smooth="yes"/>
      <point x="160" y="-124" type="line" smooth="yes"/>
      <point x="149" y="-95" type="line" smooth="yes"/>
      <point x="178" y="-34" type="line" smooth="yes"/>
    </contour>
  </outline>
</glyph>
<glyph name="tilde" format="1">
  <advance width="500"/>
  <unicode hex="02DC"/>
  <outline>
    <contour>
      <point x="401" y="755" type="line" smooth="yes"/>
      <point x="386" y="723" type="line" smooth="yes"/>
      <point x="360" y="714" type="line" smooth="yes"/>
      <point x="300" y="741" type="line" smooth="yes"/>
      <point x="221" y="768" type="line" smooth="yes"/>
      <point x="147" y="737" type="line" smooth="yes"/>
      <point x="113" y="645" type="line" smooth="yes"/>
      <point x="184" y="645" type="line" smooth="yes"/>
      <point x="199" y="678" type="line" smooth="yes"/>
      <point x="225" y="686" type="line" smooth="yes"/>
      <point x="285" y="659" type="line" smooth="yes"/>
      <point x="364" y="632" type="line" smooth="yes"/>
      <point x="438" y="663" type="line" smooth="yes"/>
      <point x="472" y="755" type="line" smooth="yes"/>
    </contour>
  </outline>
</glyph>
<glyph name="Ddotaccent" format="1">
  <advance width="640"/>
  <unicode hex="1E0A"/>
  <outline>
    <contour>
      <point x="134" y="92" type="line" smooth="yes"/>
      <point x="212" y="688" type="line" smooth="yes"/>
      <point x="318" y="688" type="line" smooth="yes"/>
      <point x="470" y="623" type="line" smooth="yes"/>
      <point x="495" y="413" type="line" smooth="yes"/>
      <point x="489" y="367" type="line" smooth="yes"/>
      <point x="409" y="156" type="line" smooth="yes"/>
      <point x="240" y="92" type="line" smooth="yes"/>
    </contour>
    <contour>
      <point x="601" y="413" type="line" smooth="yes"/>
      <point x="550" y="695" type="line" smooth="yes"/>
      <point x="330" y="780" type="line" smooth="yes"/>
      <point x="120" y="780" type="line" smooth="yes"/>
      <point x="18" y="0" type="line" smooth="yes"/>
      <point x="240" y="0" type="line" smooth="yes"/>
      <point x="480" y="82" type="line" smooth="yes"/>
      <point x="595" y="367" type="line" smooth="yes"/>
    </contour>
    <contour>
      <point x="425" y="936" type="line" smooth="yes"/>
      <point x="325" y="936" type="line" smooth="yes"/>
      <point x="314" y="854" type="line" smooth="yes"/>
      <point x="414" y="854" type="line" smooth="yes"/>
    </contour>
  </outline>
</glyph>
